<svg id="Layer_1" data-name="Layer 1" xmlns="http://www.w3.org/2000/svg" xmlns:xlink="http://www.w3.org/1999/xlink" viewBox="0 0 2000 2000"><defs><clipPath id="clip-path" transform="translate(0 0)"><path d="M1874.7,1339.3c-9.7-122.9-43.9-242.9-48.5-366.3-4.7-124.8,21-248.2,19.8-372.9-.9-94.4-20.7-190.8-72.9-270.9-23.7-36.4-54.1-68.7-91-92-43.7-27.6-95-40.1-146.5-39.6-119.1,1.1-224.2,62.1-334.5,98.6-53,17.5-107.3,27.8-163.3,26.2-51.7-1.5-102.7-11.9-152.4-26C782.1,267,683.9,222,580,194.4c-93.6-24.9-203.1-39.9-292.3,7.9-40.8,21.9-69.6,58.6-95.6,96-13.5,19.5-26.2,39.8-36.5,61.1-10.8,22.3-17,45.4-21.8,69.7C110,548.5,129,668.6,155.3,785.8c13.4,60,29.5,118.9,46.4,178,16.4,57.1,32.2,115,37.1,174.4,2.4,29.6,2.3,59.6-2.1,89-4,26.7-11.6,52.6-20.8,77.9-18.1,49.6-42.3,96.8-58.4,147.1-15.3,47.9-22,99.1-8.8,148.3,11.7,43.5,37.5,82.4,70,113.2,34,32.2,75.3,56.3,119.3,71.9,53.1,18.8,110.8,23.8,166.8,21.9,123.3-4,242.1-41.7,364.6-52.7q10.05-.9,20.1-1.5c18.8-.5,37.7.1,56.4,1.1,29.5,1.5,58.9,4.4,88.3,7.9l10.3,2.4a10.2,10.2,0,0,0,6.3-.3c9.3,1.2,18.7,2.5,28,3.9,30,4.3,60,9.3,89.9,14.5,28.8,7.7,57.6,15.5,86.5,23,40.4,10.5,80.8,19.4,122.6,22a475.49,475.49,0,0,0,76.4-1.2q8.25.15,16.5,0c51.3-.8,102.8-8.8,151.5-25.2,48-16.2,93-40.6,132-73.1,35.2-29.3,61.9-67.6,80.6-109.2C1873.4,1532.3,1882.2,1433.5,1874.7,1339.3Z" fill="none"/></clipPath><linearGradient id="Adsız_degrade" x1="929.7" y1="1012.92" x2="929.7" y2="298.53" gradientTransform="matrix(1, 0, 0, -1, 0, 1997.89)" gradientUnits="userSpaceOnUse"><stop offset="0" stop-color="#180b2d"/><stop offset="1" stop-color="#23103d"/></linearGradient><linearGradient id="Adsız_degrade_2" x1="758.94" y1="866.3" x2="819.83" y2="866.3" gradientTransform="matrix(1, 0, 0, -1, 0, 1997.89)" gradientUnits="userSpaceOnUse"><stop offset="0" stop-color="#d15f54"/><stop offset="1" stop-color="#b23d38"/></linearGradient><linearGradient id="Adsız_degrade_3" x1="1256.98" y1="841.6" x2="1169.03" y2="870.23" xlink:href="#Adsız_degrade_2"/><linearGradient id="Adsız_degrade_4" x1="1000" y1="461.19" x2="1000" y2="654.36" xlink:href="#Adsız_degrade_2"/><linearGradient id="Adsız_degrade_5" x1="999.98" y1="698.83" x2="999.98" y2="1152.36" xlink:href="#Adsız_degrade_2"/><linearGradient id="Adsız_degrade_6" x1="999.95" y1="160.69" x2="999.95" y2="603.89" gradientTransform="matrix(1, 0, 0, -1, 0, 1997.89)" gradientUnits="userSpaceOnUse"><stop offset="0" stop-color="#d31b59"/><stop offset="1" stop-color="#f34761"/></linearGradient><linearGradient id="Adsız_degrade_7" x1="1000.08" y1="708.75" x2="1000.08" y2="726" gradientTransform="matrix(1, 0, 0, -1, 0, 1997.89)" gradientUnits="userSpaceOnUse"><stop offset="0" stop-color="#b72c47"/><stop offset="1" stop-color="#a51c3d"/></linearGradient><linearGradient id="Adsız_degrade_8" x1="999.98" y1="733.09" x2="999.98" y2="764.24" xlink:href="#Adsız_degrade_7"/><linearGradient id="Adsız_degrade_9" x1="957.57" y1="1087.52" x2="957.57" y2="454" gradientTransform="matrix(1, 0, 0, -1, 0, 1997.89)" gradientUnits="userSpaceOnUse"><stop offset="0" stop-color="#2d184f"/><stop offset="1" stop-color="#23103d"/></linearGradient></defs><title>anksiyette</title><rect width="2000" height="2000" fill="#fcf0e3"/><path d="M1874.7,1339.3c-9.7-122.9-43.9-242.9-48.5-366.3-4.7-124.8,21-248.2,19.8-372.9-.9-94.4-20.7-190.8-72.9-270.9-23.7-36.4-54.1-68.7-91-92-43.7-27.6-95-40.1-146.5-39.6-119.1,1.1-224.2,62.1-334.5,98.6-53,17.5-107.3,27.8-163.3,26.2-51.7-1.5-102.7-11.9-152.4-26C782.1,267,683.9,222,580,194.4c-93.6-24.9-203.1-39.9-292.3,7.9-40.8,21.9-69.6,58.6-95.6,96-13.5,19.5-26.2,39.8-36.5,61.1-10.8,22.3-17,45.4-21.8,69.7C110,548.5,129,668.6,155.3,785.8c13.4,60,29.5,118.9,46.4,178,16.4,57.1,32.2,115,37.1,174.4,2.4,29.6,2.3,59.6-2.1,89-4,26.7-11.6,52.6-20.8,77.9-18.1,49.6-42.3,96.8-58.4,147.1-15.3,47.9-22,99.1-8.8,148.3,11.7,43.5,37.5,82.4,70,113.2,34,32.2,75.3,56.3,119.3,71.9,53.1,18.8,110.8,23.8,166.8,21.9,123.3-4,242.1-41.7,364.6-52.7q10.05-.9,20.1-1.5c18.8-.5,37.7.1,56.4,1.1,29.5,1.5,58.9,4.4,88.3,7.9l10.3,2.4a10.2,10.2,0,0,0,6.3-.3c9.3,1.2,18.7,2.5,28,3.9,86.2,12.4,171.5,29.7,257.2,45,44.6,8,89.1,14.1,134.5,13.4,51.3-.8,102.8-8.8,151.5-25.2,48-16.2,93-40.6,132-73.1,35.2-29.3,61.9-67.6,80.6-109.2C1873.4,1532.3,1882.2,1433.5,1874.7,1339.3Z" transform="translate(0 0)" fill="#3a3a99" opacity="0.52" style="isolation:isolate"/><path d="M1784.1,1409.5c0-113.6-22.7-226.2-18.1-339.9,4.7-114.9,37.2-226.4,45.1-341,6-86.8-5.2-176.7-47.4-254-19.2-35.2-44.7-67-76.9-91.1-38.2-28.5-84.4-43.6-131.7-46.9-109.5-7.6-210.4,40.8-314.3,66.4-50,12.3-100.5,17.8-151.8,12.2-47.4-5.2-93.4-18.4-138-34.9-92.8-34.4-179.8-82.8-273.2-115.6-84.2-29.6-183.6-51.3-269-13.8-39.1,17.2-68.2,48.8-94.7,81.3-13.8,16.9-26.9,34.6-37.9,53.5-11.5,19.7-18.9,40.5-25.1,62.4-30.5,107.9-21.7,219.6-6,329.1,8,56,18.5,111.4,29.8,166.8,10.9,53.6,21.3,108,21.5,162.8.1,27.3-2.2,54.9-8.4,81.5-5.6,24.2-14.4,47.5-24.8,70-20.2,44.2-45.8,85.8-64.3,130.9-17.5,42.8-27.4,89.4-18.8,135.5,7.6,40.8,28.5,78.4,56.1,109,28.9,32,65.1,57.2,104.4,74.7,47.4,21.1,100,29.8,151.5,32.2,113.5,5.2,225.3-20.8,338.6-22.1q9.3-.15,18.6,0c17.3.9,34.6,2.8,51.7,5.1,27,3.5,53.8,8.3,80.5,13.7,3.1.9,6.2,1.9,9.3,2.9a9.66,9.66,0,0,0,5.8.2c8.5,1.8,16.9,3.7,25.4,5.6,78.2,17.6,155.3,39.6,232.9,59.9,40.4,10.5,80.8,19.4,122.6,22,47.2,3,95.1-.6,140.9-12.2,45.3-11.5,88.3-30.6,126.5-57.6,34.4-24.4,61.8-57.6,81.9-94.5C1768.9,1586.6,1784.1,1496.5,1784.1,1409.5Z" transform="translate(0 0)" fill="#3a3a99" opacity="0.52" style="isolation:isolate"/><path d="M1813.9,1250.5c-13.2-110.5-48.3-217.4-57-328.5-8.7-112.3,9.9-224.5,4.3-336.9-4.2-85.1-25.5-171.3-75.5-241.6-22.7-32-51.3-60-85.4-79.7-40.4-23.3-87.1-32.7-133.5-30.4-107.4,5.3-199.9,64.1-298,101-47.2,17.7-95.7,29-146.2,29.5-46.7.5-93-7-138.3-18-94.3-22.7-184.5-59.7-279.2-80.8-85.3-19-184.5-28.6-263.2,17.7-36,21.2-60.6,55.3-82.7,90-11.5,18.1-22.2,36.8-30.7,56.4-8.9,20.5-13.7,41.6-17.2,63.6-17.2,108.5,4.4,216.1,32.3,320.8C258,867.5,274.6,920,292,972.7c16.8,50.9,33.2,102.5,39.8,155.9,3.3,26.6,4.2,53.6,1.3,80.3-2.7,24.2-8.5,47.9-16,71-14.5,45.3-34.6,88.8-47.3,134.7-12.1,43.7-16.3,90.1-2.5,134,12.2,38.8,36.8,73,67.2,99.6,31.8,27.8,69.9,48.1,110.2,60.5,48.6,15,100.7,17.4,151.1,13.7,111-8.1,216.8-46.4,326.8-60.7,6-.8,12.1-1.5,18.1-2.1,17-1.1,34-1.2,50.9-1,26.6.3,53.3,1.8,79.8,4,3.1.6,6.3,1.1,9.4,1.8a9.68,9.68,0,0,0,5.7-.5c8.5.8,16.9,1.6,25.3,2.5,78.1,8.1,155.7,20.5,233.5,31.2,40.5,5.6,80.9,9.5,121.8,7.2,46.2-2.6,92.4-11.6,135.6-28.2,42.7-16.4,82.4-40,116.3-70.7,30.7-27.7,53.4-63.2,68.7-101.4C1819.7,1424.5,1824,1335.2,1813.9,1250.5Z" transform="translate(0 0)" fill="#3a3a99" opacity="0.52" style="isolation:isolate"/><path d="M1212.3,683.5a5.7,5.7,0,0,1-2.2-.4,7.17,7.17,0,0,1-4.2-4.1l-6.8-22.8a5.78,5.78,0,0,1,.6-4.8l9-14.9-19.8-25.1a6,6,0,0,1,.9-8.3l10.7-8.9-11-10.5a5.88,5.88,0,0,1-1.8-4.5,6.16,6.16,0,0,1,2.1-4.4l16.5-14V546.9c0-31.3,26.1-56.7,58.2-56.7s58.2,25.4,58.2,56.7a55,55,0,0,1-.9,9.8c-4.7,36.5-24.7,70-58,96.8-25,20.1-48.3,29.3-49.3,29.7A8.33,8.33,0,0,1,1212.3,683.5Zm-.9-28.2,4.2,14.2a205.63,205.63,0,0,0,40.9-25.7c31.1-25.2,49.1-55,53.3-88.8a.37.37,0,0,1,.1-.3,41.14,41.14,0,0,0,.7-7.8c0-24.6-20.7-44.7-46.1-44.7s-46.1,20-46.1,44.7v16.6a6.22,6.22,0,0,1-2.1,4.6l-13.6,11.5,11,10.6a6,6,0,0,1-.4,8.9l-11.3,9.4,18.8,23.8a5.88,5.88,0,0,1,.4,6.8Zm.9-91.8Zm-35.4,119.8a4.56,4.56,0,0,1-2.3-.5c-9.8-4-95.8-41.8-106.5-126.2a55,55,0,0,1-.9-9.8c0-31.3,26.1-56.7,58.2-56.7s58.2,25.4,58.2,56.7v16.6a6.22,6.22,0,0,1-2.1,4.6l-13.6,11.5,11,10.6a6,6,0,0,1-.4,8.9l-11.3,9.4,18.8,23.8a5.88,5.88,0,0,1,.4,6.8l-9.8,16.2,6,20.2a6,6,0,0,1-1.7,6.2A5.61,5.61,0,0,1,1176.9,683.3Zm-51.5-181.1c-25.4,0-46.1,20-46.1,44.7a41.14,41.14,0,0,0,.7,7.8.37.37,0,0,0,.1.3c4.1,32.6,21,61.6,50.2,86.2a211.21,211.21,0,0,0,37.1,24.9l-2.9-9.9a5.78,5.78,0,0,1,.6-4.8l9-14.9-19.8-25.1a6,6,0,0,1,.9-8.3l10.7-8.9-11-10.5a6.36,6.36,0,0,1-1.9-4.5,6.16,6.16,0,0,1,2.1-4.4l16.5-14V546.9C1171.6,522.2,1150.9,502.2,1125.4,502.2Z" transform="translate(0 0)" fill="#f34761"/><path d="M1355.3,1057.4c-5.8,0-24.5-2.2-24.5-31,0-10.8,3.9-28.4,22.8-51.4a2.43,2.43,0,0,1,3.6,0c18.8,23,22.8,40.6,22.8,51.4C1379.8,1055.2,1361,1057.4,1355.3,1057.4Zm0-77.3c-16.4,20.8-19.9,36.6-19.9,46.3,0,23,12.5,26.4,19.9,26.4s19.9-3.4,19.9-26.4C1375.2,1016.7,1371.7,1000.9,1355.3,980.1Z" transform="translate(0 0)" fill="#ffc2c9"/><path d="M1440.1,1132.6c-8.8,0-37.4-3.4-37.4-46.6,0-15.6,5.7-41.2,32.8-74.3a5.89,5.89,0,0,1,4.7-2.2,6.18,6.18,0,0,1,4.7,2.2c27.1,33.1,32.8,58.7,32.8,74.3C1477.5,1129.3,1448.8,1132.6,1440.1,1132.6Zm0-107.4c-20.8,27.4-25.4,48-25.4,60.8,0,22.3,9,34.6,25.4,34.6s25.4-12.3,25.4-34.6C1465.4,1073.3,1460.9,1052.6,1440.1,1025.2Z" transform="translate(0 0)" fill="#ffc2c9"/><path d="M1514.2,705.7h-87.8a30.9,30.9,0,0,1,0-61.8c1,0,2,0,3,.1v-.6a40.6,40.6,0,0,1,80.9-4.9,28.15,28.15,0,0,1,4.1-.2,33.75,33.75,0,0,1,30.7,19.9,21.87,21.87,0,0,1,6.7-1.1,21.4,21.4,0,1,1,0,42.8,21.71,21.71,0,0,1-13.2-4.5A34.54,34.54,0,0,1,1514.2,705.7Zm-87.9-57.2a26.3,26.3,0,1,0,0,52.6h87.8a28.82,28.82,0,0,0,22.3-10.5,2.14,2.14,0,0,1,1.7-.8,2.06,2.06,0,0,1,1.7.7,16.79,16.79,0,1,0,4.8-27.3,2.44,2.44,0,0,1-3.2-1.3,29.19,29.19,0,0,0-27.3-19,27.6,27.6,0,0,0-5.7.6,2.56,2.56,0,0,1-1.9-.4,2.23,2.23,0,0,1-.9-1.7,35.93,35.93,0,0,0-71.8,2c0,1,0,2,.1,3.1a2.09,2.09,0,0,1-.8,1.9,2.42,2.42,0,0,1-2,.6A18.61,18.61,0,0,0,1426.3,648.5Z" transform="translate(0 0)" fill="#faf5ef"/><path d="M676.7,746.9H563.4a46.91,46.91,0,0,1-31.7-12.4A30.71,30.71,0,1,1,515,678a33.59,33.59,0,0,1,7.1.8,46.71,46.71,0,0,1,41.3-25,24.37,24.37,0,0,1,2.7.1,55.34,55.34,0,0,1,109.8,7.2h.8a42.9,42.9,0,0,1,0,85.8ZM532.3,720.3h.3a6,6,0,0,1,4.3,2.2,34.34,34.34,0,0,0,26.5,12.4H676.7a30.9,30.9,0,0,0,0-61.8,30.29,30.29,0,0,0-5.9.6,6.08,6.08,0,0,1-5.2-1.4,6.29,6.29,0,0,1-2-5c.1-1.4.2-2.6.2-3.8a43.29,43.29,0,0,0-86.5-2.5,6,6,0,0,1-2.3,4.4,5.71,5.71,0,0,1-4.9,1.1,38.24,38.24,0,0,0-6.8-.7,34.71,34.71,0,0,0-32.4,22.6,6.3,6.3,0,0,1-3.3,3.5,6.15,6.15,0,0,1-4.8-.1,19.22,19.22,0,0,0-7.8-1.7A18.6,18.6,0,1,0,528,722,6.31,6.31,0,0,1,532.3,720.3Z" transform="translate(0 0)" fill="#faf5ef"/><path d="M538,782a6.15,6.15,0,0,1-4.3-1.8l-17.9-17.9a6,6,0,0,1,8.5-8.5l17.9,17.9a6.1,6.1,0,0,1,0,8.5A5.92,5.92,0,0,1,538,782Z" transform="translate(0 0)" fill="#faf5ef"/><path d="M565.7,782a6.15,6.15,0,0,1-4.3-1.8l-17.9-17.9a6,6,0,0,1,8.5-8.5l17.9,17.9a6.1,6.1,0,0,1,0,8.5A5.92,5.92,0,0,1,565.7,782Z" transform="translate(0 0)" fill="#faf5ef"/><path d="M593.4,782a6.15,6.15,0,0,1-4.3-1.8l-17.9-17.9a6,6,0,0,1,8.5-8.5l17.9,17.9a6.1,6.1,0,0,1,0,8.5A5.92,5.92,0,0,1,593.4,782Z" transform="translate(0 0)" fill="#faf5ef"/><path d="M621.1,782a6.15,6.15,0,0,1-4.3-1.8l-17.9-17.9a6,6,0,0,1,8.5-8.5l17.9,17.9a6.1,6.1,0,0,1,0,8.5A5.92,5.92,0,0,1,621.1,782Z" transform="translate(0 0)" fill="#faf5ef"/><path d="M648.7,782a6.15,6.15,0,0,1-4.3-1.8l-17.9-17.9a6,6,0,0,1,8.5-8.5l17.9,17.9a6.1,6.1,0,0,1,0,8.5A5.6,5.6,0,0,1,648.7,782Z" transform="translate(0 0)" fill="#faf5ef"/><path d="M676.4,782a6.15,6.15,0,0,1-4.3-1.8l-17.9-17.9a6,6,0,0,1,8.5-8.5l17.9,17.9a6.1,6.1,0,0,1,0,8.5A5.6,5.6,0,0,1,676.4,782Z" transform="translate(0 0)" fill="#faf5ef"/><path d="M704.1,782a6.15,6.15,0,0,1-4.3-1.8L682,762.3a6,6,0,0,1,8.5-8.5l17.9,17.9a6.1,6.1,0,0,1,0,8.5A6,6,0,0,1,704.1,782Z" transform="translate(0 0)" fill="#faf5ef"/><path d="M1261.8,897.4a6,6,0,0,1-4.2-10.2l53.9-53.9h-26.7a6,6,0,0,1-4.3-10.3l57.7-57.7a6.41,6.41,0,0,1,4.1-1.8l55.2-1.4a6,6,0,0,1,5.7,3.6,5.8,5.8,0,0,1-1.3,6.6L1369,805.2h26.8a6,6,0,0,1,5.8,4.4,6.13,6.13,0,0,1-2.7,6.8l-134.1,80.1A5.29,5.29,0,0,1,1261.8,897.4Zm37.5-76.2H1326a6,6,0,0,1,4.3,10.3l-30,30,73.8-44.1h-19.6a6,6,0,0,1-4.3-10.3l32.5-32.5-37.8.9Z" transform="translate(0 0)" fill="#d31b59"/><path d="M612.1,987.5a5.86,5.86,0,0,1-3.1-.9l-147.4-88a6.13,6.13,0,0,1-2.7-6.8,6,6,0,0,1,5.8-4.4h30.9l-37.2-37.2a6.19,6.19,0,0,1-1.3-6.6,5.88,5.88,0,0,1,5.7-3.6l60.7,1.5a5.94,5.94,0,0,1,4.1,1.8L591,906.7a6.16,6.16,0,0,1,1.3,6.6,6,6,0,0,1-5.6,3.7H555.9l60.3,60.3a6,6,0,0,1,.5,7.9A5.51,5.51,0,0,1,612.1,987.5Zm-125.6-88,87.2,52-36.3-36.3a6.16,6.16,0,0,1-1.3-6.6,6,6,0,0,1,5.6-3.7h30.8L521,853.4l-43.3-1.1,36.8,36.8a6.16,6.16,0,0,1,1.3,6.6,6,6,0,0,1-5.6,3.7H486.5Z" transform="translate(0 0)" fill="#ffc2c9"/><path d="M838.1,700.4a32.44,32.44,0,1,1,22.7-9.5A31.06,31.06,0,0,1,838.1,700.4Zm0-52.4a20.49,20.49,0,1,0,14.2,6A19,19,0,0,0,838.1,648ZM852,618.1H823.9a6.07,6.07,0,0,1-6-5.5l-9.7-116.8q-.9-10.5-.9-21V464.3a30.6,30.6,0,0,1,61.2,0v10.5q0,10.5-.9,21L858,612.6A6.07,6.07,0,0,1,852,618.1ZM829.4,606h17.1l9.2-111.2c.6-6.6.8-13.3.8-20V464.3a18.6,18.6,0,0,0-37.2,0v10.5c0,6.6.3,13.4.8,20Z" transform="translate(0 0)" fill="#eaad5a"/><path d="M1484.7,913.4a15.93,15.93,0,0,1-4.3-.6,15.62,15.62,0,1,1,11.7-1.4A15.52,15.52,0,0,1,1484.7,913.4Zm-.1-26.3a11,11,0,0,0-5.2,1.4,10.82,10.82,0,0,0,2.2,19.8h0a10.82,10.82,0,0,0,6-20.8A15.44,15.44,0,0,0,1484.6,887.1Zm14.5-11.9a1.27,1.27,0,0,1-.6-.1l-13.5-3.9a2.2,2.2,0,0,1-1.6-2.7l11.5-57.4c.7-3.4,1.5-6.8,2.5-10.1l1.5-5a14.22,14.22,0,0,1,7-8.7A14.83,14.83,0,0,1,1517,786h0a14.22,14.22,0,0,1,8.7,7,14.83,14.83,0,0,1,1.3,11.1l-1.5,5c-1,3.3-2.1,6.7-3.3,9.9l-20.8,54.7A2.57,2.57,0,0,1,1499.1,875.2Zm-10.8-7.8,9.4,2.7,20.1-52.8c1.2-3.1,2.3-6.3,3.2-9.5l1.5-5a10,10,0,0,0-.9-7.6,10.29,10.29,0,0,0-6-4.8,10,10,0,0,0-7.6.9,10.29,10.29,0,0,0-4.8,6l-1.5,5c-.9,3.2-1.7,6.5-2.4,9.8Z" transform="translate(0 0)" fill="#faf5ef"/><path d="M986.2,710.9a5.76,5.76,0,0,1-5.7-5.7v-2.3a47.23,47.23,0,0,1-19.6-7.6,8.05,8.05,0,0,1-3.6-5.7,8.15,8.15,0,0,1,1.9-6.5,8.34,8.34,0,0,1,11.1-1.5,33.38,33.38,0,0,0,10.3,4.9V670.7c-7.5-1.9-12.9-4.4-16.6-7.5-4.2-3.5-6.4-8.8-6.4-15.5a21.62,21.62,0,0,1,7.1-16.6,27.5,27.5,0,0,1,15.9-6.8,5.7,5.7,0,0,1,11.4.1,43.73,43.73,0,0,1,14.8,4.5,8.44,8.44,0,0,1,4.3,5.3,8,8,0,0,1-1.3,6.7,8.28,8.28,0,0,1-10.5,2.5,31.16,31.16,0,0,0-7.4-2.7v15.2c7.8,2,13.5,4.5,17.3,7.8,4.3,3.7,6.5,9,6.5,15.8a21.72,21.72,0,0,1-7.3,16.8,28,28,0,0,1-16.5,6.7v2.1A5.78,5.78,0,0,1,986.2,710.9Zm-20.8-26.1a3.54,3.54,0,0,0-2.8,1.3,3.36,3.36,0,0,0-.8,2.9,3.78,3.78,0,0,0,1.6,2.6,43,43,0,0,0,19.6,7.1,2.29,2.29,0,0,1,2.1,2.3v4.3a1.1,1.1,0,0,0,2.2,0v-4.2a2.38,2.38,0,0,1,2.2-2.3c6.6-.3,11.9-2.3,15.9-5.8a16.72,16.72,0,0,0,5.8-13.3c0-5.5-1.6-9.5-4.9-12.3-3.5-2.9-9-5.4-16.6-7.1h0a2.26,2.26,0,0,1-2.3-2.3V638a2.14,2.14,0,0,1,.8-1.7,2.38,2.38,0,0,1,1.8-.5,36,36,0,0,1,11.5,3.7,3.73,3.73,0,0,0,4.6-1.1,3.36,3.36,0,0,0,.5-2.9,3.62,3.62,0,0,0-1.9-2.3,41.66,41.66,0,0,0-15.2-4.2,2.29,2.29,0,0,1-2.1-2.3v-2a1.1,1.1,0,1,0-2.2,0v1.9a2.38,2.38,0,0,1-2.2,2.3c-6.2.3-11.4,2.3-15.2,5.7a16.81,16.81,0,0,0-5.6,13.2c0,5.4,1.5,9.3,4.7,12,3.4,2.8,9,5.2,16.5,7a2.34,2.34,0,0,1,1.8,2.2v20.5a2.27,2.27,0,0,1-2.7,2.3,36.24,36.24,0,0,1-14.9-6.2A3.16,3.16,0,0,0,965.4,684.8Zm24.2,7.2a2,2,0,0,1-1.5-.6,2.29,2.29,0,0,1-.8-1.7v-19a2.46,2.46,0,0,1,.9-1.9,2.39,2.39,0,0,1,2-.4c4.6,1.4,7.7,2.9,9.6,4.6a10.35,10.35,0,0,1-.7,15.4h0a17,17,0,0,1-9.2,3.5A.77.77,0,0,1,989.6,692Zm2.3-18.1v13a10.27,10.27,0,0,0,4.2-2h0a5.44,5.44,0,0,0,2.1-4.3,5.36,5.36,0,0,0-1.6-4.2A13.83,13.83,0,0,0,991.9,673.9Zm-9.1-15.7a1.7,1.7,0,0,1-.7-.1c-4.3-1.4-7.2-2.9-8.9-4.5a9.57,9.57,0,0,1-2.8-7.2,9.78,9.78,0,0,1,3.5-7.6,15.59,15.59,0,0,1,8.8-3.4,2.47,2.47,0,0,1,1.8.6,2.29,2.29,0,0,1,.8,1.7V656a2.58,2.58,0,0,1-1,1.9A4,4,0,0,1,982.8,658.2Zm-2.3-17.8a8.7,8.7,0,0,0-3.6,1.8h0a5.22,5.22,0,0,0-1.9,4.2,5.3,5.3,0,0,0,1.4,3.9,11.14,11.14,0,0,0,4.1,2.3Zm-5.1,0Z" transform="translate(0 0)" fill="#ffc2c9"/><path d="M986.3,713.9h0a5.7,5.7,0,0,1-5.7-5.7V620.6a5.7,5.7,0,0,1,5.7-5.7h0a5.7,5.7,0,0,1,5.7,5.7v87.6A5.7,5.7,0,0,1,986.3,713.9Z" transform="translate(0 0)" fill="#ffc2c9"/><path d="M538.5,1070.7a8.28,8.28,0,0,1-1-16.5,31.39,31.39,0,0,0,11-3.2L538,1039.1c-6.9,3.5-12.6,5.2-17.5,5.4-5.5.1-10.6-2.4-15.1-7.4a21.47,21.47,0,0,1-5.7-17.2c.6-5.6,3.1-10.8,7.4-15.6a6.12,6.12,0,0,1-1.3-3.9,5.82,5.82,0,0,1,1.9-3.9,5.57,5.57,0,0,1,4.1-1.4,5.48,5.48,0,0,1,3.8,1.8,44,44,0,0,1,14.1-6.4,8.21,8.21,0,0,1,10.2,7.1,8.12,8.12,0,0,1-6.2,8.8,30.64,30.64,0,0,0-7.3,2.8l10,11.4c7.1-3.7,13.1-5.5,18.2-5.6,5.7-.1,10.8,2.5,15.4,7.6a21.48,21.48,0,0,1,5.6,17.4c-.7,5.7-3.4,11.1-7.9,16l1.4,1.6a5.68,5.68,0,0,1-.5,8,5.57,5.57,0,0,1-4.1,1.4,5.82,5.82,0,0,1-3.9-1.9h0l-1.5-1.7a48,48,0,0,1-19.7,7.3Zm.1-36.8a2.29,2.29,0,0,1,1.7.8l13.5,15.4a3.08,3.08,0,0,1,.6,1.9,2.25,2.25,0,0,1-1,1.6,35.65,35.65,0,0,1-15.3,5.2,3.69,3.69,0,0,0-3.3,3.7,3.51,3.51,0,0,0,1.3,2.7,3.36,3.36,0,0,0,2.9.8,42.69,42.69,0,0,0,19.4-7.7,2.32,2.32,0,0,1,3.1.4l2.9,3.2h0c.3.3.6.3.7.4a1,1,0,0,0,.8-.3,1.09,1.09,0,0,0,.1-1.5l-2.8-3.2a2.33,2.33,0,0,1,.1-3.2c4.7-4.6,7.5-9.6,8.1-14.8a16.79,16.79,0,0,0-4.5-13.8c-3.6-4.1-7.5-6.1-11.8-6-4.5.1-10.3,2-17.2,5.6h0a2.36,2.36,0,0,1-3.3-.2L521.5,1010a3,3,0,0,1-.6-1.8,2.25,2.25,0,0,1,1-1.6,37.18,37.18,0,0,1,11-4.8,3.62,3.62,0,0,0,2.7-3.9,3.88,3.88,0,0,0-1.5-2.6,3.36,3.36,0,0,0-2.9-.5,40.79,40.79,0,0,0-14.2,6.9,2.31,2.31,0,0,1-3.1-.3l-1.3-1.5c-.3-.3-.6-.3-.7-.4a1,1,0,0,0-.8.3c-.3.3-.3.6-.4.7a1,1,0,0,0,.3.8l1.3,1.4a2.33,2.33,0,0,1-.1,3.2c-4.5,4.4-7,9.2-7.6,14.3s.9,9.5,4.5,13.6,7.4,6,11.5,5.9c4.4-.1,10.2-2,17-5.7C537.9,1034,538.2,1033.9,538.6,1033.9Zm18.8,15.8h0a2.14,2.14,0,0,1-1.7-.8l-12.6-14.2a2.08,2.08,0,0,1-.5-2,2.33,2.33,0,0,1,1.3-1.6c4.4-2,7.7-3,10.2-2.9a10.09,10.09,0,0,1,7.3,3.6,9.86,9.86,0,0,1,2.4,8.4h0a16.86,16.86,0,0,1-4.6,8.7A2.5,2.5,0,0,1,557.4,1049.7Zm-8.7-15.7,8.6,9.8a12.35,12.35,0,0,0,1.9-4.3,5.12,5.12,0,0,0-1.3-4.6,5.48,5.48,0,0,0-3.9-2.1C553.1,1032.7,551.4,1033,548.7,1034Zm12.8,5.9Zm-39.8-8.7h-.4a9.46,9.46,0,0,1-6.9-3.6,9.77,9.77,0,0,1-2.4-8,14.88,14.88,0,0,1,4.3-8.3,1.9,1.9,0,0,1,1.7-.7,2.29,2.29,0,0,1,1.7.8l12.1,13.7a2.14,2.14,0,0,1,.5,2,2.62,2.62,0,0,1-1.3,1.6C527,1030.3,524,1031.2,521.7,1031.2Zm-3.7-14.8a8.77,8.77,0,0,0-1.5,3.7,5.41,5.41,0,0,0,1.3,4.4,4.81,4.81,0,0,0,3.7,2,12.74,12.74,0,0,0,4.6-1Z" transform="translate(0 0)" fill="#eaad5a"/><path d="M571,1067.7h0a5.71,5.71,0,0,1-8.1-.5L505,1001.5a5.71,5.71,0,0,1,.5-8.1h0a5.71,5.71,0,0,1,8.1.5l57.9,65.7A5.8,5.8,0,0,1,571,1067.7Z" transform="translate(0 0)" fill="#eaad5a"/><path d="M742.5,903.8c-.2-10.2-9.2-17.3-18.6-19.2-12.5-2.5-26.9,2.4-38.3-4.5-10.2-6.2-7.8-20.5-16.8-27.9-8-6.5-19.4-5.6-28.9-4.4-2.9.4-3,5,0,4.6,9.4-1.2,22.5-2.6,28.7,6.3,5.5,7.8,4.5,18,12.8,24.1,8.1,6,18.6,5.7,28.1,5.5,10.5-.2,28.1,1.2,28.4,15.4.1,3.1,4.7,3.1,4.6.1Z" transform="translate(0 0)" fill="#ffc2c9"/><path d="M1187,821.4c-4.5-8.5,1.8-18,8.3-23.5,6.3-5.4,13.8-9,19.7-14.9s8.2-13.1,10-21c1.9-8.3,6.8-23.3,18.4-19.3,2.8,1,4-3.5,1.2-4.5-9-3.1-17.4,3.9-20.9,11.8-4.7,10.6-3.8,22.1-12.9,30.6-7.4,6.9-17,10.9-23.4,18.8-5.6,6.9-8.7,15.9-4.3,24.2,1.2,2.7,5.2.4,3.9-2.2Z" transform="translate(0 0)" fill="#ffc2c9"/><path d="M1451.5,962a50,50,0,0,1,28.7-7.7c10.5.4,19.6,5.4,29.6,7.9,16.1,4,32.4-3.6,38.7-19.1,1.1-2.8-3.3-4-4.5-1.2a27.45,27.45,0,0,1-19.2,16.3c-9.6,2.3-18.7-2-27.5-5-16.2-5.6-33.5-4.2-48.2,4.9-2.4,1.5-.1,5.5,2.4,3.9Z" transform="translate(0 0)" fill="#ffc2c9"/><path d="M734.8,632.6c4.6-13.3-.3-27.5-11.7-35.7-6.8-4.9-15-7.7-21.5-13.1-6.2-5.2-11.1-15-4.5-21.9,2.1-2.1-1.2-5.4-3.3-3.3-4.5,4.7-5.5,11.4-3.4,17.5,2.3,7,8.3,11.8,14.4,15.5,7.5,4.5,16.3,7.7,21.8,14.8a26.18,26.18,0,0,1,3.7,24.9c-.9,2.8,3.5,4.1,4.5,1.3Z" transform="translate(0 0)" fill="#ffc2c9"/><path d="M747.7,852.8A21.3,21.3,0,1,1,769,831.5,21.32,21.32,0,0,1,747.7,852.8Zm0-33.5a12.1,12.1,0,1,0,12.1,12.1A12.08,12.08,0,0,0,747.7,819.3Z" transform="translate(0 0)" fill="#d31b59"/><path d="M446,653.3A21.3,21.3,0,1,1,467.3,632,21.32,21.32,0,0,1,446,653.3Zm0-33.5a12.1,12.1,0,1,0,12.1,12.1A12.21,12.21,0,0,0,446,619.8Z" transform="translate(0 0)" fill="#f34761"/><path d="M1013.4,547.8a21.3,21.3,0,1,1,21.3-21.3A21.32,21.32,0,0,1,1013.4,547.8Zm0-33.4a12.1,12.1,0,1,0,12.1,12.1A12.08,12.08,0,0,0,1013.4,514.4Z" transform="translate(0 0)" fill="#d31b59"/><path d="M1403.1,581.3a21.3,21.3,0,1,1,21.3-21.3A21.32,21.32,0,0,1,1403.1,581.3Zm0-33.5a12.1,12.1,0,1,0,12.1,12.1A12.21,12.21,0,0,0,1403.1,547.8Z" transform="translate(0 0)" fill="#ffc2c9"/><path d="M1414.4,881.2a21.3,21.3,0,1,1,21.3-21.3A21.32,21.32,0,0,1,1414.4,881.2Zm0-33.4a12.1,12.1,0,1,0,12.1,12.1A12.08,12.08,0,0,0,1414.4,847.8Z" transform="translate(0 0)" fill="#ffc2c9"/><path d="M1381,1207.2a21.3,21.3,0,1,1,21.3-21.3A21.32,21.32,0,0,1,1381,1207.2Zm0-33.4a12.1,12.1,0,1,0,12.1,12.1A12.08,12.08,0,0,0,1381,1173.8Z" transform="translate(0 0)" fill="#f34761"/><path d="M512.3,1190.5a21.3,21.3,0,1,1,21.3-21.3A21.32,21.32,0,0,1,512.3,1190.5Zm0-33.4a12.1,12.1,0,1,0,12.1,12.1A12.08,12.08,0,0,0,512.3,1157.1Z" transform="translate(0 0)" fill="#ffc2c9"/><g clip-path="url(#clip-path)"><path d="M1394.7,1437.8c-6.1-21.3-17.4-40.1-33.9-54.9-17.4-15.6-38.2-26.8-55.9-42.1-18.7-16.1-30.6-36.7-37-60.4s-8-48.2-10.3-72.5c-8.6-92.9-36.6-190.1-105.8-256.5-60.7-58.3-158.2-87.1-237.2-50.1-42.2,19.8-72.4,56.5-101.3,91.7-14.6,17.8-29.2,35.7-45.6,51.9-15.7,15.6-32.9,29.5-49.9,43.6-32.3,26.7-66.4,54.8-85,93.4-19.9,41.2-14.1,87-15.7,131.2-.8,22.1-3.7,44.8-14.5,64.4-11.3,20.4-31.1,32.2-46.2,49.2a72.63,72.63,0,0,0-16,29.8c-3.3,12.5-4,25.5-5.8,38.2-2.8,20.2-10.1,45.5-32.2,51.8-11.8,3.4-38.5,3.8-40.7-13a2,2,0,0,0-2.4-1.8,1.43,1.43,0,0,0-1.3,1.8c1,19.1,8,37.5,22.2,50.6,15.5,14.3,36.4,20.2,57.1,21.2,28.1,1.4,55.8-5.4,83.7-6.5,23.3-1,46.6,1.3,69.5,5.6,92.3,17.2,177.8,66,272.6,70.5a236.5,236.5,0,0,0,69.1-6.5c25.4-6.4,49.6-17.1,73.1-28.5,49.1-23.8,99.7-53,156-52.3,14.4.2,28.2,3,42.1,6.6,12.6,3.3,25.4,6.9,38.4,7.3,20.4.7,41.9-6.7,50.7-26.5,4.6-10.3,5.6-21.7,6.5-32.8,1-11.8,1.8-23.7,2.1-35.6C1402.1,1483.7,1401.1,1460.2,1394.7,1437.8Z" transform="translate(0 0)" fill="url(#Adsız_degrade)"/><path d="M757.6,1140.8a65.42,65.42,0,0,0,74.4,55.1l-19.2-129.5A65.6,65.6,0,0,0,757.6,1140.8Z" transform="translate(0 0)" fill="#d15f54"/><path d="M768.5,1139.1a53.07,53.07,0,0,0,60.3,44.7l-15.6-105A53.07,53.07,0,0,0,768.5,1139.1Z" transform="translate(0 0)" fill="url(#Adsız_degrade_2)"/><path d="M1187.2,1066.5,1168,1196a65.46,65.46,0,1,0,19.2-129.5Z" transform="translate(0 0)" fill="#d15f54"/><path d="M1186.8,1078.8l-15.6,105a53.08,53.08,0,1,0,15.6-105Z" transform="translate(0 0)" fill="url(#Adsız_degrade_3)"/><path d="M1221.1,1476.3c-29,1.5-64.5-4.8-98.5-13.7a42.6,42.6,0,0,1-31.8-41.3v-218H909.2v218a42.71,42.71,0,0,1-31.8,41.3c-34,8.9-69.5,15.2-98.5,13.7-83.6-4.3-194.5-34.6-201.7,167.1l-25.9,193.8h897.4l-25.9-193.8C1415.6,1441.7,1304.7,1472,1221.1,1476.3Z" transform="translate(0 0)" fill="url(#Adsız_degrade_4)"/><path d="M909.2,1365.2c29.3,26.7,62.9,44.6,97.3,44.6,29.4,0,58.3-13.1,84.3-33.6V1213.1H909.2Z" transform="translate(0 0)" fill="#b23d38"/><path d="M1200.8,937.3C1175.8,795.4,1000,799,1000,799s-175.7-3.6-200.8,138.3c-21.3,120.4,17.3,110.3,8.7,190.3-8.1,75,88.4,237.9,192.1,237.9s200.2-162.9,192.1-237.9C1183.5,1047.6,1222,1057.7,1200.8,937.3Z" transform="translate(0 0)" fill="url(#Adsız_degrade_5)"/><path d="M853.8,1118.4h26.1l15.4-7.6,20.5-3.7,19.7,2.5C935.6,1109.6,902.7,1068.5,853.8,1118.4Z" transform="translate(0 0)" fill="#c46157"/><path d="M943.1,1115.4a42.69,42.69,0,0,0-13-8.6c-1.2-.5-2.5-1-3.8-1.4s-2.6-.7-3.9-1a42.62,42.62,0,0,0-8-.9,48.62,48.62,0,0,0-15.7,2.4,65.2,65.2,0,0,0-7.3,2.9c-.6.3-1.2.6-1.7.9s-1.1.6-1.7.9l-3.1,1.7c-.5.3-1,.5-1.4.8s-1,.5-1.4.7c-1,.4-2,.9-2.9,1.3s-2,.8-3,1.1l-1.5.5a8.33,8.33,0,0,1-1.5.4,34.25,34.25,0,0,1-12.8,1,32.83,32.83,0,0,1-13.1-4.4,20.6,20.6,0,0,0,4.9,5.7,28.06,28.06,0,0,0,6.6,4.1,33.55,33.55,0,0,0,15.7,2.5c.7-.1,1.3-.1,2-.2l2-.3c1.3-.3,2.6-.5,3.9-.9a59.09,59.09,0,0,0,7.4-2.7,14.17,14.17,0,0,1,1.8-.8l1.5-.8c1-.5,2-.9,3-1.4a50.51,50.51,0,0,1,6.1-2.3,62.85,62.85,0,0,1,6.2-1.7,45.51,45.51,0,0,1,6.3-.9,42,42,0,0,1,12.7,1,51.15,51.15,0,0,1,12.5,4.6,62.36,62.36,0,0,1,11.8,7.9,31.69,31.69,0,0,0-3.6-6.5A64.74,64.74,0,0,0,943.1,1115.4Z" transform="translate(0 0)" fill="#1b1130"/><circle cx="914.9" cy="1126.5" r="20.7" fill="#1b1130"/><circle cx="922.9" cy="1121.9" r="7.6" fill="#faf5ef"/><path d="M1062.1,1109l19.7-2.5,20.5,3.7,15.4,7.6h26.1C1094.9,1067.9,1062.1,1109,1062.1,1109Z" transform="translate(0 0)" fill="#c46157"/><path d="M1124.6,1116.7c-.5-.1-1-.3-1.5-.4l-1.5-.5c-1-.4-2-.7-3-1.1s-2-.9-2.9-1.3c-.5-.2-1-.5-1.4-.7s-1-.5-1.4-.8l-3.1-1.7c-.6-.3-1.1-.6-1.7-.9s-1.1-.6-1.7-.9a65.2,65.2,0,0,0-7.3-2.9,49,49,0,0,0-15.7-2.4,42.62,42.62,0,0,0-8,.9c-1.3.3-2.6.6-3.9,1s-2.5.9-3.8,1.4a42.69,42.69,0,0,0-13,8.6,38.59,38.59,0,0,0-4.9,5.8,34.54,34.54,0,0,0-3.6,6.5,78.37,78.37,0,0,1,11.8-7.9,49.69,49.69,0,0,1,12.5-4.6,43.44,43.44,0,0,1,19-.1,43.69,43.69,0,0,1,6.2,1.7,63.73,63.73,0,0,1,6.1,2.3c1,.4,2,.9,3,1.4l1.5.8a14.17,14.17,0,0,0,1.8.8,59.09,59.09,0,0,0,7.4,2.7c1.3.4,2.6.6,3.9.9l2,.3c.7.1,1.3.1,2,.2a33.34,33.34,0,0,0,15.7-2.5,26.16,26.16,0,0,0,6.6-4.1,19.06,19.06,0,0,0,4.9-5.7,33.35,33.35,0,0,1-13.1,4.4A39.36,39.36,0,0,1,1124.6,1116.7Z" transform="translate(0 0)" fill="#1b1130"/><circle cx="1082.8" cy="1125.9" r="20.7" fill="#1b1130"/><circle cx="1090.7" cy="1122.7" r="7.6" fill="#faf5ef"/><path d="M1422.8,1643.4c-7.2-201.7-118.1-171.4-201.7-167.1-29,1.5-64.5-4.8-98.5-13.7a38.94,38.94,0,0,1-10.1-4.1c2.3-12.8,4-25.9,5.7-38.8,1.3-9.7,0-20.8-10.9-24-9.6-2.9-19.4,1.9-26.4,8.3-8.5,7.8-14.7,19-25.9,23.1a16.19,16.19,0,0,1-15.5-1.8c-4.1-2.8-8-6.3-13.3-6.2-8.2.2-12.2,8.1-16,14.1-1.8,2.8-4,6.4-7.5,7.2-6.1,1.4-11.2-5.3-14.8-9.2s-7.5-7.6-12.6-8.9-9.7.4-14,2.7c-4.5,2.4-9.2,5.9-14.6,4.5s-9.4-6.5-12.3-10.9c-5.4-8.2-9.5-18.4-19-22.9-9.1-4.2-18.5-.2-24.1,7.5-6.9,9.5-6.4,21-4.1,32,1.5,6.9,3.6,14,3.9,21a41.54,41.54,0,0,1-13.8,6.4c-34,8.9-69.5,15.2-98.5,13.7-83.6-4.3-194.5-34.6-201.7,167.1l-25.9,193.8h897.5Z" transform="translate(0 0)" fill="url(#Adsız_degrade_6)"/><circle cx="1252.1" cy="1718.7" r="13.7" fill="#ffc2c9"/><path d="M1211.2,1476.5a13.7,13.7,0,0,0,27.4-.2,4.87,4.87,0,0,0-.1-1.2c-5.9.5-11.6.9-17.3,1.2C1217.9,1476.5,1214.6,1476.5,1211.2,1476.5Z" transform="translate(0 0)" fill="#ffc2c9"/><circle cx="939.5" cy="1524.4" r="13.7" fill="#ffc2c9"/><circle cx="1130.2" cy="1801" r="13.7" fill="#ffc2c9"/><circle cx="1150.5" cy="1615.6" r="13.7" fill="#ffc2c9"/><path d="M1430.7,1702.6l-3.5-26.4a13.63,13.63,0,0,0,3.5,26.4Z" transform="translate(0 0)" fill="#ffc2c9"/><circle cx="1302.6" cy="1549.9" r="13.7" fill="#ffc2c9"/><circle cx="1082.8" cy="1476.3" r="13.7" fill="#ffc2c9"/><path d="M1395.3,1823.5a13.72,13.72,0,0,0-13.7,13.7h27.3A13.64,13.64,0,0,0,1395.3,1823.5Z" transform="translate(0 0)" fill="#ffc2c9"/><path d="M578.2,1823.5a13.72,13.72,0,0,0-13.7,13.7h27.3A13.51,13.51,0,0,0,578.2,1823.5Z" transform="translate(0 0)" fill="#ffc2c9"/><path d="M801,1490a13.72,13.72,0,0,0,13.7-13.7,7.57,7.57,0,0,0-.1-1.5,215.1,215.1,0,0,1-27.2,1.6A13.55,13.55,0,0,0,801,1490Z" transform="translate(0 0)" fill="#ffc2c9"/><path d="M922.8,1823.5a13.72,13.72,0,0,0-13.7,13.7h27.3A13.51,13.51,0,0,0,922.8,1823.5Z" transform="translate(0 0)" fill="#ffc2c9"/><circle cx="951.6" cy="1675.3" r="13.7" fill="#ffc2c9"/><circle cx="722.5" cy="1753.7" r="13.7" fill="#ffc2c9"/><path d="M570.9,1718.7a13.7,13.7,0,1,0,0-27.4h-.2l-3.6,26.8A12.56,12.56,0,0,0,570.9,1718.7Z" transform="translate(0 0)" fill="#ffc2c9"/><circle cx="736.2" cy="1577.2" r="13.7" fill="#ffc2c9"/><path d="M615.8,1524.4a13.72,13.72,0,0,0,13.7-13.7,13.91,13.91,0,0,0-5.9-11.3,101.53,101.53,0,0,0-17.3,21A13.13,13.13,0,0,0,615.8,1524.4Z" transform="translate(0 0)" fill="#ffc2c9"/><path d="M1055.1,1272.7a2.18,2.18,0,0,0-.9-.7c-17-7-34.5-13.8-53.3-12.5-9.1.6-18.1,2.7-27,4.5l-29.2,6c-1.4-1-3.9.8-2.9,2.9a39,39,0,0,0,22.2,20,35.51,35.51,0,0,0,14.8,2.1c6.7-.4,13.1-2.9,19.8-3.3,11.9-.8,23.3,5.6,35.3,3.1,10.5-2.2,18.8-10.7,24.4-19.4C1059.5,1273.3,1056.8,1271.5,1055.1,1272.7Z" transform="translate(0 0)" fill="url(#Adsız_degrade_7)"/><path d="M1057.6,1269.5c-12.2-4.1-20-15.1-30.3-22.3-7.9-5.5-18.3-2.6-27.3,1.4-9-4-19.4-7-27.3-1.4-10.3,7.2-18,18.2-30.3,22.3a2.12,2.12,0,0,0-.6,3.7c.1.2.2.3.3.5,5.9,6.4,15.3,5.7,22.8,2.6,5.1-2.1,9.8-5.2,15.1-6.9a26,26,0,0,1,18.2,1,3,3,0,0,0,3.6,0,25.94,25.94,0,0,1,18.2-1c5.3,1.7,10,4.8,15.1,6.9,7.5,3.1,16.8,3.8,22.8-2.6.1-.2.2-.3.3-.5A2.15,2.15,0,0,0,1057.6,1269.5Z" transform="translate(0 0)" fill="url(#Adsız_degrade_8)"/><path d="M964.4,1044.9s-21.3,13.4-34.6,13.7h0c-18.7.7-48.3,2.9-61.4,10-19.9,10.8-34.9,37.6-34.9,37.6s21.1-17.3,32.5-20.1c19-4.8,78.7-10.5,81.2-11.3a4.18,4.18,0,0,0,1.5-.9C960.6,1067.9,964.4,1044.9,964.4,1044.9Z" transform="translate(0 0)" fill="#1b1130"/><path d="M1035.6,1044.9s21.3,13.4,34.6,13.7h0c18.7.7,48.3,2.9,61.4,10,19.9,10.8,34.9,37.6,34.9,37.6s-21.1-17.3-32.5-20.1c-19-4.8-78.7-10.5-81.2-11.3a4.18,4.18,0,0,1-1.5-.9C1039.4,1067.9,1035.6,1044.9,1035.6,1044.9Z" transform="translate(0 0)" fill="#1b1130"/><path d="M1449.5,1639.7a29.22,29.22,0,0,1-3.7-2.4,6.29,6.29,0,0,0,1.9-4.2c0-3.3-2.6-5.3-5.6-5.6a16.56,16.56,0,0,1-11.1-6.3,74.42,74.42,0,0,1-4.4-7.8,30.94,30.94,0,0,1-2.1-10.9c-.1-16,10.1-30.5,16.8-44.4a224,224,0,0,0,22.4-98.9c-.3-31.6-7.4-64-32.7-85.1-21.5-17.9-48.8-25.8-74.9-34.7-1.2-.8-2.5-1.5-3.8-2.3-14.6-8.6-30.9-15.2-43.7-26.6-14.3-12.7-19.5-29.4-20.7-47.1a354,354,0,0,0,10.7-218.9C1279.2,974,1236.4,911,1179,865.9c-9.2-7.2-18.7-14-28.5-20.2-34.7-26.2-75.3-44.3-118.7-51.1q-10.05-1.5-20.1-2.4a.76.76,0,0,1-.4-.1c-72-7.4-141.3,28.2-192.6,76.2C768.7,915.1,733,974,697.5,1032c-9.3,9.1-18.8,18.1-28.4,26.9-32.4,29.6-68.5,56.2-95.1,91.5-12.4,16.5-22.4,35.1-27.9,55-5.9,21.1-5.6,42.6-.3,63.8,5.9,23.3,16.5,45.3,20.9,69,2.4,12.9,3,27.1-.4,40.1-.6.6-1.3,1.2-1.9,1.7-10.4,9.1-22.7,15.8-32.5,25.6-10.8,10.8-16.5,24.7-14.8,40,1.8,16.4,9.3,31.2,12.4,47.3,2.9,14.7-.9,28.9-12.6,38.7a35.38,35.38,0,0,1-39.1,4,38,38,0,0,1-11.5-9.1c0-.1-.1-.2-.1-.3a6.14,6.14,0,0,0-2.6-3.4c-.3-.5-.7-1-1-1.5-3.9-6.6-14.2-.6-10.3,6a49.3,49.3,0,0,0,3.6,5.3,37.93,37.93,0,0,0,12.9,16.3c15.5,23.1,43.2,35.9,70.7,37.2,32.9,1.5,64-14.5,87.6-36.4,24.9-23,43-53.3,53.4-85.5,11-33.9,12.7-69.8,6.2-104.7-5.4-29.1-15.4-57.8-19.7-87.1,1.1-17.5,2-35,4.5-52.4,2.1-14.7,5.5-29.6,11.5-43.3a124.61,124.61,0,0,1,25.9-37.5l1.1-1.1c27.6-16.6,59.6-24.5,90.2-33.7,63-18.9,125.6-48.5,167.9-100.6,18.7-23.1,33.2-49.9,40.3-78.7,5.9,20.4,16.7,39.4,30,56.2,21.8,27.7,50.3,48.6,78.9,68.7,29,20.4,58.9,40.4,82.5,67.2,2.3,2.6,4.5,5.2,6.6,7.9,8.8,21.3,15.2,43.4,15.4,66.5.4,39.6-23,73.1-29,111.4-2.8,17.6-2.4,35.9,5.1,52.4,7,15.5,20.3,26.7,35.5,33.6,15.9,7.2,32.9,10.2,50,13.2,18.1,3.1,36.8,6.4,52.7,16.2,12.3,7.6,21.3,18.6,27.4,31.2a56.25,56.25,0,0,1,1.4,6.9c2.7,16,0,32-4.1,47.5-8.5,32.2-22.7,67.4-4.6,99,17.1,29.9,51.8,42.1,84.1,46.8,1.9.3,3.8.5,5.7.8C1458.1,1647.2,1449.5,1639.7,1449.5,1639.7ZM564.1,1291.1c-7.2-20.9-13.2-42-10.8-64.3,2.1-20.3,10.3-39.7,21-56.8,23.5-37.7,60.1-64.7,92.8-93.9,2.5-2.2,5-4.4,7.4-6.7-15.9,25.1-32.4,49.8-51,72.9-21.7,27-47.3,53.7-50.7,89.9-3.5,37.1,15.4,72.3,11.4,109.4a65.35,65.35,0,0,1-4.4,17.4c0-2.3-.1-4.6-.2-6.9C578.2,1330.9,570.9,1311.1,564.1,1291.1Zm107.1,50.5c4.1,17.1,7.5,34.4,8.1,52.1a200.72,200.72,0,0,1-4.5,48.9c-7,31.7-21.5,62-42.9,86.5-19.9,22.8-46.9,41.9-77.6,45.7-21.7,2.7-45-3.1-62.1-16.6a53.11,53.11,0,0,0,26.5-3.7c30.2-12.9,43.3-45.6,54.2-74.1,6-15.8,12.6-31,22.2-44.9,8.9-12.8,19.3-24.5,29.1-36.7,10-12.4,19.5-25.3,26.1-39.9a171.84,171.84,0,0,0,12.7-43.8c.2-1.5.4-3,.7-4.4C665.9,1321,668.7,1331.3,671.2,1341.6Zm219.9-287c-29.1,17.2-60.5,29.4-92.8,39.1-15.7,4.7-31.8,9.1-47.5,14.4a402.58,402.58,0,0,1,38.4-19c31.5-13.9,63.9-26,93.2-44.3A345.72,345.72,0,0,0,994.9,931.3C978.9,984.1,938.4,1026.6,891.1,1054.6Zm408.6,94.4a342.64,342.64,0,0,1-10.3,73.3c.4-4.2.7-8.3,1-12.3a536.22,536.22,0,0,0-5-117.4c-9.2-59.1-29.4-117.8-62.3-168,4,4.8,7.8,9.6,11.5,14.6C1279.4,999.6,1302,1073.8,1299.7,1149Zm-42.8,237.1c-15.9-4.2-32.1-11-42.6-24.2s-13.1-30.8-11.8-47.3c1.5-18.9,8.3-36.8,14.9-54.5,7-18.8,13.7-37.7,15.1-57.8a140.5,140.5,0,0,0-2.1-35.5,112.38,112.38,0,0,1,8,37.5c1.1,36.4-21.7,68.8-19.6,105.3.9,15.8,6.7,30.8,18.3,41.9,10.3,9.9,23.6,15.8,36.8,20.7s26.9,8.8,39.6,15.1a90.57,90.57,0,0,1,29.6,23.2C1317.8,1394.3,1285.8,1393.8,1256.9,1386.1Zm125.8-25.5c11.7,4.4,23.1,9.5,33.5,16.5,12.3,8.3,22.2,19.5,27.9,33.2,6.4,15.2,8.1,32,8.3,48.3a211.82,211.82,0,0,1-23.8,99.7c-3.9,7.6-8.2,15.5-11.2,23.7-2.1-19.1,1.3-38.6,4.6-57.3,3.5-20.3,7.4-40.8,6.5-61.5-1.5-34.4-15.2-67.6-37.5-93.7C1388.3,1366.5,1385.6,1363.5,1382.7,1360.6Z" transform="translate(0 0)" fill="url(#Adsız_degrade_9)"/></g></svg>