<?xml version="1.0" encoding="utf-8"?>
<!-- Generator: Adobe Illustrator 18.0.0, SVG Export Plug-In . SVG Version: 6.00 Build 0)  -->
<!DOCTYPE svg PUBLIC "-//W3C//DTD SVG 1.1//EN" "http://www.w3.org/Graphics/SVG/1.1/DTD/svg11.dtd">
<svg version="1.1" id="Layer_1" xmlns="http://www.w3.org/2000/svg" xmlns:xlink="http://www.w3.org/1999/xlink" x="0px" y="0px"
	 width="800px" height="600px" viewBox="0 0 800 600" enable-background="new 0 0 800 600" xml:space="preserve">
<g>
	<rect fill="#D0EDFC" width="400" height="600"/>
	<rect x="400" fill="#FAF9D7" width="400" height="600"/>
	<path fill="#FFFFFF" d="M454.6,401.3c0,0-7,27.4-54.6,27.4s-54.3-32.1-54.3-32.1c8.6,1.6,14.5,0.9,16.1-4.9c7.1-24.4,5-83.5,5-83.5
		l0.2-0.3c9.6,8,20.7,12.2,32.9,12.2s23.3-4.2,32.9-12.2l0.2,0.3c0,0-2,59,5,83.5C439.9,397.6,445.9,400.2,454.6,401.3z"/>
	<path fill="#27AAE1" d="M382.5,427.1c-6.6,5.4-16.4,27.7-15.3,35.8c1.4,10-30.6-34.9-33.1-56.9c-0.6-5.6-0.5-9.4,0.1-12.2
		c-29.3-8.6-74.9-26.9-103.8,5.1c-43.3,48-48.8,201.1-48.8,201.1h104.7h113.1V440.6C396,423.8,386.4,424.1,382.5,427.1z"/>
	<path fill="#FFDE17" d="M618.5,600c0,0-5.5-120.8-48.8-168.9c-32.9-36.5-87.5-26.2-115.1-29.8c0,0-7,27.4-54.6,27.4
		c-0.2,0-0.4,0-0.7,0V600h114.4H618.5z"/>
	<g>
		<path fill="#FFFFFF" d="M337.8,258.1c0,0-45-18.6-37.5-46.2c4.4-16.4,29.8,5.2,29.8,5.2L337.8,258.1z"/>
		<path fill="#FFFFFF" d="M461.4,258.1c0,0,45-18.6,37.5-46.2c-4.4-16.4-29.8,5.2-29.8,5.2L461.4,258.1z"/>
	</g>
	<g>
		<path fill="none" stroke="#1C75BC" stroke-width="2" stroke-linecap="round" stroke-linejoin="round" stroke-miterlimit="10" d="
			M337.8,258.1c0,0-45-18.6-37.5-46.2c4.4-16.4,29.8,5.2,29.8,5.2L337.8,258.1z"/>
		<path fill="none" stroke="#1C75BC" stroke-width="2" stroke-linecap="round" stroke-linejoin="round" stroke-miterlimit="10" d="
			M461.4,258.1c0,0,45-18.6,37.5-46.2c-4.4-16.4-29.8,5.2-29.8,5.2L461.4,258.1z"/>
	</g>
	<path fill="#FFFFFF" d="M400,103.5c-53.2,0-75.4,36-70.6,105.2c3.3,47.3,17,82.1,37.7,99.3c9.6,8,20.7,12.2,32.9,12.2
		s23.3-4.2,32.9-12.2c20.7-17.2,34.4-52,37.7-99.3C475.4,139.5,453.2,103.5,400,103.5z"/>
	<path fill="none" stroke="#1C75BC" stroke-width="2" stroke-linecap="round" stroke-linejoin="round" stroke-miterlimit="10" d="
		M388.7,211.9c-3,3.1-23.6-20.5-31.9-15.7"/>
	<circle fill="#1C75BC" cx="372.8" cy="217" r="4.2"/>
	<circle fill="#1C75BC" cx="425.7" cy="217" r="4.2"/>
	<path fill="none" stroke="#1C75BC" stroke-width="2" stroke-linecap="round" stroke-linejoin="round" stroke-miterlimit="10" d="
		M400,269.7c-6.5-0.3-27-14.5-27.2,2.1c-0.2,16.5,16.3,17.1,27.2,14.2"/>
	<path fill="none" stroke="#1C75BC" stroke-width="2" stroke-linecap="round" stroke-linejoin="round" stroke-miterlimit="10" d="
		M400,275.5c14.2,0,27.6-8.4,29.1-11.8"/>
	<path fill="none" stroke="#1C75BC" stroke-width="2" stroke-linecap="round" stroke-linejoin="round" stroke-miterlimit="10" d="
		M411,195.5c0,0,9.1-9.2,18.9-7.6c9.8,1.6,12.2,12.6,12.2,12.6"/>
	<path fill="#FFFFFF" d="M369.8,368.4c-10,0-19.3,0-24.1,10.5s-14.2,5-11.7,27.1s34.5,66.9,33.1,56.9s13.9-41.5,19.2-36.5
		L369.8,368.4z"/>
	<path fill="none" stroke="#1C75BC" stroke-width="2" stroke-linecap="round" stroke-linejoin="round" stroke-miterlimit="10" d="
		M334.4,393.8c-29.3-8.5-75.1-27-104,5c-43.3,48-48.8,201.1-48.8,201.1"/>
	<path fill="none" stroke="#1C75BC" stroke-width="2" stroke-linecap="round" stroke-linejoin="round" stroke-miterlimit="10" d="
		M366.9,308.3c0,0,2,59-5,83.5"/>
	<path fill="none" stroke="#1C75BC" stroke-width="2" stroke-linecap="round" stroke-linejoin="round" stroke-miterlimit="10" d="
		M260.9,469.7c0,0,8,3.9,11.9,14.9c3.9,11,2,115.3,2,115.3"/>
	<path fill="none" stroke="#1C75BC" stroke-width="2" stroke-linecap="round" stroke-linejoin="round" stroke-miterlimit="10" d="
		M400,103.5c53.2,0,75.4,36,70.6,105.2c-3.3,47.3-17,82.1-37.7,99.3c-9.6,8-20.7,12.2-32.9,12.2s-23.3-4.2-32.9-12.2
		c-20.7-17.2-34.4-52-37.7-99.3C324.6,139.5,346.8,103.5,400,103.5"/>
	<path fill="none" stroke="#1C75BC" stroke-width="2" stroke-linecap="round" stroke-linejoin="round" stroke-miterlimit="10" d="
		M433.1,308.3c0,0-2,59,5,83.5c1.7,5.9,7.7,8.4,16.4,9.6c27.5,3.6,82.2-6.7,115.1,29.8c43.3,48,48.8,168.9,48.8,168.9"/>
	<path fill="none" stroke="#1C75BC" stroke-width="2" stroke-linecap="round" stroke-linejoin="round" stroke-miterlimit="10" d="
		M539.1,469.7c0,0-8,3.9-11.9,14.9c-3.9,11-2,115.3-2,115.3"/>
	<path fill="none" stroke="#1C75BC" stroke-width="2" stroke-linecap="round" stroke-linejoin="round" stroke-miterlimit="10" d="
		M400,428.8c47.6,0,54.6-27.4,54.6-27.4"/>
	<g>
		<path fill="#F48CA8" d="M352.5,123.7c0,0,21.3,44,78.5,35.9c0,0,6.8,9.2,18,11.8c0,0,3.5,35.2,19.7,53.8l-2.4,16.2
			c0,0,26.9-7.5,27.7-68.1c0.8-60.6-25.3-79.9-43.7-89.6s-50-6.2-63.9-1.2c0,0,2.1-4.9,0-12.4c0,0-23,4.7-42.3,41.7
			c0,0-22.9-2-33.1,19.3c-10.2,21.3-11.7,96.5,22.7,110.2l-2.7-16.2C331,225.3,356.5,198.1,352.5,123.7z"/>
		<g>
			<path fill="none" stroke="#1C75BC" stroke-width="2" stroke-linecap="round" stroke-linejoin="round" stroke-miterlimit="10" d="
				M355.9,125.9c0,0,15,39.6,69.8,34.4"/>
			<path fill="none" stroke="#1C75BC" stroke-width="2" stroke-linecap="round" stroke-linejoin="round" stroke-miterlimit="10" d="
				M417.5,131.2c0,0,6.9,31.9,26.9,37.8"/>
			<path fill="none" stroke="#1C75BC" stroke-width="2" stroke-linecap="round" stroke-linejoin="round" stroke-miterlimit="10" d="
				M352.1,131.2c0,0,5.2,60.6-21,94.1"/>
			<path fill="none" stroke="#1C75BC" stroke-width="2" stroke-linecap="round" stroke-linejoin="round" stroke-miterlimit="10" d="
				M447.6,131.2c0,0-5.2,60.6,21,94.1"/>
			<path fill="none" stroke="#1C75BC" stroke-width="2" stroke-linecap="round" stroke-linejoin="round" stroke-miterlimit="10" d="
				M341.8,113.9c0,0-26.8-5.6-35.1,29.5s6,97,27,98.1"/>
			<path fill="none" stroke="#1C75BC" stroke-width="2" stroke-linecap="round" stroke-linejoin="round" stroke-miterlimit="10" d="
				M345.7,109.6c0,0,9.4-24.8,40.7-39.4"/>
			<path fill="none" stroke="#1C75BC" stroke-width="2" stroke-linecap="round" stroke-linejoin="round" stroke-miterlimit="10" d="
				M367.7,89.9c0,0,36.1-19,71.6-9.8c38.2,9.8,54.7,44.5,54.7,89c0,35-7.9,61.5-27.8,72.5"/>
		</g>
		<path fill="none" stroke="#1C75BC" stroke-width="2" stroke-linecap="round" stroke-linejoin="round" stroke-miterlimit="10" d="
			M468.7,217c0,0,0.7,11.2-2.4,24.4"/>
		<path fill="none" stroke="#1C75BC" stroke-width="2" stroke-linecap="round" stroke-linejoin="round" stroke-miterlimit="10" d="
			M330.1,217c0,0,0.1,10,3.6,24.4"/>
	</g>
	
		<line fill="none" stroke="#1C75BC" stroke-width="2" stroke-linecap="round" stroke-linejoin="round" stroke-miterlimit="10" x1="400" y1="0" x2="400" y2="600"/>
	<path fill="none" stroke="#1C75BC" stroke-width="2" stroke-linecap="round" stroke-linejoin="round" stroke-miterlimit="10" d="
		M351,380.9c0,0,6.7,23.2,27.5,31s21.6,37.5,21.6,37.5"/>
	<path fill="none" stroke="#1C75BC" stroke-width="2" stroke-linecap="round" stroke-linejoin="round" stroke-miterlimit="10" d="
		M386.4,426.4c-5.4-5-20.6,26.5-19.2,36.5c1.4,10-30.6-34.9-33.1-56.9c-2.5-22.1,6.9-16.6,11.7-27.1s7.3-10.5,17.3-10.5"/>
	<g>
		<path fill="none" stroke="#1C75BC" stroke-width="2" stroke-linecap="round" stroke-linejoin="round" stroke-miterlimit="10" d="
			M274.7,127.7c1.4-0.4,2.3-1.7,2.1-3.1c-1.2-10.8-4.9-55.5-9.6-57.9c-3.7-1.8-11-0.3-12.2,4.8c-1,4.4,12.5,43.9,16.2,54.4
			C271.7,127.3,273.2,128.1,274.7,127.7L274.7,127.7z"/>
		
			<circle fill="none" stroke="#1C75BC" stroke-width="2" stroke-linecap="round" stroke-linejoin="round" stroke-miterlimit="10" cx="276.1" cy="137.4" r="4.4"/>
	</g>
	<g>
		<path fill="none" stroke="#1C75BC" stroke-width="2" stroke-linecap="round" stroke-linejoin="round" stroke-miterlimit="10" d="
			M251.8,144.6c1.1-1,1.3-2.5,0.5-3.7c-6-9.1-29.6-47.2-34.9-47.2c-4.1,0-9.9,4.8-8.7,9.8c1.1,4.3,31.1,33.4,39.1,41.1
			C248.9,145.6,250.7,145.6,251.8,144.6L251.8,144.6z"/>
		
			<circle fill="none" stroke="#1C75BC" stroke-width="2" stroke-linecap="round" stroke-linejoin="round" stroke-miterlimit="10" cx="257.5" cy="152.6" r="4.4"/>
	</g>
	<g>
		<path fill="none" stroke="#1C75BC" stroke-width="2" stroke-linecap="round" stroke-linejoin="round" stroke-miterlimit="10" d="
			M241.1,161.1c0.8-1.2,0.6-2.8-0.5-3.7c-8.1-7.3-40.5-38.3-45.6-36.9c-4,1.1-8.4,7.1-5.9,11.6c2.2,3.9,38.5,24.5,48.2,30
			C238.6,162.8,240.3,162.4,241.1,161.1L241.1,161.1z"/>
		
			<circle fill="none" stroke="#1C75BC" stroke-width="2" stroke-linecap="round" stroke-linejoin="round" stroke-miterlimit="10" cx="248.6" cy="167.5" r="4.4"/>
	</g>
	<g>
		<path fill="none" stroke="#1C75BC" stroke-width="2" stroke-linecap="round" stroke-linejoin="round" stroke-miterlimit="10" d="
			M538.4,78c-15.4-4.1-27.2,19-22.3,21.4c4.9,2.3,7.6-16.7,20.7-14c13.1,2.7,6.3,13.4-4.2,22c-10.5,8.5-9.7,21.3-5.2,20.5
			c4.5-0.8-0.9-11.2,13-20.2C554.5,98.7,554,82.2,538.4,78z"/>
		
			<circle fill="none" stroke="#1C75BC" stroke-width="2" stroke-linecap="round" stroke-linejoin="round" stroke-miterlimit="10" cx="526.3" cy="136.6" r="4.4"/>
	</g>
	<g>
		<path fill="none" stroke="#1C75BC" stroke-width="2" stroke-linecap="round" stroke-linejoin="round" stroke-miterlimit="10" d="
			M577.3,117.6c-12.8-9.5-32.3,7.6-28.6,11.6s13.3-12.7,24.4-5.3s0.9,14.8-12,18.9s-16.9,16.2-12.4,17.1c4.5,0.9,3.3-10.7,19.6-13.9
			C584.6,142.7,590.2,127.2,577.3,117.6z"/>
		
			<circle fill="none" stroke="#1C75BC" stroke-width="2" stroke-linecap="round" stroke-linejoin="round" stroke-miterlimit="10" cx="544.4" cy="167.5" r="4.4"/>
	</g>
</g>
</svg>
