<?xml version="1.0" encoding="utf-8"?>
<!-- Generator: Adobe Illustrator 16.0.0, SVG Export Plug-In . SVG Version: 6.00 Build 0)  -->
<!DOCTYPE svg PUBLIC "-//W3C//DTD SVG 1.1//EN" "http://www.w3.org/Graphics/SVG/1.1/DTD/svg11.dtd">
<svg version="1.1" xmlns="http://www.w3.org/2000/svg" xmlns:xlink="http://www.w3.org/1999/xlink" x="0px" y="0px" width="1400px"
	 height="980px" viewBox="0 0 1400 980" enable-background="new 0 0 1400 980" xml:space="preserve">
<g id="BACKGROUND">
	<rect x="-15" y="-11" fill="#F0FBFC" width="1426" height="1002"/>
</g>
<g id="OBJECTS">
	<g>
		<defs>
			<path id="SVGID_1_" d="M1116.841,489.521c-130.758-97.581-320.066,2.928-368.369-158.082
				C700.169,170.43,635.766-12.534,457.192,60.652c-178.573,73.186-164.928,187.856-158.081,203.457c0,0,3.368,10.336,12.067,25.065
				c1.81,9.311,4.797,18.862,9.401,28.604c41.96,88.8,0,125.88,0,125.88s32.202,14.637,50.743,9.759c0,0,5.855,19.516,0,23.419
				c-5.855,3.903,6.83,7.806,14.637,4.878c0,0-4.88,13.661,11.709,17.564c16.588,3.904-13.662,46.839,35.129,46.839
				c48.79,0,73.186-36.104,83.919-23.419s6.832,61.476-10.733,90.75c-17.564,29.274-124.159,114.658-90.134,322.506h410.199
				c0,0-7.383-37.901-20.647-96.297c97.282,35.98,203.599,53.343,301.681-8.603C1189.007,779.313,1221.98,567.982,1116.841,489.521z
				"/>
		</defs>
		<clipPath id="SVGID_2_">
			<use xlink:href="#SVGID_1_"  overflow="visible"/>
		</clipPath>
		<path clip-path="url(#SVGID_2_)" fill="#254B51" d="M306.128,929.813c6-10.499,387.548-170.781,387.548-170.781l40.335,29.507
			l16.449,37.083l58.407,14.921c0,0,131.729,98.266,140.728,97.518c9-0.747,322.484-70.261,329.983-67.752
			c7.5,2.508-10.499-330.831-10.499-330.831l-181.491-244.132c0,0-464.835-322.484-470.156-323.984S235.632,44.046,235.632,44.046
			L124.637,350.842L306.128,929.813z"/>
		<linearGradient id="SVGID_3_" gradientUnits="userSpaceOnUse" x1="705.0215" y1="538" x2="705.0215" y2="430.9583">
			<stop  offset="0" style="stop-color:#000000;stop-opacity:0"/>
			<stop  offset="1" style="stop-color:#000000"/>
		</linearGradient>
		<path opacity="0.59" clip-path="url(#SVGID_2_)" fill="url(#SVGID_3_)" d="M277.611,587.53c6-10.499,422.979,10.5,422.979,10.5
			l256.487,8.999L752.461,826.288l58.407,14.921c0,0,131.729,98.267,140.728,97.519c9-0.748,322.484-70.261,329.983-67.753
			c7.5,2.508-10.499-330.83-10.499-330.83l-181.491-244.133c0,0-464.835-322.484-470.156-323.984
			c-5.32-1.5-381.801,72.685-381.801,72.685L126.637,351.509L277.611,587.53z"/>
		<g clip-path="url(#SVGID_2_)">
			<path fill="#1D3F3F" d="M1117.3,307.094c0,283.401-328.7,458.928-612.101,458.928S-7.944,536.28-7.944,252.879
				c0-283.401,229.742-513.143,513.143-513.143S1117.3,23.693,1117.3,307.094z"/>
			<path fill="#254948" d="M1053.808,281.697c0,262.672-285.937,446.792-548.609,446.792s-475.61-212.938-475.61-475.61
				s212.938-475.61,475.61-475.61S1053.808,19.025,1053.808,281.697z"/>
			<path fill="#315654" d="M979.205,267.411c0,235.73-242.049,469.842-477.778,469.842c-235.731,0-423.056-248.644-423.056-484.374
				s191.097-426.828,426.828-426.828C740.929-173.949,979.205,31.681,979.205,267.411z"/>
			<path fill="#3A5E5B" d="M923.649,259.475c0,214.028-204.423,380.936-418.451,380.936S117.667,466.907,117.667,252.879
				c0-214.027,173.503-387.531,387.531-387.531S923.649,45.447,923.649,259.475z"/>
			<path fill="#436864" d="M863.332,286.459c0,192.325-165.809,314.654-358.133,314.654c-192.325,0-348.234-155.91-348.234-348.234
				c0-192.324,155.91-348.234,348.234-348.234C697.523-95.355,863.332,94.135,863.332,286.459z"/>
			<circle fill="#4E726D" cx="505.199" cy="252.879" r="310.292"/>
			<path fill="#547A74" d="M779.225,252.879c0,151.34-128.979,240.812-280.32,240.812s-267.732-89.471-267.732-240.812
				S353.858-21.147,505.199-21.147S779.225,101.539,779.225,252.879z"/>
			<path fill="#5F847D" d="M751.438,252.879c0,135.994-109.349,194.551-245.343,194.551c-135.994,0-247.135-58.557-247.135-194.551
				C258.96,116.885,369.205,6.64,505.199,6.64C641.192,6.64,751.438,116.885,751.438,252.879z"/>
			<path fill="#698C85" d="M724.608,252.879c0,121.177-98.233,139.555-219.41,139.555s-219.41-18.378-219.41-139.555
				s98.233-219.41,219.41-219.41S724.608,131.702,724.608,252.879z"/>
			<path fill="#769992" d="M679.315,252.879c0,96.163-87.338,84.792-183.5,84.792c-96.163,0-164.733,11.371-164.733-84.792
				c0-96.162,77.955-174.117,174.117-174.117C601.361,78.762,679.315,156.717,679.315,252.879z"/>
			<path fill="#86A8A1" d="M644.753,252.879c0,77.074-66.631,28.353-143.705,28.353c-77.074,0-135.404,48.721-135.404-28.353
				c0-77.074,62.48-139.554,139.555-139.554C582.272,113.325,644.753,175.805,644.753,252.879z"/>
			<path fill="#9AB7B0" d="M603.878,252.879c0,54.5-44.181,0-98.68,0s-98.68,54.5-98.68,0s44.181-98.68,98.68-98.68
				S603.878,198.379,603.878,252.879z"/>
		</g>
		<path clip-path="url(#SVGID_2_)" fill="none" stroke="#FFFFFF" stroke-width="2" stroke-miterlimit="10" d="M509.138,222.927
			c-4.274,2.186-9.089,5.119-9.598,9.893c-0.498,4.665,4.326,8.958,8.968,8.279s8.011-5.727,7.243-10.355
			c-0.769-4.627-5.209-8.231-9.895-8.456c-6.343-0.305-12.295,5.877-11.438,12.17c0.857,6.292,8.647,10.645,14.327,7.805
			c5.681-2.84,6.678-12.065,1.563-15.829c-1.604-1.18-3.687-1.808-5.627-1.363c-3.391,0.778-5.291,4.395-6.15,7.766
			c-0.765,3.001-1.004,6.398,0.678,9c1.681,2.601,5.883,3.624,7.906,1.279c1.804-2.09,0.549-5.86-2.091-6.667
			s-5.674,1.325-6.053,4.061s1.713,5.5,4.399,6.141c0.939,0.225,1.974,0.213,2.821-0.252c1.271-0.698,1.828-2.215,2.137-3.632
			c0.909-4.173,0.067-9.357-3.744-11.287c-3.856-1.952-9.037,1.05-9.879,5.289c-0.842,4.24,2.139,8.673,6.186,10.188
			c4.048,1.516,8.76,0.445,12.289-2.05c3.529-2.496,5.999-6.248,7.746-10.201c2.299-5.197,3.418-11.414,0.791-16.453
			c-2.651-5.085-8.74-7.789-14.465-7.452c-5.725,0.337-11.04,3.297-15.281,7.158c-7.96,7.244-12.705,18.891-9.198,29.066
			c2.906,8.431,11.418,14.542,20.332,14.806c8.914,0.264,17.684-5.217,21.544-13.255c3.861-8.038,2.719-18.184-2.663-25.294
			c-17.536-1.842-35.65,9.046-42.249,25.396c3.546,5.976,8.949,10.833,15.269,13.725c3.584,1.64,7.656,2.661,11.473,1.677
			c4.861-1.253,8.485-5.673,9.778-10.523s0.546-10.044-1.022-14.813c-1.867-5.676-6.631-11.829-12.457-10.499
			c-3.593,0.82-6.051,4.515-6.225,8.196s1.562,7.238,3.942,10.051c1.469,1.735,3.296,3.31,5.516,3.8
			c2.22,0.49,4.862-0.404,5.791-2.479c0.478-1.067,0.459-2.3,0.208-3.442c-1.068-4.864-5.9-8.002-10.685-9.385
			c-3.68-1.063-8.203-1.178-10.748,1.686c-2.052,2.31-2.047,5.979-0.522,8.667c1.525,2.687,4.297,4.479,7.213,5.497
			c7.221,2.522,15.557,0.666,21.705-3.884c6.148-4.55,10.233-11.511,12.309-18.873c2.059-7.305,2.167-15.511-1.558-22.125
			c-2.992-5.313-8.216-9.131-13.91-11.316c-15.86-6.085-35.236,0.833-44.893,14.808c-9.657,13.976-9.687,33.515-1.4,48.343
			c3.305,5.914,8.06,11.334,14.375,13.789c3.921,1.524,8.226,1.821,12.424,1.555c16.539-1.049,32.213-11.199,39.937-25.861
			c3.088-5.862,4.975-12.517,4.328-19.11c-0.683-6.961-4.12-13.384-8.322-18.976c-6.582-8.758-15.36-16.045-25.638-19.839
			c-10.277-3.793-22.091-3.873-31.996,0.809c-17.45,8.249-25.683,30.575-20.526,49.175c5.157,18.6,21.593,32.788,40.062,38.396
			c8.839,2.684,18.753,3.546,27.058-0.5c9.098-4.432,14.827-14.416,15.4-24.52c0.574-10.104-3.548-20.127-10.025-27.903
			c-2.915-3.5-6.346-6.635-10.378-8.753c-11.561-6.071-27.438-1.891-34.511,9.085c-7.074,10.976-4.321,27.161,5.983,35.182
			c2.144,1.668,4.601,3.023,7.28,3.47c8.755,1.463,16.482-7.791,16.332-16.667c-0.151-8.875-5.869-16.698-12.297-22.819
			c-2.64-2.514-5.685-4.967-9.312-5.326c-4.953-0.491-9.506,3.17-11.921,7.521c-6.318,11.384,0.032,27.367,11.974,32.555
			c3.294,1.431,6.968,2.16,10.511,1.569c6.389-1.066,11.439-6.28,14.19-12.145c5.034-10.731,3.309-24.297-4.25-33.427
			c-7.74-9.348-22.015-13.416-32.735-7.726c-3.958,2.101-7.226,5.313-10.044,8.798c-9.479,11.715-14.341,27.307-12.163,42.218
			c1.347,9.226,5.566,18.345,13.007,23.964c3.074,2.321,6.604,3.986,10.243,5.247c14.627,5.066,31.167,3.544,45.207-2.976
			c14.04-6.52,25.615-17.786,33.662-31.009c5.142-8.449,8.996-18.214,7.875-28.041c-1.286-11.274-8.9-20.857-17.491-28.269
			c-10.128-8.738-22.199-15.46-35.3-18.162s-27.255-1.181-38.898,5.405c-6.788,3.84-12.572,9.269-17.588,15.24
			c-3.698,4.402-7.026,9.146-9.54,14.317c-10.761,22.135-3.889,51.387,15.602,66.416c19.49,15.029,49.528,14.236,68.2-1.798
			c18.671-16.035,23.992-45.608,12.079-67.145c-2.523-4.563-5.697-8.741-9.125-12.67c-8.012-9.187-17.714-17.238-29.175-21.387
			s-24.855-3.989-35.293,2.306c-7.074,4.265-12.34,10.964-16.776,17.932c-5.042,7.917-9.26,16.468-11.357,25.617
			c-3.565,15.552-0.781,32.024,5.045,46.878c9.864,25.149,30.305,47.73,56.803,52.983c15.752,3.123,32.693-0.26,46.039-9.191
			c13.346-8.932,22.932-23.304,26.051-39.057c1.878-9.488,1.486-19.303,0.107-28.875c-1.407-9.761-3.895-19.528-8.964-27.987
			c-8.597-14.346-23.667-23.495-38.794-30.627c-13.254-6.25-28.014-11.498-42.331-8.369c-12.012,2.625-22.035,10.834-30.428,19.818
			c-16.048,17.177-28.386,40.577-23.57,63.586c1.729,8.259,5.581,15.953,10.283,22.959c9.86,14.692,23.66,26.713,39.564,34.467
			c10.471,5.104,22.121,8.404,33.722,7.348c16.703-1.521,31.403-11.838,43.042-23.915c15.994-16.597,27.945-37.552,31.596-60.311
			c3.65-22.758-1.549-47.281-16.087-65.167c-3.727-4.584-8.01-8.702-12.611-12.407c-8.484-6.831-18.31-12.362-29.055-14.148
			c-16.157-2.686-32.675,3.374-46.393,12.321c-14.407,9.397-26.747,22.203-34.582,37.514c-7.835,15.312-11.002,33.168-7.782,50.065
			c2.189,11.488,7.213,22.277,13.331,32.244c7.099,11.564,16.107,22.5,28.241,28.574c9.301,4.657,19.992,6.174,30.355,5.287
			c22.003-1.883,42.584-14.739,54.802-33.135c12.217-18.396,16.131-41.869,11.573-63.477c-4.557-21.608-17.311-41.204-34.568-54.983
			c-9.245-7.382-20.218-13.305-32.036-13.856c-9.394-0.438-18.634,2.542-27.188,6.45c-20.543,9.384-38.65,24.632-49.9,44.216
			s-15.272,43.557-9.368,65.356c4.608,17.01,14.971,32.134,27.964,44.04c10.876,9.967,24.002,17.984,38.536,20.517
			c10.736,1.871,21.843,0.68,32.357-2.185c17.703-4.825,34.357-14.707,45.337-29.406c10.979-14.7,15.725-34.433,10.531-52.031
			c-5.193-17.598-21.046-32.119-39.32-33.77c-20.148-1.82-39.135,11.498-50.44,28.275c-9.485,14.075-14.877,32.123-9.477,48.213
			c2.187,6.514,6.533,12.808,13.042,15.007c7.473,2.525,15.679-0.947,22.067-5.576c6.714-4.865,12.439-11.088,16.73-18.183
			c4.767-7.883,7.605-18.332,2.58-26.052c-5.03-7.728-16.407-9.309-24.774-5.434s-14.1,11.867-18.137,20.157
			c-3.747,7.694-5.811,18.239,0.722,23.768c2.232,1.89,5.12,2.803,7.965,3.481c7.057,1.682,14.654,2.156,21.434-0.427
			c8.109-3.09,14.052-10.14,18.602-17.529c4.114-6.682,7.443-14.023,8.282-21.824c1.147-10.658-2.457-21.36-7.834-30.633
			c-6.62-11.413-16.688-21.614-29.505-24.749c-8.458-2.069-17.506-0.88-25.611,2.305c-21.985,8.641-36.713,33.007-33.928,56.465
			c2.785,23.458,22.973,43.765,46.439,46.474c23.467,2.71,47.854-12.612,55.394-34.999c0.942-2.796,1.643-5.671,2.155-8.578
			c4.02-22.796-4.479-47.405-21.708-62.864c-17.337-15.555-44.827-20.944-64.534-8.527c-3.646,2.297-6.936,5.107-10.211,7.906
			c-4.459,3.811-8.966,7.672-12.378,12.444c-10.236,14.316-8.454,34.985,1.352,49.599c9.805,14.614,26.236,23.726,43.239,28.267
			c2.103,0.561,4.24,1.064,6.415,1.145c2.938,0.109,5.844-0.554,8.709-1.212c5.336-1.227,10.691-2.458,15.822-4.37
			c17.647-6.573,31.972-21.502,37.811-39.406c5.839-17.903,3.071-38.407-7.307-54.121c-9.248-14.002-25.094-24.234-41.873-23.989
			c-14.498,0.213-27.899,7.919-38.981,17.268c-11.129,9.387-20.817,20.892-26.074,34.469c-5.257,13.578-5.699,29.394,0.816,42.414
			c5.389,10.768,15.024,18.875,25.434,24.925c15.512,9.015,33.668,14.113,51.504,12.17c15.675-1.707,30.467-8.763,42.878-18.488
			c9.441-7.398,18.071-17.25,19.359-29.175c1.075-9.949-3.317-20.005-10.304-27.169c-6.159-6.314-14.46-10.681-23.25-11.417
			c-10.663-0.893-21.265,3.562-29.576,10.301c-8.738,7.085-15.359,16.747-18.812,27.454c-4.578,14.191-3.36,30.39,4.313,43.176
			s21.975,21.644,36.886,21.698c14.912,0.055,29.724-9.251,35.168-23.134c0.721-1.838,1.239-4.07,0.08-5.669
			c-7.489,5.746-13.326,13.619-16.646,22.455c5.016-0.372,9.863-2.684,13.308-6.348c-4.548,4.962-8.04,10.887-10.179,17.269
			c5.981-1.822,11.105-6.282,13.736-11.955c-3.991,3.617-6.479,8.844-6.771,14.223c4.353-1.69,8.139-4.808,10.633-8.755
			c-0.827,5.214-1.654,10.428-2.481,15.642c2.053-2.818,4.106-5.635,6.159-8.453c0.312,3.74,0.13,7.52-0.536,11.213
			c0.872-1.853,1.743-3.705,2.615-5.558c0.955,2.53,1.518,5.206,1.664,7.905c3.108-0.11,2.998,7.401,6.105,7.29"/>
		<path clip-path="url(#SVGID_2_)" fill="#112C2D" d="M320,921.692c69.313-34.803,373.676-162.66,373.676-162.66l40.335,29.507
			l16.449,37.083l58.407,14.921c0,0,385.012,181.663,390.132,185.457l38-352H320V921.692z"/>
		<g clip-path="url(#SVGID_2_)">
			<path fill="#775B31" d="M697.68,515.223c0,0,13.605,34.53,25.416,38.556c11.812,4.024,20.352,17.416,38.023,1.774
				c0,0,15.344,11.149,17.901,13.413c2.557,2.263,36.259-37.507,27.399-53.743S696.094,493.496,697.68,515.223z"/>
			<path fill="#EEAD2B" d="M686.194,817.588c0,0-25.222,18.092-39.926,19.051c-14.705,0.959-18.86,7.672-2.558,7.992
				c16.303,0.319,24.294-2.238,39.957,0c15.663,2.237,41.236,2.237,40.597-3.517s-1.172-32.712-8.098-34.417
				C709.239,804.993,686.194,817.588,686.194,817.588z"/>
			<path fill="#266661" d="M638.797,660.559c0,0-54.219-24.293-67.005,2.133c-12.786,26.425-6.393,43.047,14.065,58.391
				c20.458,15.343,89.504,70.324,109.109,92.487c0,0,14.917,0.852,20.884-4.688C721.817,803.34,638.797,660.559,638.797,660.559z"/>
			<path fill="#DD9A24" d="M692.662,682.651c0,0-6.646-7.447-4.515-17.966c2.131-10.519,31.54-80.204,32.392-98.638
				s21.736-6.286,23.867,0c2.132,6.287-24.356,126.978-40.521,122.253C687.721,683.575,692.662,682.651,692.662,682.651z"/>
			<path fill="#14B294" d="M700.978,426.669c0,0-63.583-1.549-55.878,79.603c6.393,67.341,47.084,81.406,77.996,77.57
				c0,0-48.878-46.884-38.291-60.096C695.393,510.534,733.414,454.471,700.978,426.669z"/>
			<path fill="#B63414" d="M806.42,515.223c0,0,63.292,10.868,69.046,90.782s-4.476,202.663-69.046,231.432
				c0,0-37.571-38.259-54.342-122.108c-0.639-3.197,1.918-55.621-6.393-69.046c-8.312-13.426-1.918-60.096,14.064-73.521
				C775.733,559.335,804.502,530.566,806.42,515.223z"/>
			<path fill="#EEAD2B" d="M752.105,611.436c0,0-19.526,36.125-26.559,41.239c-7.032,5.115-25.253,27.49-15.982,39.957
				c9.27,12.467,27.17,15.344,49.546-18.54c22.376-33.883,40.597-58.497,40.597-64.251S762.15,593.739,752.105,611.436z"/>
			<path fill="#B63414" d="M801.122,538.621c1.703-0.432,37.477,2.601-2.161,81.449c0,0-27.703-17.049-50.719-7.246
				C748.242,612.824,755.488,550.172,801.122,538.621z"/>
			<path fill="#DD9A24" d="M692.303,538.591c0,0-1.393,11.475,5.377,14.991c6.77,3.516,20.835,14.704,24.99,15.343
				c4.155,0.64,27.413-6.36,21.857-15.167C738.973,544.951,692.303,538.591,692.303,538.591z"/>
			<path fill="#EEAD2B" d="M755.595,558.057c1.507,1.187-10.493,87.905-13.558,100.692c-3.064,12.786-35.021,26.53-35.021,26.53
				s-2.247-21.736,4.146-35.801c6.394-14.064,19.952-83.431,19.952-83.431S744.564,549.376,755.595,558.057z"/>
			<path fill="#EEAD2B" d="M755.595,558.057c0,0,6.057-12.081-2.246-19.466c-8.303-7.386-16.537-13.139-22.169-18.573
				c-5.633-5.434-62.212-23.016-60.614-13.745c1.598,9.27,8.311,18.54,8.631,22.695c0.319,4.156,6.073,14.704,15.983,17.262
				c9.909,2.558,26.158,19.818,35.935,19.818S755.595,558.057,755.595,558.057z"/>
			<path fill="#38807D" d="M752.078,715.328c0,0-115.929-71.816-151.73-57.752c-35.802,14.065,23.868,42.195,26.425,41.343
				s46.883,19.179,66.915,42.62c20.032,23.442,59.243,97.176,112.732,95.897C806.42,837.437,778.503,727.049,752.078,715.328z"/>
			<path fill="#EEAD2B" d="M734.467,827.017c0,0-25.223,18.092-39.927,19.051s-18.859,7.672-2.557,7.991s24.293-2.237,39.958,0
				c15.663,2.237,41.235,2.237,40.596-3.516c-0.639-5.754-1.172-32.712-8.098-34.417S734.467,827.017,734.467,827.017z"/>
			<path fill="#38807D" d="M590.183,664.686c0,0-23.932,26.987,5.903,55.97s123.57,90.356,135.094,106.126
				c0,0,23.456,2.983,33.259-10.655c0,0-75.149-101.448-130.488-114.868C633.95,701.258,585.559,685.859,590.183,664.686z"/>
			<path fill="#13D3B7" d="M682.18,440.21c0,0-29.39,46.194-15.77,69.046c13.621,22.852,30.668,30.099,35.706,40.222
				c0,0-4.157-25.73-14.391-37.238c0,0,44.321,41.769,79.271,31.54c34.948-10.229,50.566-25.162,50.566-25.162
				s-14.339-26.41-14.766-36.639c-0.426-10.229-22.589-27.704-36.228-33.67S722.244,400.146,682.18,440.21z"/>
		</g>
		<g clip-path="url(#SVGID_2_)">
			<path fill="#55A2B4" d="M1204.865,796.358c0,0-112.932-42.89-130.342-56.898c-17.411-14.009-51.966,54.229-30.19,77.142
				s118.102,92.661,132.134,93.574l42.622-108.904L1204.865,796.358z"/>
			<path fill="#4D94A0" d="M946.007,782.045c0,0,0.739,23.182,22.713,27.203s63.578,1.335,75.613,7.354
				c12.034,6.019,25.624-43.497,25.624-43.497S945.271,728.774,946.007,782.045z"/>
			<path fill="#55A2B4" d="M977.334,675.26c-2.473-0.44-107.747-23.854-116.354-25.26s-21.506,13.168,0.738,23.182
				c22.245,10.015,76.796,29.401,86.637,29.328c9.84-0.073,21.207,37.734,41.873,48.438c20.667,10.704,10.126,36.642,47.185,46.906
				s37.111-58.395,37.111-58.395s-9.691-25.378-36.055-26.538C1038.469,712.922,1001.882,679.635,977.334,675.26z"/>
			<path fill="#50A1AA" d="M936.982,754.965c0,0-6.61,23.577,8.654,38.055s53.952-0.809,53.952-0.809
				c1.17-6.399,1.17-6.399,1.17-6.399s-2.686,6.798,0,0C1003.445,779.015,936.982,754.965,936.982,754.965z"/>
			<path fill="#4A9CA0" d="M942.249,723.124c-0.158-3.548-7.091,14.775-11.604,16.279c-4.513,1.504,4.216,34.354,18.174,40.472
				c13.959,6.116,58.801,8.014,60.31,3.979s5.803-18.014-4.128-23.854S943.219,744.897,942.249,723.124z"/>
			<path fill="#50A1AA" d="M941.279,701.352c0,0-11.112,5.814-7.001,17.889s5.775,25.153,11.935,30.834
				c6.158,5.681,62.855,24.6,68.355,18.903s-3.278-30.063-19.259-34.355c-15.981-4.292-17.682-20.002-27.793-25.921
				C957.405,702.781,947.278,695.519,941.279,701.352z"/>
			<path fill="#5CAAB7" d="M1074.523,739.46c0,0-19.164-34.317-35.871-31.045s-11.713,15.581-14.186,20.229
				c-2.474,4.648-49.788,6.995-44.407,34.971c5.382,27.977,52.122-5.122,58.616-2.752
				C1045.169,763.232,1066.211,762.371,1074.523,739.46z"/>
		</g>
		<g clip-path="url(#SVGID_2_)">
			<path fill="#55A2B4" d="M385.631,724.271c0,0,55.433-21.052,63.979-27.929c8.546-6.876,25.508,26.619,14.819,37.865
				s-57.971,45.483-64.858,45.932l-20.921-53.457L385.631,724.271z"/>
			<path fill="#4D94A0" d="M512.692,717.246c0,0-0.363,11.379-11.148,13.353s-31.208,0.655-37.115,3.609
				c-5.908,2.954-12.578-21.351-12.578-21.351S513.054,691.098,512.692,717.246z"/>
			<path fill="#55A2B4" d="M497.315,664.83c1.213-0.216,52.888-11.709,57.112-12.398c4.225-0.69,10.556,6.463-0.362,11.379
				c-10.919,4.915-37.696,14.432-42.526,14.396s-10.41,18.521-20.554,23.776c-10.144,5.254-4.97,17.985-23.16,23.023
				c-18.19,5.039-18.216-28.663-18.216-28.663s4.757-12.456,17.697-13.026C467.307,683.316,485.266,666.978,497.315,664.83z"/>
			<path fill="#50A1AA" d="M517.122,703.954c0,0,3.245,11.572-4.248,18.679c-7.493,7.106-26.482-0.397-26.482-0.397
				c-0.574-3.141-0.574-3.141-0.574-3.141s1.318,3.337,0,0C484.498,715.758,517.122,703.954,517.122,703.954z"/>
			<path fill="#4A9CA0" d="M514.537,688.324c0.078-1.741,3.48,7.253,5.696,7.991s-2.069,16.862-8.921,19.865
				s-28.862,3.934-29.603,1.953c-0.741-1.979-2.848-8.842,2.026-11.709C488.609,703.559,514.061,699.012,514.537,688.324z"/>
			<path fill="#50A1AA" d="M515.013,677.638c0,0,5.454,2.854,3.437,8.78c-2.018,5.927-2.835,12.347-5.858,15.135
				c-3.023,2.789-30.853,12.075-33.552,9.279c-2.7-2.797,1.609-14.757,9.453-16.863c7.844-2.107,8.679-9.818,13.642-12.724
				C507.097,678.34,512.068,674.774,515.013,677.638z"/>
			<path fill="#5CAAB7" d="M449.609,696.343c0,0,9.407-16.845,17.607-15.238s5.749,7.647,6.963,9.93
				c1.214,2.281,24.439,3.433,21.797,17.165s-25.584-2.514-28.771-1.351S453.689,707.589,449.609,696.343z"/>
		</g>
		<g clip-path="url(#SVGID_2_)">
			<path fill="#43818F" d="M994.878,420.968c0,0-53.744,30.496-64.944,32.784c-11.199,2.288,4.408,38.166,20.54,37.063
				C966.604,489.713,1083.062,458.23,1088,453l-86.546-36.032L994.878,420.968z"/>
			<path fill="#3D7680" d="M904.777,518.275c0,0,9.374,7.273,18.128-0.071c8.753-7.344,21.271-24.611,27.568-27.389
				s-8.775-24.287-8.775-24.287S883.551,501.185,904.777,518.275z"/>
			<path fill="#43818F" d="M872.931,471.092c-0.98,0.83-44.554,34.665-47.916,37.596s-1.829,12.769,9.374,7.272
				c11.203-5.495,36.64-20.66,39.821-24.561c3.182-3.901,21.785,3.957,32.745-0.692c10.96-4.648,17.739,7.967,33.875-3.283
				c16.135-11.25-10.896-33.673-10.896-33.673s-13.159-4.463-22.219,5.544C907.715,459.296,882.663,462.849,872.931,471.092z"/>
			<path fill="#478E96" d="M891.164,512.996c0,0,7.132,10.297,17.815,9.007c10.685-1.29,17.286-21.519,17.286-21.519
				c-2.14-2.549-2.14-2.549-2.14-2.549s1.802,3.275,0,0C922.324,494.659,891.164,512.996,891.164,512.996z"/>
			<path fill="#3D8185" d="M880.339,500.531c-1.449-1.095,3.507,7.614,2.627,9.884c-0.88,2.269,14.91,9.548,21.874,6.045
				s22.343-20.549,21.246-22.46s-5.203-8.164-10.745-6.157C909.8,489.849,889.233,507.254,880.339,500.531z"/>
			<path fill="#478E96" d="M871.445,493.81c0,0-1.335,6.274,4.763,8.595c6.099,2.32,11.794,5.932,16.042,5.359
				c4.247-0.573,30.199-16.735,29.75-20.761c-0.449-4.025-12.913-8.518-19.818-3.623c-6.905,4.896-13.649,0.439-19.28,2.491
				C877.271,487.923,871.104,489.543,871.445,493.81z"/>
			<path fill="#4E909C" d="M929.934,453.752c0,0-19.772-3.648-23.935,4.002c-4.161,7.649,2.317,9.698,3.341,12.188
				c1.024,2.491-13.489,21.896-0.712,28.905c12.777,7.008,14.988-22.205,18.041-23.99
				C929.722,473.073,936.248,464.502,929.934,453.752z"/>
		</g>
		<g clip-path="url(#SVGID_2_)">
			<path fill="#1D3F3F" d="M763.075,310.159c0,0-23.705,29.364-29.556,33.172c-5.852,3.809,11.053,20.698,19.971,16.458
				c8.918-4.239,38.985-26.064,40.619-30.142l-28.194-23.234L763.075,310.159z"/>
			<path fill="#1D3F3F" d="M733.678,385.626c0,0,6.955,2.033,10.284-4.101c3.328-6.133,6.572-18.747,9.528-21.736
				s-10.426-11.833-10.426-11.833S717.79,380.67,733.678,385.626z"/>
			<path fill="#1D3F3F" d="M705.016,365.951c-0.371,0.691-17.549,29.674-18.803,32.093c-1.253,2.419,1.821,7.665,6.955,2.033
				s16.19-19.945,17.124-22.874c0.935-2.929,13.264-2.631,18.45-7.727c5.186-5.096,11.862,0.553,18.511-9.453
				c6.647-10.006-13.732-16.692-13.732-16.692s-8.477,0.412-11.383,8.127C722.137,351.458,708.699,359.087,705.016,365.951z"/>
			<path fill="#1D3F3F" d="M724.761,385.675c0,0,6.358,4.253,12.14,1.127s5.001-16.098,5.001-16.098
				c-1.786-0.969-1.786-0.969-1.786-0.969s1.758,1.458,0,0C738.358,368.277,724.761,385.675,724.761,385.675z"/>
			<path fill="#1D3F3F" d="M715.819,381.018c-1.069-0.298,3.697,3.541,3.706,5.027c0.008,1.486,10.609,2.085,13.781-1.465
				c3.173-3.55,8.092-16.68,7.041-17.52c-1.052-0.84-4.785-3.473-7.484-1.092C730.165,368.35,722.378,382.845,715.819,381.018z"/>
			<path fill="#1D3F3F" d="M709.26,379.191c0,0,0.647,3.864,4.632,3.816c3.984-0.048,8.029,0.729,10.314-0.548
				c2.285-1.276,13.41-16.272,12.253-18.459s-9.245-1.947-12.071,2.381c-2.827,4.328-7.657,3.307-10.396,5.734
				C711.251,374.542,708.111,376.843,709.26,379.191z"/>
			<path fill="#1D3F3F" d="M731.101,346.718c0,0-11.389,0.92-11.466,5.734c-0.078,4.813,3.889,4.98,5.113,6.196
				s-1.05,14.011,7.592,15.969c8.642,1.958,1.752-14.402,2.862-15.833C736.313,357.354,737.379,351.685,731.101,346.718z"/>
		</g>
		<g clip-path="url(#SVGID_2_)">
			<path fill="#72BFCC" d="M372.817,814.604c2.148-0.143,152.513-8.776,180.897-17.081c0,0,45.829,37.532,20.103,72.744
				c0,0-122.571,62.374-191.253,42.993S328.736,817.521,372.817,814.604z"/>
			<path fill="#72BFCC" d="M553.715,797.522c0,0,11.95-39.928,27.769-34.531c15.82,5.396,7.014,11.007,18.625,9.799
				c11.611-1.207,46.16-14.802,53.856,0.971c7.697,15.771,3.779,25.944,7.708,36.193c3.93,10.248-6.879,14.659-7.113,24.589
				c-0.234,9.931-8.043,9.335-9.799,18.625c-1.757,9.291-7.436,21.947-22.73,23.397s-36.157,0.381-48.213-6.299
				C561.761,863.586,549.071,809.938,553.715,797.522z"/>
			<path fill="#72BFCC" d="M638.306,766.207c0,0,15.814-1.336,22.141-1.899c6.326-0.564,26.66-13.149,31.83-5.424
				c5.17,7.725-18.248,19.55-21.208,24.037c-2.961,4.486-9.519,5.785-11.056,20.214
				C660.012,803.135,627.788,787.319,638.306,766.207z"/>
		</g>
		<g clip-path="url(#SVGID_2_)">
			<path fill="#112C2D" d="M378.786,458.777c1.411,0.453,99.846,33.036,120.119,34.914c0,0,19.822,35.639-5.569,51.657
				c0,0-89.285,29.465-128.336-0.348S349.83,449.472,378.786,458.777z"/>
			<path fill="#112C2D" d="M498.905,493.69c0,0,17.768-22.529,26.526-15.066c8.758,7.464,1.7,8.823,9.438,10.993
				c7.738,2.169,33.297,2.224,34.227,14.27c0.929,12.046-4.157,17.564-4.239,25.12c-0.082,7.557-8.118,7.641-10.785,13.938
				s-7.514,3.936-10.993,9.438s-10.322,12.164-20.479,9.216c-10.158-2.948-23.241-8.92-29.265-16.251
				C487.312,538.016,492.786,500.46,498.905,493.69z"/>
			<path fill="#112C2D" d="M560.987,495.084c0,0,10.461,3.153,14.653,4.396s20.397-1.66,21.749,4.595
				c1.351,6.256-16.635,7.89-19.667,10.012c-3.032,2.121-7.559,1.29-12.2,10.137C565.522,524.223,548.904,505.933,560.987,495.084z"
				/>
		</g>
		<path clip-path="url(#SVGID_2_)" fill="#307275" d="M425.708,653.466c0.68-1.073,104.884-21.266,115.847-19.662
			c10.962,1.604,39.938,4.927,44.379-1.224c4.44-6.149,6.946-4.452,7.546-9.044c0.599-4.592,2.516-11.409,4.214-14.175
			c1.699-2.766-2.297-7.961-0.232-10.123s17.845-3.529,21.68-5.38c3.834-1.85,24.032-1.018,22.873-5.421
			c-1.158-4.403-40.603-3.145-49.45-4.703c-8.847-1.559-26.01,3.065-26.01,3.065s-3.389-9.438-12.794-4.64
			c-9.406,4.798-13.904,8.426-18.763,11.709c-4.858,3.284-110.302,15.565-110.302,15.565L425.708,653.466z"/>
		<g clip-path="url(#SVGID_2_)">
			<path fill="#49929E" d="M1191.617,530.293c-1.338,0.118-144.23,16.666-162.529,14.251c0,0-24.688,27.521-5.461,46.785
				c0,0,146.818,30.27,187.332,11.765S1219.085,527.888,1191.617,530.293z"/>
			<path fill="#49929E" d="M1029.088,544.544c0,0-11.18-23.487-20.422-18.65c-9.242,4.838-3.276,7.459-10.553,7.821
				c-7.277,0.362-29.883-4.727-33.126,5.735s0.145,16.363-1.302,23.059c-1.446,6.696,5.641,8.386,6.732,14.488
				s5.852,4.99,7.821,10.553c1.97,5.563,6.679,12.828,16.251,12.264s22.338-3.214,29.137-8.484S1033.137,551.759,1029.088,544.544z"
				/>
			<path fill="#49929E" d="M973.926,533.297c0,0-9.882,0.686-13.838,0.94c-3.955,0.256-17.697-5.566-20.149-0.309
				s13.12,10.317,15.374,12.803c2.254,2.484,6.423,2.66,8.747,11.413C964.06,558.145,982.427,545.316,973.926,533.297z"/>
		</g>
		<path clip-path="url(#SVGID_2_)" fill="#49929E" d="M263.791,401.769c1.929-0.984,114.464,39.062,129.163,50.927
			s54.344,41.884,66.197,36.71s14.059-0.508,18.922-6.728s14.688-17.604,19.582-20.189c4.893-2.585,3.534-13.677,8.441-15.059
			c4.907-1.381,33.832,18.276,41.065,18.887c7.233,0.611,30.48,14.427,32.6,6.958s-56.865-39.843-68.497-49.807
			c-11.632-9.964-40.834-18.069-40.834-18.069s3.214-16.792-14.753-17.911c-17.968-1.119-27.717,0.303-37.698,0.907
			c-9.98,0.604-117.469-52.13-117.469-52.13L263.791,401.769z"/>
	</g>
</g>
</svg>
