<svg id="katman_1" data-name="katman 1" xmlns="http://www.w3.org/2000/svg" viewBox="0 0 465.77 408.52">
  <title>onSekiz</title>
  <g>
    <path d="M216.59,502.26H194.82V363.54a112.35,112.35,0,0,1-20.62,15,145.59,145.59,0,0,1-22.92,11.25V368.74a131,131,0,0,0,31.93-20.8q13.66-12.21,19.35-23.7h14Z" transform="translate(-64.9 -216.95)" fill="#e30613"/>
    <path d="M305.85,406.11q-13.56-5-20.08-14.15t-6.53-22a43,43,0,0,1,13.91-32.53q13.91-13.19,37-13.18t37.37,13.48a43.63,43.63,0,0,1,14.15,32.84A36.09,36.09,0,0,1,375.2,392q-6.46,9.14-19.65,14.09,16.33,5.33,24.85,17.18t8.53,28.3q0,22.73-16.08,38.21t-42.33,15.48q-26.25,0-42.33-15.54T272.1,451q0-17.3,8.77-29T305.85,406.11Zm-11.37,45a39.4,39.4,0,0,0,4.41,18A31.17,31.17,0,0,0,312,482.61a38.44,38.44,0,0,0,18.75,4.77q15.6,0,25.76-10t10.16-25.52q0-15.72-10.46-26T330,415.55q-15.36,0-25.45,10.15T294.48,451.1Zm7-81.87q0,12.57,8.1,20.56t21.05,8q12.57,0,20.62-7.92a26.19,26.19,0,0,0,8-19.41A27.16,27.16,0,0,0,351,350.3a28.23,28.23,0,0,0-20.62-8.16q-12.47,0-20.68,8A25.67,25.67,0,0,0,301.49,369.23Z" transform="translate(-64.9 -216.95)" fill="#e30613"/>
    <path d="M461.86,473.6V425H413.6V404.66h48.26V356.41h20.56v48.25h48.25V425H482.42V473.6Z" transform="translate(-64.9 -216.95)" fill="#2b2422"/>
    <path d="M201,228.19V217a216.42,216.42,0,0,0-136.14,140H76A205.79,205.79,0,0,1,201,228.19Z" transform="translate(-64.9 -216.95)" fill="#e30613"/>
    <path d="M341,614.24v11.23a216.43,216.43,0,0,0,133.09-130.9h-11.3A205.88,205.88,0,0,1,341,614.24Z" transform="translate(-64.9 -216.95)" fill="#2b2422"/>
  </g>
</svg>
