<svg id="Layer_1" data-name="Layer 1" xmlns="http://www.w3.org/2000/svg" xmlns:xlink="http://www.w3.org/1999/xlink" viewBox="0 0 2730 1821">
  <defs>
    <clipPath id="clip-path">
      <polyline points="2092.55 503.45 2057.18 1684.27 1327.56 1684.27 1362.93 503.45" fill="#fff"/>
    </clipPath>
  </defs>
  <title>özgüvenEksikliği</title>
  <rect width="2730" height="1821" fill="#fff"/>
  <g>
    <rect x="242.82" y="464.96" width="316.87" height="316.87" fill="#f5f5f5"/>
    <rect x="568.45" y="464.96" width="316.87" height="316.87" fill="#f5f5f5"/>
    <rect x="568.45" y="791.83" width="316.87" height="316.87" fill="#f5f5f5"/>
    <rect x="242.82" y="791.83" width="316.87" height="316.87" fill="#f5f5f5"/>
    <path d="M465.06,465s7.54,192.56-172.17,316.87H242.82V465Z" fill="#ebebeb"/>
    <path d="M290.9,791.83S349,892,349,1108.71H242.82V791.83Z" fill="#ebebeb"/>
    <path d="M663.08,465s-7.54,192.56,172.17,316.87h50.07V465Z" fill="#ebebeb"/>
    <path d="M837.24,791.83s-58.1,100.16-58.1,316.88H885.32V791.83Z" fill="#ebebeb"/>
  </g>
  <g>
    <g>
      <rect x="2238.61" y="602.63" width="238.58" height="316.87" fill="#fafafa"/>
      <path d="M2487.18,929.5H2228.61V592.63h258.57Zm-238.57-20h218.57V612.63H2248.61Z" fill="#ebebeb"/>
    </g>
    <rect x="2292.46" y="653.64" width="130.88" height="214.84" fill="#f5f5f5"/>
  </g>
  <g>
    <g>
      <g>
        <path d="M679.51,1201.31S583.13,842.52,803.69,774.63c277-85.26,297.86,338.36,297.86,338.36Z" fill="#ffd3c9"/>
        <path d="M1037.86,594.38s125.82,269-307.45,302.77l7.94,93.31s-43.05-28-45.86,14.77c-3.23,49.27,40.58,20.63,40.58,20.63s-20.51,116.28-56.49,164.1c-6.81-6-215-397.66-24-407.17-.33-11.32,9.89-89.43,114.24-125.27C924.68,603.32,950.2,731.75,1037.86,594.38Z" fill="#263238"/>
        <path d="M835.14,973.08c4.46,16,1.38,30.76-6.87,33.07s-18.56-8.77-23-24.73-1.38-30.77,6.87-33.07S830.68,957.11,835.14,973.08Z" fill="#263238"/>
        <path d="M1009.44,922.65c4.45,16,1.38,30.77-6.88,33.07S984,947,979.56,931s-1.38-30.77,6.87-33.07S1005,906.69,1009.44,922.65Z" fill="#263238"/>
        <path d="M990,1014.13c-18.41,3.06-79.72,14.31-120,34.16a6.65,6.65,0,0,0-3.56,7.51c3.63,15.47,19.67,59.2,83,43,62.52-16,53.09-64,47.93-80.11A6.6,6.6,0,0,0,990,1014.13Z" fill="#ea7d84"/>
      </g>
      <path d="M1061.75,1690.89l45.82-110.37c6.17-44.77,10.31-99,14.23-139.64-152.88,10.57-286.73,24.94-396.71,19.38,4,39.86,6.47,76.89,6.5,116l-23.79,142.6s134.27,28.41,112.35-15.32c-30.71-61.25-88-10.5-88-10.5l43.41-108.75,14.52-81.77c182.39,7.18,272.3-14.24,272.3-14.24l1.23,90.82-28.15,139.93s156,27.15,105.55-33.4C1102.39,1639.34,1061.75,1690.89,1061.75,1690.89Z" fill="#263238"/>
      <path d="M1149,1137.73a378.4,378.4,0,0,0-47.24-23.87l-.18-.87-425,77a287.47,287.47,0,0,0-43,37.28l19.12,18.46,14.42,13.91a248.34,248.34,0,0,1,20.69-18.68c13.11,62.1,23.64,123.09,37.27,219.33,110,5.56,232.43,4.44,396.71-19.38,5.34-105.22,7.6-165.71-9.48-269.35q9.29,4.68,17.26,9.49Z" fill="#5e84fb"/>
      <path d="M1149,1137.73a378.4,378.4,0,0,0-47.24-23.87l-.18-.87-425,77a287.47,287.47,0,0,0-43,37.28l19.12,18.46,14.42,13.91a248.34,248.34,0,0,1,20.69-18.68c13.11,62.1,23.64,123.09,37.27,219.33,110,5.56,232.43,4.44,396.71-19.38,5.34-105.22,7.6-165.71-9.48-269.35q9.29,4.68,17.26,9.49Z" fill="#5e84fb"/>
      <path d="M1121.8,1440.88c4.52-89,6.83-146-2.89-224.1-17.36,107.07-89,200-166.12,215.15-81.06,15.88-178.84,7.07-234.42-18,2.17,14.53,4.4,29.89,6.72,46.29C835.07,1465.82,957.52,1464.7,1121.8,1440.88Z" opacity="0.07"/>
      <path d="M1149,1137.73,1129.58,1181c151.69,91.68-45.54,218.41-47,219.46-6.42,4.6-5.52,12.55-2.08,15.32,2.23,1.81,5.77,1.43,9.23-.62-1.27,3.82-.89,7.35,1.35,9.16s5.77,1.42,9.23-.62c-1.27,3.81-.89,7.35,1.34,9.15s5.78,1.43,9.24-.62c-1.27,3.82-.89,7.35,1.34,9.16,3.44,2.77,14.58-5.22,14.58-5.22C1256,1330.27,1277.21,1215.12,1149,1137.73Z" fill="#ffd3c9"/>
      <path d="M667.13,1259.6c-109.87,112,95.41,167.43,97.19,168.07,7.44,2.65,8.77,10.54,6.23,14.15-1.65,2.35-5.15,3-9,2,2.27,3.32,2.88,6.82,1.23,9.17s-5.16,3-9,2c2.27,3.32,2.89,6.82,1.23,9.18s-5.15,3-9,2c2.27,3.31,2.88,6.82,1.23,9.17-2.54,3.61-15.45-1-15.45-1-206.74-87-150-192.16-98.07-247Z" fill="#ffd3c9"/>
    </g>
    <g>
      <path d="M2117.68,468.89H1339.87a10.86,10.86,0,0,0-10.78,10.47l-36.82,1229a10.11,10.11,0,0,0,10.16,10.47h777.81a10.86,10.86,0,0,0,10.78-10.47l36.82-1229A10.11,10.11,0,0,0,2117.68,468.89Z" fill="#5e84fb"/>
      <g>
        <polyline points="2092.55 503.45 2057.18 1684.27 1327.56 1684.27 1362.93 503.45" fill="#fff"/>
        <g clip-path="url(#clip-path)">
          <g>
            <g>
              <path d="M1931.59,1190.31s107.12-358.79-111.4-426.68c-274.44-85.26-308,338.36-308,338.36Z" fill="#ffd3c9"/>
              <path d="M1591.42,583.38s-133.88,269,298.38,302.77l-10.73,93.31s43.88-28,45.41,14.77c1.76,49.27-41.2,20.63-41.2,20.63s17,116.28,51.58,164.1c7-6,226.89-397.66,36.16-407.17.67-11.32-7.2-89.43-110.48-125.27C1704.33,592.32,1675,720.75,1591.42,583.38Z" fill="#263238"/>
              <path d="M1782.8,962.08c-4.94,16-2.3,30.76,5.88,33.07s18.81-8.77,23.75-24.73,2.3-30.77-5.89-33.07S1787.73,946.11,1782.8,962.08Z" fill="#263238"/>
              <path d="M1610,911.65c-4.94,16-2.3,30.77,5.88,33.07s18.82-8.77,23.75-24.73,2.3-30.77-5.88-33.07S1614.94,895.69,1610,911.65Z" fill="#263238"/>
              <path d="M1626.74,1003.13c18.31,3.06,79.29,14.31,119,34.16a6.46,6.46,0,0,1,3.34,7.51c-4.1,15.47-21.45,59.2-84.3,43-62-16-51.18-64-45.53-80.11A6.83,6.83,0,0,1,1626.74,1003.13Z" fill="#ea7d84"/>
            </g>
            <path d="M1534.68,1679.89l-42.51-110.37c-4.83-44.77-7.35-99-10.05-139.64,152.57,10.57,286,24.94,396.13,19.38-5.25,39.86-8.77,76.89-10,116l19.54,141.6s-135.15,29.41-111.91-14.32c32.54-61.25,88.31-10.5,88.31-10.5l-40.15-108.75L1812,1491.57c-182.6,7.18-271.87-14.24-271.87-14.24l-3.95,90.82,24,138.93s-156.83,28.15-104.57-32.4C1495.59,1628.34,1534.68,1679.89,1534.68,1679.89Z" fill="#263238"/>
            <path d="M1934.86,1179l-422.67-77c-.07.29-.13.58-.2.87a390.87,390.87,0,0,0-48,23.87l18.08,43.29q8.12-4.82,17.55-9.49c-20.18,103.64-19.74,164.13-17.55,269.35,163.57,23.82,286,24.94,396.13,19.38,16.51-96.24,28.87-157.23,43.85-219.33a237.27,237.27,0,0,1,20.12,18.68l14.83-13.91,19.68-18.46A274.72,274.72,0,0,0,1934.86,1179Z" fill="#5e84fb"/>
            <path d="M1878.25,1449.26c2-11.69,4-22.85,5.85-33.56-56.19,23.69-151.28,31.73-230.44,16.23-75.19-14.74-145.12-103.42-164.69-207-9.19,68.74-8.55,123.43-6.85,205C1645.69,1453.7,1768.11,1454.82,1878.25,1449.26Z" opacity="0.07"/>
            <path d="M1464,1126.73l18.08,43.29c-154.43,91.68,39,218.41,40.44,219.46,6.28,4.6,5.15,12.55,1.63,15.32-2.29,1.81-5.82,1.43-9.22-.62,1.15,3.82.67,7.35-1.62,9.16s-5.81,1.42-9.21-.62c1.15,3.81.67,7.35-1.62,9.15s-5.82,1.43-9.22-.62c1.16,3.82.67,7.35-1.62,9.16-3.52,2.77-14.42-5.22-14.42-5.22C1351.28,1319.27,1333.47,1204.12,1464,1126.73Z" fill="#ffd3c9"/>
            <path d="M1942.22,1248.6c106.52,112-100.42,167.43-102.23,168.07-7.52,2.65-9.08,10.54-6.65,14.15,1.58,2.35,5.07,3,9,2-2.37,3.32-3.09,6.82-1.51,9.17s5.07,3,9,2c-2.37,3.32-3.09,6.82-1.51,9.18s5.07,3,9,2c-2.37,3.31-3.09,6.82-1.5,9.17,2.43,3.61,15.48-1,15.48-1,209.34-87,155.74-192.16,105.46-247Z" fill="#ffd3c9"/>
          </g>
        </g>
      </g>
    </g>
    <polygon points="1329.61 1615.55 2072.85 1161.13 2075.74 1064.66 1334.03 1468.22 1329.61 1615.55" fill="#fff" opacity="0.32"/>
    <polygon points="1327.56 1684.27 1362.93 503.45 2092.55 503.45 2057.18 1684.27 1327.56 1684.27" fill="#fff" opacity="0.32"/>
    <polygon points="1336.92 1371.63 2078.64 968.07 2082.57 836.7 1342.38 1189.4 1336.92 1371.63" fill="#fff" opacity="0.32"/>
  </g>
  <g>
    <polygon points="1531.42 265.64 1409.42 234.9 1389.42 161.65 1340.58 161.65 1320.58 234.9 1198.58 265.64 1180.58 310.38 1549.42 310.38 1531.42 265.64" fill="#ebebeb"/>
    <path d="M1365,353.72a44.39,44.39,0,0,1-44.34-44.34h5a39.34,39.34,0,0,0,78.68,0h5A44.39,44.39,0,0,1,1365,353.72Z" fill="#ebebeb"/>
    <rect x="1362.5" width="5" height="169.68" fill="#ebebeb"/>
  </g>
  <g>
    <g>
      <path d="M2305.61,1566.47s-175.21-230.2,85-407.3C2547.45,1417.42,2305.61,1566.47,2305.61,1566.47Z" fill="#ebebeb"/>
      <rect x="2183.31" y="1361.15" width="329.57" height="3.35" transform="translate(534.61 3383.24) rotate(-78.22)" fill="#e0e0e0"/>
      <path d="M2332.94,1443.16a1.58,1.58,0,0,0,.21-.5l-3.28-.68c.22-1.06.45-2.15,36.8-27.07,17.7-12.14,35.57-24.14,35.75-24.26l1.87,2.78C2376.86,1411.84,2335.23,1440.28,2332.94,1443.16Z" fill="#e0e0e0"/>
      <rect x="2318.13" y="1298.07" width="3.35" height="83.83" transform="translate(-328.18 1746.47) rotate(-38.74)" fill="#e0e0e0"/>
      <rect x="2357.31" y="1275.87" width="47.81" height="3.35" transform="translate(-270.55 1797.58) rotate(-39.31)" fill="#e0e0e0"/>
      <path d="M2312.28,1227.45c-107,123.62-55.28,255.07-24.24,311.11a119.7,119.7,0,0,0,15.37-23.28c8.65-17.21,13.13-36.16,18.21-54.73,3.64-13.3,7.64-26.57,9.25-40.25,1.31-11.17,5.84-33.77,5.54-45C2335,1321.72,2328.43,1278.15,2312.28,1227.45Z" fill="#e0e0e0"/>
    </g>
    <g>
      <path d="M2270.09,1554.21s126.54-206.45-42.19-421C2102.26,1375.19,2270.09,1554.21,2270.09,1554.21Z" fill="#f5f5f5"/>
      <rect x="2249.66" y="1175.88" width="3.35" height="345.83" transform="translate(-123.27 231.21) rotate(-5.72)" fill="#e0e0e0"/>
      <rect x="2239.08" y="1399.73" width="3.35" height="53.53" transform="translate(-308.51 2172.89) rotate(-48.8)" fill="#e0e0e0"/>
      <rect x="2228.11" y="1291.41" width="3.35" height="51.32" transform="translate(-194.57 2227.61) rotate(-51.15)" fill="#e0e0e0"/>
      <rect x="2249.51" y="1370.94" width="51.48" height="3.35" transform="translate(-354.21 1755.76) rotate(-39.39)" fill="#e0e0e0"/>
      <rect x="2237.54" y="1258.21" width="35.9" height="3.35" transform="translate(-170.16 2149.15) rotate(-49.32)" fill="#e0e0e0"/>
    </g>
    <rect x="2204.47" y="1485.81" width="212.96" height="233.01" fill="#ebebeb"/>
  </g>
  <g>
    <path d="M465.62,1691.81c-33.69,10.83-66.24,14.37-120.86-5.63-16-5.85-42.45-21.23-50.38-36.29s-6-32.37,8.12-41.89c15.7-10.59,21.93-3.92,39.95,1.93s29.93.69,34.67-9.39c8.5-18.08-16.13-37.25-34.78-44.41s-41-11.08-51.57-28c-13.8-22,8.08-53.1,33.6-48.09,16.57,3.26,33.8,14.06,43.77.43,9.1-12.42-2.84-30.1-15.56-38.89s-34.36-29.91-25.54-59.85c5.51-18.73,28.49-24.75,47.53-12.54,18.58,11.92,30.51,37.84,37.88,58.17,6.73,18.54,23.74,28.44,38,16.52,7.68-6.42,8.84-20.13,14.58-28.33,10.21-14.57,36-4.34,40.57,12.85S501,1463.22,491.12,1478s-21.1,30.29-21.2,48.07S488,1562.39,504.17,1555c12.82-5.9,18.05-24.68,32.08-26.25,16.7-1.87,23.34,21.36,21.35,38C550.93,1622.55,499.31,1681,465.62,1691.81Z" fill="#5e84fb"/>
    <path d="M466.26,1720.41c-3.08-17.15-6.93-35.37-11.43-54.15l-98.76-14.69.41-2.83,97.62,14.53c-9.42-38.81-21.82-80.88-36.86-125L325.1,1516l.67-2.77L416.15,1535c-26.77-78.16-52.3-135.29-52.55-135.86l-.21-.45,2.6-1.17.21.46c.22.49,22.32,49.89,47.15,120.29L467,1465l2,2-54.62,54.3c15.73,44.83,28.86,87.74,39,127.54L519,1593.16l1.84,2.18-66.58,56.55c6,23.78,11,46.66,14.84,68l.09.5-2.8.5Z" fill="#263238"/>
  </g>
  <rect x="247.21" y="1718.82" width="2235.59" height="3" fill="#263238"/>
</svg>
