<svg xmlns="http://www.w3.org/2000/svg" xmlns:xlink="http://www.w3.org/1999/xlink" viewBox="0 0 468.74 482.59">
  <defs>
    <clipPath id="clip-path" transform="translate(-15.42 9.2)">
      <polygon points="184 354.6 51.18 322.46 108.26 89.8 241.07 121.94 184 354.6" fill="none"/>
    </clipPath>
  </defs>
  <title>sosyalmedya</title>
  <g style="isolation: isolate">
    <g id="OBJECTS">
      <g>
        <ellipse cx="85.93" cy="429.75" rx="85.51" ry="9.4" fill="#dbedff" opacity="0.5" style="mix-blend-mode: multiply"/>
        <g>
          <g>
            <g>
              <path d="M322.67,329.68l-.49,0c.64-3.17,1.13-6.36,1.49-9.55a4.89,4.89,0,0,0,1.58.25h.28c-.35,3.16-.82,6.33-1.45,9.49A4.85,4.85,0,0,0,322.67,329.68Z" transform="translate(-15.42 9.2)" fill="#1f2760"/>
              <path d="M303.86,365.16a43.78,43.78,0,0,0,7.14-8.25,4.09,4.09,0,0,0,1.45,1.21,45,45,0,0,1-7.35,8.46A4.12,4.12,0,0,0,303.86,365.16Z" transform="translate(-15.42 9.2)" fill="#1f2760"/>
              <path d="M282.45,371.47a26.66,26.66,0,0,0,10.06-.25,24.34,24.34,0,0,0,4.17-1.41,5,5,0,0,0,.6,1.78,26.14,26.14,0,0,1-4.35,1.46,28.1,28.1,0,0,1-10.75.28A5.31,5.31,0,0,0,282.45,371.47Z" transform="translate(-15.42 9.2)" fill="#1f2760"/>
              <path d="M259.3,366.22a37.8,37.8,0,0,1,5.87.76,79.74,79.74,0,0,1,8.67,2.29l.07,0a5,5,0,0,0-.52,1.81l-.11,0a80.21,80.21,0,0,0-8.47-2.25,37.13,37.13,0,0,0-5.43-.71A5.46,5.46,0,0,0,259.3,366.22Z" transform="translate(-15.42 9.2)" fill="#1f2760"/>
              <path d="M238.87,374.63a21.83,21.83,0,0,1,11.48-7.52,5.18,5.18,0,0,0,.24,1.92,20.28,20.28,0,0,0-10.13,6.67A4,4,0,0,0,238.87,374.63Z" transform="translate(-15.42 9.2)" fill="#1f2760"/>
              <path d="M233.88,397.79a5,5,0,0,0-1.43-.21,3.29,3.29,0,0,0-.45,0c.24-1.52.4-3.07.57-4.66a44.53,44.53,0,0,1,1.84-10.07,4.23,4.23,0,0,0,1.74.75,42.67,42.67,0,0,0-1.71,9.52C234.28,394.68,234.11,396.23,233.88,397.79Z" transform="translate(-15.42 9.2)" fill="#1f2760"/>
              <path d="M220.51,416.29a33.33,33.33,0,0,0,8.94-10.36,4.22,4.22,0,0,0,1.65.88,35.13,35.13,0,0,1-9.23,10.8A4.4,4.4,0,0,0,220.51,416.29Z" transform="translate(-15.42 9.2)" fill="#1f2760"/>
              <path d="M181.6,406a39.65,39.65,0,0,1,5,3.51,41.27,41.27,0,0,1,4.8,4.84l.72.81a4.21,4.21,0,0,0-1.6,1l-.53-.59a40,40,0,0,0-4.58-4.63,35.8,35.8,0,0,0-5.59-3.83A4.08,4.08,0,0,0,181.6,406Z" transform="translate(-15.42 9.2)" fill="#1f2760"/>
              <path d="M159.67,405.57c4.9-2.55,9.5-3.43,14.09-2.62a5.16,5.16,0,0,0,.52,2c-4.67-1.06-9.3-.19-14.36,2.61A5.4,5.4,0,0,0,159.67,405.57Z" transform="translate(-15.42 9.2)" fill="#1f2760"/>
              <path d="M140.07,417.53c4.38-1.39,8-3.91,12.05-6.92a4,4,0,0,0,1.7,1.07c-4.78,3.6-9.21,6.75-14.94,8.13A4.74,4.74,0,0,0,140.07,417.53Z" transform="translate(-15.42 9.2)" fill="#1f2760"/>
              <path d="M114.5,413.69a4.87,4.87,0,0,0,1.9-.37,24.91,24.91,0,0,0,15.21,5.33,4.13,4.13,0,0,0,1.74,1.87c-.3,0-.6,0-.92,0-7.38,0-13.86-2.49-18.49-6.89A5.12,5.12,0,0,0,114.5,413.69Z" transform="translate(-15.42 9.2)" fill="#1f2760"/>
              <path d="M106.14,374a45.77,45.77,0,0,0-.71,9.17h-.09a5.05,5.05,0,0,0-1.75.31,48.32,48.32,0,0,1,.76-10A4.8,4.8,0,0,0,106.14,374Z" transform="translate(-15.42 9.2)" fill="#1f2760"/>
              <path d="M105.34,392.54a5,5,0,0,0,1-.1,51.65,51.65,0,0,0,4.34,13.61l.06.12a5.1,5.1,0,0,0-.81,2.47,20,20,0,0,1-.94-1.77,53.5,53.5,0,0,1-4.54-14.4A4.64,4.64,0,0,0,105.34,392.54Z" transform="translate(-15.42 9.2)" fill="#1f2760"/>
              <path d="M198.3,420.24a11.67,11.67,0,0,0,2,.81,23.26,23.26,0,0,0,13.22-.8,5.49,5.49,0,0,0,.29,1.89,26,26,0,0,1-8.37,1.39,23.24,23.24,0,0,1-5.62-.66,15.5,15.5,0,0,1-2.15-.82A5.13,5.13,0,0,0,198.3,420.24Z" transform="translate(-15.42 9.2)" fill="#1f2760"/>
              <path d="M317.28,350a4.18,4.18,0,0,0-1.73-.75c.1-.2.21-.4.32-.59A70.11,70.11,0,0,0,320,338.29a4.18,4.18,0,0,0,1.74.71,70.33,70.33,0,0,1-4.22,10.53Z" transform="translate(-15.42 9.2)" fill="#1f2760"/>
              <path d="M325.25,311a5.87,5.87,0,0,0-.86.07c.25-4.83.31-9.59.31-14.15h1.88c0,4.57-.06,9.33-.31,14.18A5.51,5.51,0,0,0,325.25,311Z" transform="translate(-15.42 9.2)" fill="#1f2760"/>
            </g>
            <path d="M326,310.54l-1-.1a2.73,2.73,0,0,0-3,2.44l-.51,5.15a2.73,2.73,0,0,0,2.45,3l1,.1a2.72,2.72,0,0,0,3-2.44l.5-5.15A2.72,2.72,0,0,0,326,310.54Zm-.54,2.71a1.31,1.31,0,0,1,1.18,1.43l-.24,2.48a1.31,1.31,0,0,1-1.43,1.18l-.49,0a1.3,1.3,0,0,1-1.17-1.43l.24-2.48A1.32,1.32,0,0,1,325,313.2Z" transform="translate(-15.42 9.2)" fill="#1f2760"/>
            <path d="M324.09,329.29l-1-.26a2.72,2.72,0,0,0-3.33,1.92l-1.34,5a2.71,2.71,0,0,0,1.92,3.33l1,.27a2.72,2.72,0,0,0,3.33-1.93l1.34-5A2.72,2.72,0,0,0,324.09,329.29Zm-1,2.59a1.31,1.31,0,0,1,.92,1.61l-.64,2.4a1.31,1.31,0,0,1-1.6.93l-.48-.13a1.3,1.3,0,0,1-.92-1.6l.64-2.41a1.31,1.31,0,0,1,1.61-.92Z" transform="translate(-15.42 9.2)" fill="#1f2760"/>
            <path d="M317.37,349.22l-.87-.51a2.74,2.74,0,0,0-3.73,1l-2.58,4.48a2.73,2.73,0,0,0,1,3.72l.89.51a2.72,2.72,0,0,0,3.71-1l2.59-4.48A2.72,2.72,0,0,0,317.37,349.22Zm-1.6,2.25a1.31,1.31,0,0,1,.48,1.79L315,355.42a1.31,1.31,0,0,1-1.79.48l-.42-.25a1.32,1.32,0,0,1-.48-1.79l1.25-2.15a1.31,1.31,0,0,1,1.79-.48Z" transform="translate(-15.42 9.2)" fill="#1f2760"/>
            <path d="M305.41,366.33l-.57-.84a2.73,2.73,0,0,0-3.79-.69l-4.26,2.94a2.74,2.74,0,0,0-.69,3.79l.58.84a2.74,2.74,0,0,0,3.79.69l4.25-2.95A2.71,2.71,0,0,0,305.41,366.33ZM303,367.67a1.31,1.31,0,0,1-.33,1.83l-2.05,1.41a1.3,1.3,0,0,1-1.82-.33l-.28-.4a1.31,1.31,0,0,1,.33-1.82l2-1.42a1.31,1.31,0,0,1,1.82.33Z" transform="translate(-15.42 9.2)" fill="#1f2760"/>
            <path d="M283,373.23l.29-1a2.74,2.74,0,0,0-1.86-3.38l-5-1.44a2.73,2.73,0,0,0-3.37,1.86l-.28,1a2.72,2.72,0,0,0,1.85,3.37l5,1.44A2.71,2.71,0,0,0,283,373.23Zm-2.57-1a1.31,1.31,0,0,1-1.62.9l-2.39-.7a1.29,1.29,0,0,1-.89-1.62l.13-.47a1.31,1.31,0,0,1,1.62-.89l2.4.69a1.32,1.32,0,0,1,.89,1.62Z" transform="translate(-15.42 9.2)" fill="#1f2760"/>
            <path d="M260.31,367.56l-.05-1A2.73,2.73,0,0,0,257.4,364l-5.16.27a2.73,2.73,0,0,0-2.58,2.86l.05,1a2.73,2.73,0,0,0,2.86,2.58l5.17-.27A2.72,2.72,0,0,0,260.31,367.56Zm-2.76-.12a1.3,1.3,0,0,1-1.24,1.37l-2.48.13a1.31,1.31,0,0,1-1.38-1.24l0-.48a1.32,1.32,0,0,1,1.24-1.38l2.49-.13a1.32,1.32,0,0,1,1.38,1.24Z" transform="translate(-15.42 9.2)" fill="#1f2760"/>
            <path d="M239.79,374.52l-.9-.47a2.74,2.74,0,0,0-3.68,1.16l-2.38,4.59a2.71,2.71,0,0,0,1.16,3.67l.9.47a2.72,2.72,0,0,0,3.67-1.16l2.39-4.59A2.73,2.73,0,0,0,239.79,374.52Zm-1.51,2.32a1.3,1.3,0,0,1,.56,1.77l-1.15,2.21a1.3,1.3,0,0,1-1.76.55l-.44-.22a1.3,1.3,0,0,1-.55-1.77l1.14-2.21a1.31,1.31,0,0,1,1.77-.55Z" transform="translate(-15.42 9.2)" fill="#1f2760"/>
            <path d="M233.76,397.05l-1-.26a2.72,2.72,0,0,0-3.32,2l-1.29,5a2.72,2.72,0,0,0,2,3.32l1,.26a2.74,2.74,0,0,0,3.32-2l1.29-5A2.72,2.72,0,0,0,233.76,397.05Zm-.94,2.59a1.31,1.31,0,0,1,.94,1.6l-.62,2.41a1.31,1.31,0,0,1-1.6.94l-.47-.12a1.3,1.3,0,0,1-.94-1.59l.62-2.42a1.32,1.32,0,0,1,1.6-.94Z" transform="translate(-15.42 9.2)" fill="#1f2760"/>
            <path d="M222.41,417.4l-.49-.89a2.72,2.72,0,0,0-3.7-1.07l-4.52,2.5a2.72,2.72,0,0,0-1.07,3.7l.49.89a2.72,2.72,0,0,0,3.7,1.07l4.53-2.5A2.73,2.73,0,0,0,222.41,417.4Zm-2.53,1.1a1.31,1.31,0,0,1-.52,1.78l-2.18,1.2a1.31,1.31,0,0,1-1.78-.51l-.23-.43a1.31,1.31,0,0,1,.51-1.78l2.18-1.21a1.32,1.32,0,0,1,1.78.52Z" transform="translate(-15.42 9.2)" fill="#1f2760"/>
            <path d="M198.17,422.67l.65-.78a2.72,2.72,0,0,0-.36-3.83l-4-3.31a2.72,2.72,0,0,0-3.83.36l-.65.78a2.72,2.72,0,0,0,.35,3.83l4,3.31A2.72,2.72,0,0,0,198.17,422.67Zm-1.95-2a1.31,1.31,0,0,1-1.85.17l-1.91-1.59a1.3,1.3,0,0,1-.17-1.84l.31-.38a1.31,1.31,0,0,1,1.84-.17l1.92,1.59a1.31,1.31,0,0,1,.17,1.84Z" transform="translate(-15.42 9.2)" fill="#1f2760"/>
            <path d="M182,407.26l.38-.95a2.73,2.73,0,0,0-1.53-3.53l-4.81-1.9a2.71,2.71,0,0,0-3.53,1.53l-.38.94a2.73,2.73,0,0,0,1.53,3.53l4.81,1.91A2.72,2.72,0,0,0,182,407.26ZM179.51,406a1.3,1.3,0,0,1-1.7.73l-2.31-.91a1.32,1.32,0,0,1-.74-1.7l.18-.45a1.3,1.3,0,0,1,1.7-.74l2.32.92a1.3,1.3,0,0,1,.73,1.7Z" transform="translate(-15.42 9.2)" fill="#1f2760"/>
            <path d="M161.05,406.43l-.57-.84a2.72,2.72,0,0,0-3.78-.73l-4.28,2.89a2.72,2.72,0,0,0-.73,3.78l.57.85a2.73,2.73,0,0,0,3.78.73l4.28-2.9A2.71,2.71,0,0,0,161.05,406.43Zm-2.43,1.32a1.31,1.31,0,0,1-.35,1.82l-2.06,1.4a1.32,1.32,0,0,1-1.82-.35l-.27-.41a1.31,1.31,0,0,1,.35-1.82l2.06-1.39a1.32,1.32,0,0,1,1.82.35Z" transform="translate(-15.42 9.2)" fill="#1f2760"/>
            <path d="M141.33,419.21l-.07-1a2.73,2.73,0,0,0-2.9-2.53l-5.16.36a2.71,2.71,0,0,0-2.53,2.9l.07,1a2.71,2.71,0,0,0,2.9,2.52l5.16-.35A2.73,2.73,0,0,0,141.33,419.21Zm-2.76-.08a1.32,1.32,0,0,1-1.22,1.4l-2.48.17a1.32,1.32,0,0,1-1.4-1.22l0-.48a1.32,1.32,0,0,1,1.22-1.4l2.49-.18a1.32,1.32,0,0,1,1.39,1.22Z" transform="translate(-15.42 9.2)" fill="#1f2760"/>
            <path d="M115.12,415.27l.83-.6a2.73,2.73,0,0,0,.6-3.8l-3-4.18a2.71,2.71,0,0,0-3.8-.6l-.82.59a2.72,2.72,0,0,0-.61,3.8l3,4.19A2.72,2.72,0,0,0,115.12,415.27Zm-1.4-2.38a1.31,1.31,0,0,1-1.83-.29l-1.46-2a1.3,1.3,0,0,1,.29-1.83l.39-.29a1.3,1.3,0,0,1,1.83.29l1.47,2a1.32,1.32,0,0,1-.29,1.83Z" transform="translate(-15.42 9.2)" fill="#1f2760"/>
            <path d="M104.84,393.54l1-.09a2.73,2.73,0,0,0,2.45-3l-.5-5.14a2.73,2.73,0,0,0-3-2.45l-1,.1a2.72,2.72,0,0,0-2.45,3l.51,5.15A2.7,2.7,0,0,0,104.84,393.54Zm0-2.76a1.31,1.31,0,0,1-1.43-1.18l-.25-2.47a1.32,1.32,0,0,1,1.18-1.43l.49-.05a1.3,1.3,0,0,1,1.43,1.17l.24,2.48a1.32,1.32,0,0,1-1.18,1.43Z" transform="translate(-15.42 9.2)" fill="#1f2760"/>
            <path d="M96.2,364.61a12.26,12.26,0,1,0,12.26-12.26A12.26,12.26,0,0,0,96.2,364.61Zm7.3,0a5,5,0,1,1,5,5A5,5,0,0,1,103.5,364.61Z" transform="translate(-15.42 9.2)" fill="#1f2760"/>
          </g>
          <g>
            <path d="M180.61,362.38l61.85-252.13A19.29,19.29,0,0,0,228.15,87L120.05,60.81c-10.44-2.53-22.22,7.66-24.75,18L34.71,327.08A19.28,19.28,0,0,0,49,350.36l108.1,26.16A19.44,19.44,0,0,0,180.61,362.38Z" transform="translate(-15.42 9.2)" fill="#339"/>
            <g>
              <path d="M188.55,364.3a19.42,19.42,0,0,1-23.49,14.14L57,352.28A19.28,19.28,0,0,1,42.65,329L104.49,76.86A19.44,19.44,0,0,1,128,62.73l108.1,26.16a19.27,19.27,0,0,1,14.31,23.28Z" transform="translate(-15.42 9.2)" fill="#5c63c2"/>
              <path d="M188.87,93.7c-1.45,3.18-6.31,4.75-10.86,3.52s-7.07-4.8-5.62-8,6.31-4.75,10.86-3.52S190.32,90.53,188.87,93.7Z" transform="translate(-15.42 9.2)" fill="#1f2760"/>
              <polygon points="168.57 363.8 35.76 331.66 92.83 99 225.65 131.14 168.57 363.8" fill="#dbedff"/>
              <g clip-path="url(#clip-path)">
                <g opacity="0.3" style="mix-blend-mode: overlay">
                  <polygon points="84.33 45.21 293.83 297.73 298.6 287.26 89.11 34.74 84.33 45.21" fill="#fff"/>
                  <polygon points="50.73 118.86 260.23 371.38 290.93 304.08 81.44 51.56 50.73 118.86" fill="#fff"/>
                  <polygon points="36.72 149.58 246.21 402.11 254.25 384.49 44.75 131.97 36.72 149.58" fill="#fff"/>
                  <polygon points="0 230.06 209.49 482.59 229.48 438.77 19.99 186.25 0 230.06" fill="#fff"/>
                  <polygon points="29.91 164.5 239.41 417.02 242.85 409.48 33.35 156.96 29.91 164.5" fill="#fff"/>
                  <polygon points="28.1 168.46 237.6 420.98 236.13 424.19 26.64 171.67 28.1 168.46" fill="#fff"/>
                  <polygon points="101.52 7.54 311.01 260.07 314.45 252.53 104.96 0 101.52 7.54" fill="#fff"/>
                  <polygon points="99.71 11.5 309.21 264.02 307.74 267.24 98.25 14.71 99.71 11.5" fill="#fff"/>
                </g>
              </g>
            </g>
          </g>
          <g>
            <g>
              <g>
                <path d="M465.49,352.62c7.05-3.05,5.88,9.17,5.64,12.69-.47,9.64-.94,21.86-5.64,30.33-1.64,3.05-8.22,7.28-11.28,3.05-2.12-3.05.23-8.46,1.64-11.28Z" transform="translate(-15.42 9.2)" fill="#896042"/>
                <path d="M455.62,358.5c2.82-2.12,7.05-6.58,11.05-6.11,2.82,3.29,1.64,10.34,1.41,14.57-.47,4.94-.71,10.11-1.65,15-.94,4.23-1.41,11.29-5.17,13.87-5.64,4.23-8.23-.94-8.23-5.88a103,103,0,0,1,.94-12.22c.24-2.58.24-8.46,1.65-10.34Z" transform="translate(-15.42 9.2)" fill="#513925"/>
              </g>
              <g>
                <path d="M294.73,425.72a19.06,19.06,0,0,1,4.12,2.71c2.93,2.23,5.64,4.93,8.69,7.05,3.53,2.35,7,4.7,10.46,7.16,1.65,1.06,3.41,2.12,5.05,3.18.83.59,3.18,1.53,3.53,2.58a1.51,1.51,0,0,1,.05.4,2.65,2.65,0,0,1-.52.11c-3.76.47-6.9-1.09-9.87-3-6.74-4.39-22.71-16.67-22.71-20.34A2.31,2.31,0,0,1,294.73,425.72Z" transform="translate(-15.42 9.2)" fill="#aa9587"/>
                <path d="M320.82,440.53A126.16,126.16,0,0,1,305.54,430c-3.14-2.4-6.29-5.75-10.13-7a9.93,9.93,0,0,1,7.66-1.13c4.82,1.18,12.07,6.11,14.89,7.52l2-8.47,7.52-1.56s.63,14.26.94,21.47c.11,2,.72,4.87-.11,6.61C327.57,444.79,322.38,441.44,320.82,440.53Z" transform="translate(-15.42 9.2)" fill="#513925"/>
                <path d="M295.41,422.94c3.84,1.26,7,4.61,10.13,7a126.16,126.16,0,0,0,15.28,10.58c1.56.91,6.75,4.26,7.53,6.85a2.53,2.53,0,0,1-1.72,1.42,1.51,1.51,0,0,0-.05-.4c-.35-1-2.7-2-3.53-2.58-1.64-1.06-3.4-2.12-5.05-3.18-3.41-2.46-6.93-4.81-10.46-7.16-3.05-2.12-5.76-4.82-8.69-7.05a19.06,19.06,0,0,0-4.12-2.71,2.31,2.31,0,0,0-1.2-.12,3.14,3.14,0,0,1,0-1.59C293.83,423.47,294.09,422.55,295.41,422.94Z" transform="translate(-15.42 9.2)" fill="#896042"/>
              </g>
              <g>
                <path d="M316.24,422.43c.47-5.41,1.41-17.16,1.41-22.56,0-6.11-.24-12.46,0-18.57.47-5.17.23-11.05,1.88-16,1.64-5.64,6.34-11.28,9.64-16.21,7.28-10.81,16.92-19.75,23.73-31a106.81,106.81,0,0,0,8-15.51c.94-2.82,1.41-5.41,4.93-6.58,2.35-1.18,5.64-1.41,8.23-1.65,5-.42,11.74,1.6,16.14,4.54,1.51-5.09,5.31-8.08,12.77-7.12,11.28,1.41,16.22,18.33,18.1,27.73,2.58,11.75,3.05,23.74,4.93,35.49.71,5.17.47,11,1.88,16,.24-.94.71-2.59,1.89-2.82,1.41-.24,1.64,1.17,2.58,2.11,2.12-3.05,5.88-2.35,8.46-4,2.82-1.65,4.7-5.41,8.23-6.12l4.23-3.05c6.11.23,6.82,11.52,6.58,16,0,1.18.24,2.59-.24,3.53-.93,1.88-.46.7-2.11,1.41-2.82.94-4.23.47-6.58,2.82-1.41,1.17-.71,1.41-2.59,1.88-1.41.23-2.82-.24-4,0-2.59.7-5.17,3.76-7.52,5.17a37.54,37.54,0,0,1-15.05,4.7c-2.82.24-4.93.47-6.58-2.11-1.41-2.12-2.11-5.18-3.05-7.76-4-10.58-6.59-21.63-10.35-32.44-1.14-3.24-3.6-9.29-6-16.3-3.88-.86-9.29-1.75-12.31-1.09s-25.62,18.33-29.85,23c-4.47,4.94-9.64,8.23-14.34,12.46,3.06,5.17.24,3.53-1.17,6.58-.94,1.88-1.41,7.52-2.12,9.87-1.17,4.7-2.35,7.76-1.88,12.46.24,2.59,1.41,5.17.94,7.76-.23,2.58-1.64,4.93-1.88,7.52-.23,4,0,8.23,0,12.22l-.3,3.39C324.78,429.22,315.77,425.49,316.24,422.43Z" transform="translate(-15.42 9.2)" fill="#5d99c1"/>
                <g>
                  <path d="M412.92,318.07a9.55,9.55,0,0,1-4.31,1.29,6.16,6.16,0,0,1-4.35-1.57,9.9,9.9,0,0,1-2.5-3.84,17.32,17.32,0,0,1-1.06-4.34c.56,1.37,1.12,2.73,1.77,4a11.48,11.48,0,0,0,2.45,3.41,6,6,0,0,0,3.71,1.54A14.47,14.47,0,0,0,412.92,318.07Z" transform="translate(-15.42 9.2)" fill="#369"/>
                  <path d="M388.79,309.45a38.3,38.3,0,0,0,.3,11.95,42.63,42.63,0,0,0,1.49,5.78,39.43,39.43,0,0,0,2.25,5.52l.4.82-.9-.17a38.61,38.61,0,0,0-3.85-.5,33.3,33.3,0,0,0-3.86-.08h-.22l-.15-.13a5,5,0,0,1-1.11-1.8,17,17,0,0,1-.58-1.89c-.31-1.26-.51-2.53-.71-3.79s-.38-2.49-.62-3.76-.37-2.54-.5-3.81-.24-2.55-.33-3.82l-.12-1.91a10.45,10.45,0,0,1,0-1.94,20.75,20.75,0,0,1,.76-3.78,21.42,21.42,0,0,1,1.35-3.58,24.57,24.57,0,0,0-1.64,7.39,13.26,13.26,0,0,0,.1,1.87l.2,1.89c.13,1.27.28,2.53.45,3.79s.38,2.5.6,3.75.49,2.52.67,3.77.43,2.49.74,3.7a12.88,12.88,0,0,0,.56,1.76,4,4,0,0,0,.88,1.42l-.37-.12a28.16,28.16,0,0,1,4,.11,37.73,37.73,0,0,1,3.94.56l-.5.65a39.08,39.08,0,0,1-3.54-11.6A33.65,33.65,0,0,1,388.79,309.45Z" transform="translate(-15.42 9.2)" fill="#369"/>
                  <path d="M365.91,312.27a7.12,7.12,0,0,1-.58,3.1,6.14,6.14,0,0,1-2,2.56,6.41,6.41,0,0,1-3.05,1.13,7.34,7.34,0,0,1-3.13-.36,17.79,17.79,0,0,0,3-.41,7.58,7.58,0,0,0,2.6-1.17,7.16,7.16,0,0,0,1.91-2.11A16,16,0,0,0,365.91,312.27Z" transform="translate(-15.42 9.2)" fill="#369"/>
                </g>
              </g>
            </g>
            <g>
              <g>
                <path d="M313,231.57c-6.9-4.23-16.3-9.24-23.19-13.63-5.17-3.29-20.69-16-24.29-19.27-1.88-1.57-6.43-6.43-8.94-2.67-2,3.14,24.14,28.37,27.58,31.66,0,0,22.1,13.16,25.08,14.88,1.25.79,3.76,2.67,4.7,2.51Z" transform="translate(-15.42 9.2)" fill="#ffc4b8"/>
                <path d="M262.41,203.13c-.23.71-1.41.94-2.11,1.06-2.12.35-3.41,0-4.7-1.76-1.41-2.12-1.41-5.64-3.18-7.05-2.35-1.88-5.29-3.18-6.81-5.88-1.18-2-.83-4.35,1.52-2.35,1.77,1.53,3.53,2.94,5.29,4.47a80.37,80.37,0,0,1-3.64-7.17c-1.06-2.47-2.35-5.17-2-7.88.12-1.29.82-2.58,1.88-1.29.82.82,1.06,2.82,1.41,3.76a47.25,47.25,0,0,0,3.53,7.88,15.39,15.39,0,0,0,1.29,1.64c-1.17-5.05-2.47-10-2.35-15.28,0-1.29.35-2.35,2-2,1.41.23,1.06,2.11,1.41,3.4.59,2.94,1.17,5.88,1.64,8.82a20.62,20.62,0,0,0,1.06,5.29c.94-4.94-1.17-10.7.47-15.52.47-1.29,1.53-2.35,2.23-.7.48,1.17.12,3,.12,4.35a63.22,63.22,0,0,0,.82,8.22c.48,2.94.48,5.76,1.18,8.46.35,1.3,2,5.88.47,6.59Z" transform="translate(-15.42 9.2)" fill="#ffc4b8"/>
                <g>
                  <path d="M264.88,200.2c-.94-1.3-2.23-2.12-3.05-3.53a31.63,31.63,0,0,1-2.94-6.93c-.36-1.3-.71-6.47-2.82-5.76s-1.06,5.64-.71,7.05c.24.7.47,1.41.71,2a2.65,2.65,0,0,1,0,2.11,11.35,11.35,0,0,0,.11,4.47c.83,2.82,2.19,4.82,5.36,4.7" transform="translate(-15.42 9.2)" fill="#ffc4b8"/>
                  <path d="M264.88,200.2c-.71-.87-1.61-1.54-2.4-2.37A12.51,12.51,0,0,1,260.6,195c-.51-1-1-2.05-1.37-3.1-.21-.53-.4-1.06-.59-1.59l-.14-.4c-.05-.18-.08-.3-.11-.46l-.16-.83a16.34,16.34,0,0,0-.82-3.15,1.9,1.9,0,0,0-.77-1,.59.59,0,0,0-.45,0,.83.83,0,0,0-.26.14,1,1,0,0,0-.21.2,4.62,4.62,0,0,0-.45,2.89,19,19,0,0,0,.56,3.23v0c.21.67.42,1.34.67,2v0h0a4.41,4.41,0,0,1,.23,1.18,2.45,2.45,0,0,1-.11.65l-.14.52v-.05a12,12,0,0,0-.18,3,10.07,10.07,0,0,0,.21,1.46,13.88,13.88,0,0,0,.47,1.42,5.56,5.56,0,0,0,1.7,2.39,4.87,4.87,0,0,0,2.85.86,4.72,4.72,0,0,1-3-.6,5.62,5.62,0,0,1-2-2.42,13.92,13.92,0,0,1-.57-1.47,11.22,11.22,0,0,1-.32-1.57,13.43,13.43,0,0,1,0-3.17h0v0a5.24,5.24,0,0,0,.2-.95,4.39,4.39,0,0,0-.22-.93v0c-.27-.68-.5-1.35-.73-2h0v0a21,21,0,0,1-.62-3.38,8.73,8.73,0,0,1,0-1.77,3.4,3.4,0,0,1,.67-1.82,2,2,0,0,1,.39-.38,2.81,2.81,0,0,1,.48-.25,1.58,1.58,0,0,1,1.19,0,2.69,2.69,0,0,1,1.27,1.54,16.11,16.11,0,0,1,.79,3.37l.14.82c0,.12,0,.27.07.37l.12.4c.16.53.32,1.06.5,1.59a33.24,33.24,0,0,0,1.19,3.11,14,14,0,0,0,1.62,2.88A28.48,28.48,0,0,1,264.88,200.2Z" transform="translate(-15.42 9.2)" fill="#d76559"/>
                </g>
              </g>
              <path d="M415.66,295.51c-13.16-12.23-25.35-29.22-29.61-47-1.84-7.66-2.71-10.56-7.41-14.32-3.76-3.29-10-2.61-14.92-2.37s-9.87,1.65-14.81,1.88c-4.7.24-8.7-.94-13.16-1.88a15.4,15.4,0,0,0-6.58-.71c-2.59.24-4,1.71-6.35,1.88-2.12.16-13.87-4.46-13.87-4.46-1.88,7.76-1.17,16.22-1.17,24h0c10.81,2.59,22.09,3.76,26.09,4.47,0,0,15.51,22.09,17.62,27.73,3.29,8.23,6.35,21.39,2.12,29.15,7.05,4,15.51,4.47,23.27,6.35a87.07,87.07,0,0,0-1.18-17.4c2.12,4.7,5.41,8.7,8.7,12.46,1.65,1.88,2.35,3.76,4.94,3.53,1.88-.24,14.34-8.23,17.86-11.52C410,304.67,415.66,295.51,415.66,295.51Z" transform="translate(-15.42 9.2)" fill="#856baf"/>
              <g>
                <path d="M378.61,308l-4.69-7.38-4.65-7.41c-1.55-2.47-3-5-4.47-7.53a63.24,63.24,0,0,1-3.55-8.06c-1-2.74-2-5.48-3.17-8.1s-2.85-5-4-7.78a22.54,22.54,0,0,1-1.32-4.23,27.56,27.56,0,0,1-.64-4.37,10.3,10.3,0,0,1,.94-4.32,31.15,31.15,0,0,1,2-3.88,37.33,37.33,0,0,0-1.8,4,10,10,0,0,0-.69,4.2,30.09,30.09,0,0,0,.76,4.25,22.2,22.2,0,0,0,1.42,4.06c1.21,2.59,2.88,5,4.12,7.7s2.26,5.42,3.27,8.15a62.42,62.42,0,0,0,3.41,8c1.38,2.55,2.88,5.05,4.33,7.57C372.84,297.81,375.84,302.81,378.61,308Z" transform="translate(-15.42 9.2)" fill="#614b8c"/>
                <g>
                  <path d="M354.34,253.52c0,1,.46,1.9,1,1.9s1-.85,1-1.9-.47-1.89-1-1.89S354.34,252.48,354.34,253.52Z" transform="translate(-15.42 9.2)" fill="#614b8c"/>
                  <path d="M367,280c.55.88,1.4,1.35,1.88,1.05s.43-1.27-.13-2.16-1.39-1.35-1.88-1S366.46,279.06,367,280Z" transform="translate(-15.42 9.2)" fill="#614b8c"/>
                  <path d="M377.73,301.41c.56.89,1.4,1.36,1.89,1.06s.43-1.27-.13-2.16-1.4-1.36-1.88-1.05S377.18,300.53,377.73,301.41Z" transform="translate(-15.42 9.2)" fill="#614b8c"/>
                </g>
              </g>
            </g>
            <g>
              <path d="M362,225.82a30.87,30.87,0,0,0-10.93,0,70.15,70.15,0,0,0-8.22,2c-1.88.47-6.11,2.12-6,4.71,0,1.87,2.94,4.58,4.23,5.75a9.15,9.15,0,0,0,6,2.22,21.89,21.89,0,0,0,9.12-1.63,10.73,10.73,0,0,0,3.88-2.58c.71-.94.83-2.94,1.88-3.41Z" transform="translate(-15.42 9.2)" fill="#614b8c"/>
              <path d="M320.94,189.27c2.23-5.88,6.34-8.46,12.34-9.76a17.67,17.67,0,0,1,10.69,1.3c3.65,1.52,5.64,4.7,7.29,8.22,3.17,6.7,3.52,15.16,2.59,22.45a19,19,0,0,1-4.58,9.94c4.05,6.16,10.22,13.92,10.22,13.92L353.14,249h0c.12-.24-7.87-8.76-7.87-8.76L341,225.87a20.35,20.35,0,0,1-4.23-.76c-1.76-.47-3.4-.35-4.93-1.17s-1.77-1.88-2.23-3.53c-1.77-5.64-4.59-11.16-7.29-16.45-1.18-2.35-3.06-4.7-2.82-7.41A29.53,29.53,0,0,1,320.94,189.27Z" transform="translate(-15.42 9.2)" fill="#ffc4b8"/>
              <g>
                <g>
                  <path d="M344.44,215.71c.12,2.58-4.34,4-6.34,4" transform="translate(-15.42 9.2)" fill="#ffc4b8"/>
                  <path d="M344.44,215.71a2.22,2.22,0,0,1-.48,2.09,5.08,5.08,0,0,1-1.72,1.35,7,7,0,0,1-2,.63,4.84,4.84,0,0,1-2.11-.07c.67-.22,1.29-.45,1.91-.68s1.22-.49,1.79-.78a8.36,8.36,0,0,0,1.6-1A3,3,0,0,0,344.44,215.71Z" transform="translate(-15.42 9.2)" fill="#d76559"/>
                </g>
                <g>
                  <path d="M332.34,201.49a19.23,19.23,0,0,1-.24,3.76c-.23,1.64-1.29,2.94-1.64,4.47-.47,2.7,4.7,5.52,6.93,4.46" transform="translate(-15.42 9.2)" fill="#ffc4b8"/>
                  <path d="M332.34,201.49a13.37,13.37,0,0,1,0,4.55,12.85,12.85,0,0,1-.8,2.16c-.15.34-.29.67-.41,1a4.5,4.5,0,0,0-.14.49l0,.12c0-.07,0,.06,0,.08a1,1,0,0,0,0,.23,2.77,2.77,0,0,0,.78,1.67,7.25,7.25,0,0,0,1.6,1.35,8.39,8.39,0,0,0,1.94.91,3.71,3.71,0,0,0,2.14.13,3.48,3.48,0,0,1-2.25.35,7.29,7.29,0,0,1-2.22-.71,7.17,7.17,0,0,1-1.91-1.4,3.59,3.59,0,0,1-1.08-2.3,2.63,2.63,0,0,1,0-.33,1.57,1.57,0,0,1,0-.2l0-.15c.05-.2.12-.39.18-.57.15-.38.3-.73.47-1.07a15,15,0,0,0,.91-2A25,25,0,0,0,332.34,201.49Z" transform="translate(-15.42 9.2)" fill="#d76559"/>
                </g>
                <g>
                  <path d="M338.21,190.68a6,6,0,0,1,3.09.55,7,7,0,0,1,2.55,1.8,10.88,10.88,0,0,1-3-.89A15.42,15.42,0,0,1,338.21,190.68Z" transform="translate(-15.42 9.2)" fill="#513925"/>
                  <path d="M325.87,190.44c-.26.49-.44.91-.66,1.36l-.62,1.32a14.73,14.73,0,0,1-1.54,2.61,6,6,0,0,1,.64-3,6.22,6.22,0,0,1,.87-1.31A3.12,3.12,0,0,1,325.87,190.44Z" transform="translate(-15.42 9.2)" fill="#513925"/>
                </g>
                <g>
                  <path d="M338,199.34c.08,1.17.78,2.07,1.55,2s1.34-1,1.26-2.21-.78-2.07-1.56-2S337.9,198.18,338,199.34Z" transform="translate(-15.42 9.2)"/>
                  <path d="M325.29,201.59c.08,1.17.78,2.06,1.56,2s1.34-1,1.25-2.21-.78-2.07-1.55-2S325.21,200.42,325.29,201.59Z" transform="translate(-15.42 9.2)"/>
                </g>
              </g>
              <path d="M309,178.15c2.42-1.24,8.11-1.07,10.33.7-1-1.34-2.42-2-2.8-3.77-.5-2.29.71-2.56,2.38-1.37,3.19,2.27,5.32,4.91,9.37,5.3,3.47.37,7.59-.82,10.82-2.24,2.6-1,5.74-2.81,8-.07a9.72,9.72,0,0,1,1.95,4.53,33.68,33.68,0,0,1,5.81,1.31c3.36,1.34,3.09,4.7,3,7.93-.14,3.62-.27,7.92-1.35,11.28-.54,1.75-1.74,2.29-3.49,1.75s-2-2.55-2.15-4.3a10,10,0,0,1,.54-4.43c-5.11-.14-4.57-3.51-4.71-7v-3.55c-.45.13-.88.26-1.23.34-1.89.42-3.67.67-5.59.95-5.75.84-11.44,1.94-17.17,2.92a32.74,32.74,0,0,1-9.88,0c-1.17-.17-4.32-.33-2.72-2.09.9-1,3.44-1,4.64-.74C312.61,185,304.3,180.59,309,178.15Z" transform="translate(-15.42 9.2)" fill="#513925"/>
              <path d="M353.26,200.67c2.7-1.41,5.4-.71,6.11,2.58.59,2.59.59,5.88-1.65,7.64-1.29.82-3.74,1.3-4.92.12Z" transform="translate(-15.42 9.2)" fill="#ffc4b8"/>
              <polygon points="349.74 254.26 342.02 248.92 346.53 235.02 353.81 240.79 349.74 254.26" fill="#9d82d1"/>
              <polygon points="330.22 249.82 327.02 257.35 321.38 249.41 321.38 241.44 330.22 249.82" fill="#9d82d1"/>
            </g>
            <g>
              <g>
                <path d="M323.34,299.11c-.4,1.92-1.22,3.23-2.39,3.52-2.64.65-6.05-4-7.64-10.41s-.73-12.11,1.9-12.76c1.17-.3,2.5.48,3.76,2a24.7,24.7,0,0,0,4.37,17.67Z" transform="translate(-15.42 9.2)" fill="#a6a9c5"/>
                <g>
                  <path d="M361.05,255.55s-18.53,19.7-25.85,23.84c-5.72,3.24-32.28,14.39-32.28,14.39-2.67,3.45,3.6,5,6.11,4.86,3.29-.16,37-11.75,39.8-13.79,3.45-2.82,20.21-18,21.31-20.06Z" transform="translate(-15.42 9.2)" fill="#ffc4b8"/>
                  <g>
                    <path d="M309.66,297.39a5,5,0,0,1-7.29,3.17c-5.52-2.82-9.76-7.64-15.16-10.58-2.7-1.52-3.17-3.87-3.88-6.7-.35-1.64-.23-2,1.29-2.35,1.3-.23,2.71-.47,3.88-.58s2.7-.59,3.65-.24C293.32,280.58,309.66,297.39,309.66,297.39Z" transform="translate(-15.42 9.2)" fill="#ffc4b8"/>
                    <g>
                      <path d="M291.68,282.58c-1.41.35-9.17,3.64-9.52,5.17-.36,1.88,3.52,5.41,4.93,6,1.88.94,4.82-1.29,5.76-3.05" transform="translate(-15.42 9.2)" fill="#ffc4b8"/>
                      <path d="M291.68,282.58c-1,.41-2,.89-2.95,1.39s-1.93,1-2.87,1.51a20.86,20.86,0,0,0-2.65,1.73,2.83,2.83,0,0,0-.49.49.74.74,0,0,0-.08.13.78.78,0,0,0,0,.3,3.43,3.43,0,0,0,.54,1.29,12.57,12.57,0,0,0,2,2.37,7.81,7.81,0,0,0,2.46,1.75,3.92,3.92,0,0,0,2.83-.71,7.52,7.52,0,0,0,2.36-2.14,6.85,6.85,0,0,1-2.09,2.55,3.58,3.58,0,0,1-4.88.29,13.42,13.42,0,0,1-1.32-1,12.77,12.77,0,0,1-2.24-2.55,4.28,4.28,0,0,1-.66-1.71,2.07,2.07,0,0,1,0-.51,1.35,1.35,0,0,1,.27-.6,4.06,4.06,0,0,1,.67-.65,16.59,16.59,0,0,1,2.9-1.67A30.7,30.7,0,0,1,291.68,282.58Z" transform="translate(-15.42 9.2)" fill="#d76559"/>
                    </g>
                    <g>
                      <path d="M294.14,286.46s-6.22,3.88-8.34,6.46c-1.06,1.29.23,1.76,1.41,2.7.94.71,2,1.3,2.94,2s1.88,1.77,2.94,1.06c.82-.59,1.29-2.23,2-3.17" transform="translate(-15.42 9.2)" fill="#ffc4b8"/>
                      <path d="M294.14,286.46q-2.47,1.91-4.88,3.85c-.78.67-1.57,1.32-2.28,2a8.31,8.31,0,0,0-1,1.09c-.2.37-.18.43.13.76s.77.58,1.19.92.82.59,1.24.88a21,21,0,0,1,2.52,1.89,2.74,2.74,0,0,0,1.16.69,1.14,1.14,0,0,0,1.08-.52c.64-.74,1-1.77,1.73-2.55-.52.91-.76,1.9-1.34,2.85a1.73,1.73,0,0,1-1.54.87,3.23,3.23,0,0,1-1.57-.73,27.13,27.13,0,0,0-2.56-1.71c-.44-.27-.89-.58-1.31-.9s-.83-.56-1.29-1a1.66,1.66,0,0,1-.54-.93,1.56,1.56,0,0,1,.27-1.07,8,8,0,0,1,1.12-1.24,24.44,24.44,0,0,1,2.47-2A42.23,42.23,0,0,1,294.14,286.46Z" transform="translate(-15.42 9.2)" fill="#d76559"/>
                    </g>
                    <g>
                      <path d="M294.84,289.26s-1.41,2.82-2.12,3.87-3.05,3.65-2.94,5.06c.24,3.29,7.73,3,6.58-1.88.71-1.18,2.47-2.82,2.36-4.23" transform="translate(-15.42 9.2)" fill="#ffc4b8"/>
                      <path d="M294.84,289.26c-.31.81-.67,1.6-1,2.4a12.21,12.21,0,0,1-1.3,2.3c-.5.71-1,1.41-1.44,2.13a4,4,0,0,0-.8,2.1,1.77,1.77,0,0,0,1.3,1.45,4.1,4.1,0,0,0,2.28.13,3,3,0,0,0,1.85-1.17,2.9,2.9,0,0,0,.36-2.22l0-.14.07-.09a24.09,24.09,0,0,1,1.57-1.94,7.61,7.61,0,0,0,.69-1,2.55,2.55,0,0,0,.36-1.14,2.49,2.49,0,0,1-.17,1.23,7.92,7.92,0,0,1-.58,1.12c-.42.71-1,1.36-1.34,2l0-.23a3.61,3.61,0,0,1-.24,2.81,3.81,3.81,0,0,1-2.36,1.65,4.87,4.87,0,0,1-2.85-.13,3.26,3.26,0,0,1-1.27-.83,2.49,2.49,0,0,1-.64-1.45,2.81,2.81,0,0,1,.35-1.49,9.12,9.12,0,0,1,.69-1.18c.51-.73,1.09-1.39,1.65-2.06A45.7,45.7,0,0,0,294.84,289.26Z" transform="translate(-15.42 9.2)" fill="#d76559"/>
                    </g>
                  </g>
                </g>
                <path d="M322.84,289.86c-1.58-6.4-5-11.06-7.63-10.4l8.47-2.1c2.63-.65,6.05,4,7.63,10.41s.74,12.11-1.89,12.76l-8.47,2.1C323.58,302,324.43,296.26,322.84,289.86Z" transform="translate(-15.42 9.2)" fill="#1f2760"/>
              </g>
              <path d="M371.47,272.94c1.41.24,4-3.64,4.35-4.93s-.12-3.18.47-4.59c.59-1.76,2.35-2.58,3.41-4.11.82-1.06,1.06-2.47,1.65-3.64.7-1.41,1.41-2.71,2.11-4,1.29-2.47,2.52-6.06,1.58-9-1.18-4.12-5.69-11.22-11-7.58-3.06,2.12-4.82,5.17-7.17,8A16.2,16.2,0,0,0,364,247c-.35.71-.47,1.53-.82,2.12-.59.82-1.29.94-2,1.52-1.17.94-1.64,2.71-2.94,3.76-.82.83-2.23,1.65-2.82,2.71Z" transform="translate(-15.42 9.2)" fill="#9d82d1"/>
            </g>
          </g>
          <g>
            <g>
              <path d="M264.54,125.39l24.06-5.22a7.31,7.31,0,0,1,8.69,5.59l3.47,16a7.29,7.29,0,0,1-5.59,8.68l-5.38,1.17,1.36,6.28-5.7-5.34-14.34,3.11a7.31,7.31,0,0,1-8.69-5.59l-3.47-16A7.3,7.3,0,0,1,264.54,125.39Z" transform="translate(-15.42 9.2)" fill="#dc5475"/>
              <path d="M270.29,133.22a4.62,4.62,0,0,1,1.6-1.52c2.72-1.66,5.27.2,7.08,2.27,1-2.84,3.38-6,6.79-4.56,4.42,1.84,1.85,7.72.05,10.52-1.42,2.23-4.48,6.41-4.48,6.41-2.15-1.53-4.32-2.75-6.47-4.29C272.29,140.22,268.44,136.22,270.29,133.22Z" transform="translate(-15.42 9.2)" fill="#fff"/>
            </g>
            <g>
              <path d="M184.45,132.83l23.26-8.07a7.31,7.31,0,0,1,9.3,4.51l5.36,15.48a7.3,7.3,0,0,1-4.51,9.3l-5.2,1.8,2.11,6.07-6.3-4.61-13.87,4.8a7.29,7.29,0,0,1-9.29-4.51l-5.37-15.48A7.3,7.3,0,0,1,184.45,132.83Z" transform="translate(-15.42 9.2)" fill="#dc5475"/>
              <path d="M191.09,139.91a4.67,4.67,0,0,1,1.41-1.69c2.5-2,5.25-.44,7.31,1.39.65-2.94,2.63-6.33,6.19-5.33,4.6,1.28,2.75,7.43,1.31,10.43-1.15,2.39-3.68,6.91-3.68,6.91-2.32-1.27-4.62-2.22-6.94-3.49C193.92,146.62,189.62,143.11,191.09,139.91Z" transform="translate(-15.42 9.2)" fill="#fff"/>
            </g>
            <g>
              <path d="M222.34,234.15l20.71-13.31a7.31,7.31,0,0,1,10.1,2.2L262,236.82a7.3,7.3,0,0,1-2.19,10.1l-4.63,3,3.47,5.4-7.21-3-12.35,7.94A7.31,7.31,0,0,1,229,258l-8.86-13.79A7.3,7.3,0,0,1,222.34,234.15Z" transform="translate(-15.42 9.2)" fill="#dc5475"/>
              <path d="M230.46,239.47a4.77,4.77,0,0,1,1-2c2-2.51,5-1.66,7.43-.36-.06-3,1.07-6.77,4.76-6.64,4.78.17,4.43,6.58,3.74,9.84-.56,2.58-2,7.57-2,7.57-2.56-.68-5-1.06-7.56-1.75C234.78,245.33,229.78,242.93,230.46,239.47Z" transform="translate(-15.42 9.2)" fill="#fff"/>
            </g>
            <g>
              <path d="M152.31,199.1l17.41-17.41a7.32,7.32,0,0,1,10.34,0l11.58,11.59a7.3,7.3,0,0,1,0,10.33l-3.89,3.89,4.54,4.54-7.68-1.4L174.23,221a7.29,7.29,0,0,1-10.33,0l-11.59-11.58A7.31,7.31,0,0,1,152.31,199.1Z" transform="translate(-15.42 9.2)" fill="#dc5475"/>
              <path d="M161.39,202.57a4.61,4.61,0,0,1,.52-2.14c1.39-2.87,4.53-2.68,7.18-1.93-.69-2.93-.39-6.85,3.25-7.5,4.7-.85,5.72,5.49,5.73,8.82,0,2.64-.3,7.81-.3,7.81-2.64-.12-5.12,0-7.76-.1C166.85,207.38,161.45,206.1,161.39,202.57Z" transform="translate(-15.42 9.2)" fill="#fff"/>
            </g>
            <g>
              <path d="M125.51,93.44,148.62,85A7.31,7.31,0,0,1,158,89.31l5.64,15.39a7.3,7.3,0,0,1-4.35,9.37l-5.16,1.9,2.2,6-6.38-4.5-13.77,5.05a7.31,7.31,0,0,1-9.38-4.34l-5.64-15.39A7.31,7.31,0,0,1,125.51,93.44Z" transform="translate(-15.42 9.2)" fill="#dc5475"/>
              <path d="M132.28,100.41a4.61,4.61,0,0,1,1.38-1.72c2.46-2,5.24-.53,7.32,1.27.6-3,2.53-6.38,6.1-5.45,4.63,1.21,2.89,7.39,1.5,10.42-1.11,2.4-3.56,7-3.56,7-2.35-1.22-4.66-2.13-7-3.36C135.22,107.07,130.86,103.63,132.28,100.41Z" transform="translate(-15.42 9.2)" fill="#fff"/>
            </g>
            <g>
              <path d="M328.37,77l22.8,9.31a7.32,7.32,0,0,1,4,9.53L349,111a7.31,7.31,0,0,1-9.53,4l-5.09-2.09-2.43,5.95-1.68-7.63-13.59-5.54a7.32,7.32,0,0,1-4-9.53L318.85,81A7.3,7.3,0,0,1,328.37,77Z" transform="translate(-15.42 9.2)" fill="#dc5475"/>
              <path d="M328.69,86.69a4.59,4.59,0,0,1,2.17-.34c3.19.16,4.23,3.13,4.56,5.87,2.43-1.78,6.16-3,8.17.08,2.61,4-2.84,7.41-5.9,8.71-2.44,1-7.33,2.75-7.33,2.75-.91-2.48-2-4.71-2.91-7.2C326.37,93.59,325.46,88.12,328.69,86.69Z" transform="translate(-15.42 9.2)" fill="#fff"/>
            </g>
            <g>
              <path d="M211.47,65.85l24.39-3.4a7.3,7.3,0,0,1,8.24,6.22l2.27,16.23a7.32,7.32,0,0,1-6.23,8.25l-5.45.76.88,6.35-5.28-5.74-14.53,2a7.32,7.32,0,0,1-8.25-6.23l-2.26-16.23A7.3,7.3,0,0,1,211.47,65.85Z" transform="translate(-15.42 9.2)" fill="#dc5475"/>
              <path d="M216.62,74.09a4.64,4.64,0,0,1,1.71-1.39c2.84-1.46,5.23.58,6.89,2.78,1.21-2.76,3.81-5.7,7.11-4,4.27,2.16,1.26,7.83-.73,10.49-1.59,2.12-5,6.06-5,6.06-2-1.69-4.09-3.07-6.13-4.76C218.09,81.22,214.55,76.94,216.62,74.09Z" transform="translate(-15.42 9.2)" fill="#fff"/>
            </g>
          </g>
        </g>
        <path d="M273.07,444.46c0,8.35,47.25,15.13,105.54,15.13s105.55-6.78,105.55-15.13-47.26-15.13-105.55-15.13S273.07,436.1,273.07,444.46Z" transform="translate(-15.42 9.2)" fill="#dbedff" opacity="0.5" style="mix-blend-mode: multiply"/>
      </g>
    </g>
  </g>
</svg>
