<svg id="katman_1" data-name="katman 1" xmlns="http://www.w3.org/2000/svg" viewBox="0 0 328.54 458.32">
  <title>strestBozuklugu</title>
  <g>
    <path d="M412.06,290.51s-4.89,34.39-10.27,31.6-20.18-13.75-22.57-8.4S362.64,345.17,361,341.5s6.4-51.86,10.4-50.61,24.08,14.65,26.08,11.81S411.54,268.66,412.06,290.51Z" transform="translate(-130.11 -202.07)" fill="#f9bb75"/>
    <path d="M455.76,403.05s-23.15,25.9-26.08,20.59-9.17-22.63-14.12-19.51-31.24,17-30.54,13,34.1-39.6,36.73-36.34,11.91,25.55,15.14,24.29S467.45,384.58,455.76,403.05Z" transform="translate(-130.11 -202.07)" fill="#f9bb75"/>
    <path d="M135.19,419.22s30.63-16.39,31.56-10.39.83,24.4,6.56,23.17,35.17-5.22,33.16-1.77-45.62,25.5-47,21.53-2.42-28.09-5.88-28S117.87,432.55,135.19,419.22Z" transform="translate(-130.11 -202.07)" fill="#f9bb75"/>
    <path d="M163.67,296.45s34.72-1.13,32.89,4.66-10.05,22.25-4.37,23.68,33.85,10.9,30.51,13.1-52.19,2.66-51.65-1.5,10.28-26.25,7.14-27.72S142.24,300.73,163.67,296.45Z" transform="translate(-130.11 -202.07)" fill="#f9bb75"/>
    <path d="M268.68,207.81s-12.57,32.38-6.51,32.58,24.33-2.11,23.79,3.72-.94,35.55,2.24,33.13S308,228.89,303.92,228s-28.18,1-28.52-2.46S279.83,189,268.68,207.81Z" transform="translate(-130.11 -202.07)" fill="#f9bb75"/>
    <g>
      <circle cx="168.83" cy="115.74" r="27.17" fill="#36274d"/>
      <path d="M322.87,337.17s11.92,3.28,19.71,22.79c5.92,14.81,2.21,27.06,16.71,44.05s14.37,41.62-15.62,43.3c-18.61,1.05-27.62,14.83-44,10.82s-16.41-6.28-32.18-5.85c-18.43.5-27.34-3.58-33.11-15.87-9.59-20.46,8.06-30.39,8-48.62C242.38,368.72,255.67,314.9,322.87,337.17Z" transform="translate(-130.11 -202.07)" fill="#36274d"/>
      <path d="M312,404.46s-.75,48.66,0,55.45,44.39,3.52,57.66,15.93-31.3,49.05-58.38,64.84c-20.75,12.1-91.54-67.55-74.59-68.13s44.89-5.75,44.13-18.19-1.22-23.74-1.22-23.74S309.5,406.35,312,404.46Z" transform="translate(-130.11 -202.07)" fill="#ed7a79"/>
      <path d="M327.3,369.05s11.14,75.26-31.53,78c-29.35,1.88-44.36-47.16-37.38-70.72S309.16,351.39,327.3,369.05Z" transform="translate(-130.11 -202.07)" fill="#ed7a79"/>
      <path d="M263.93,405.45s-5.7-13.8-11.61-7.27,2.12,23,8.16,22.59S267.14,411,263.93,405.45Z" transform="translate(-130.11 -202.07)" fill="#ed7a79"/>
      <path d="M326.26,405.42s1.21-12.92,7.89-7.17S333,420.72,327,421,323.77,411.35,326.26,405.42Z" transform="translate(-130.11 -202.07)" fill="#ed7a79"/>
      <path d="M295.78,419.65c2.93.51,5.76,3.11,8.44,7.76l-2,1.16c-2.59-4.51-5.27-6.83-7.71-6.68-3.43.2-6.27,5.1-7.07,7l-2.14-.92c.14-.32,3.52-8.05,9.08-8.37A6.16,6.16,0,0,1,295.78,419.65Z" transform="translate(-130.11 -202.07)" fill="#2f1933"/>
      <path d="M318.32,342.18s21.5,10.83,21,35.48c-.18,9.59-33.89,11.87-39.69,4.21S293.46,353,293.46,353s0,25.32-9.64,31.88-35.85,3.34-33.53.3,5.9-40.47,29.17-48.16S318.32,342.18,318.32,342.18Z" transform="translate(-130.11 -202.07)" fill="#36274d"/>
      <circle cx="184.01" cy="217.49" r="7.67" fill="#e85c6e"/>
      <circle cx="143.2" cy="217.49" r="7.67" fill="#e85c6e"/>
      <path d="M316.86,381.66c-7.74-8.17-10-38.6-10.05-39.9l2.32-.16c0,.31,2.25,30.9,9.42,38.47Z" transform="translate(-130.11 -202.07)" fill="#473667"/>
      <path d="M274,375.8a25.58,25.58,0,0,1,.17-12.68c1.64-6.61,6.53-16.19,20.51-24.35l1.17,2c-25.3,14.77-19.68,34.15-19.62,34.34Z" transform="translate(-130.11 -202.07)" fill="#473667"/>
      <path d="M254.36,375.12l-2.2-.75c.45-1.35,11.41-33.08,35.51-37l.37,2.3C265.33,343.36,254.47,374.8,254.36,375.12Z" transform="translate(-130.11 -202.07)" fill="#473667"/>
      <path d="M329.05,378l-2.25-.58c.05-.2,4.89-19.94-8.47-34.5l1.71-1.57C334.28,356.9,329.27,377.18,329.05,378Z" transform="translate(-130.11 -202.07)" fill="#473667"/>
      <path d="M353.34,431.22a50.86,50.86,0,0,0-9.58-29.83l1.79-1.47c.41.5,10.07,12.45,10.11,31.3Z" transform="translate(-130.11 -202.07)" fill="#473667"/>
      <path d="M333.09,441.71l-1.28-1.93c.07-.06,7.7-5.49,4.55-22.85l2.29-.42C342.1,435.52,333.46,441.47,333.09,441.71Z" transform="translate(-130.11 -202.07)" fill="#473667"/>
      <path d="M262.18,447.71c-.35-.26-8.55-6.4-7-24.91l2.31.2c-1.46,17.08,5.94,22.77,6,22.82Z" transform="translate(-130.11 -202.07)" fill="#473667"/>
      <path d="M247.81,442.19c-.52-.19-12.6-5.06-2.75-33.21l2.2.77c-9.11,26,1.25,30.22,1.36,30.26Z" transform="translate(-130.11 -202.07)" fill="#473667"/>
      <path d="M303.43,327.66l.78-1.94c2.92-7.23-4.33-22.54-4.41-22.7l2.1-1c.3.61,6.64,14,5.06,22.52,2.45-.74,6.65-2.48,8.26-5.94,1.25-2.71.71-6.08-1.6-10l2-1.17c2.73,4.65,3.3,8.75,1.7,12.2-2.84,6.1-11.46,7.65-11.83,7.71Z" transform="translate(-130.11 -202.07)" fill="#473667"/>
      <path d="M294.11,327.23a8.75,8.75,0,0,1-4.83-5c-3.15-7.89,2.47-20.93,2.72-21.48l2.13.93c-.06.12-5.47,12.71-2.69,19.69a6.43,6.43,0,0,0,3.57,3.71Z" transform="translate(-130.11 -202.07)" fill="#473667"/>
      <path d="M271.64,411.25l-.37-1.82c1.31-.27,5-1.26,6.43-2.64l1.3,1.34C276.91,410.16,271.86,411.21,271.64,411.25Z" transform="translate(-130.11 -202.07)" fill="#2f1933"/>
      <path d="M316.32,410.07a23.3,23.3,0,0,1-6.2-1.13l.58-1.77c1.27.42,5,1.41,6.89.91l.47,1.8A6.83,6.83,0,0,1,316.32,410.07Z" transform="translate(-130.11 -202.07)" fill="#2f1933"/>
      <circle cx="143.2" cy="200.42" r="3.86" fill="#2f1933"/>
      <circle cx="184.9" cy="199.51" r="3.86" fill="#2f1933"/>
      <path d="M295.82,449.18a22.55,22.55,0,0,1-10.09-2.4l.69-2.41.42.19c4.41,2.21,13.43,4.66,24.27-3.74l1.52,2C306.35,447.65,300.59,449.18,295.82,449.18Z" transform="translate(-130.11 -202.07)" fill="#e85c6e"/>
      <path d="M260.47,414.4l-2.39-.7c.91-3.12-2.51-7.06-3.9-8.32l1.66-1.84C256.1,403.76,262,409.16,260.47,414.4Z" transform="translate(-130.11 -202.07)" fill="#e85c6e"/>
      <path d="M295.14,398.62s5.78,14.81,3.08,15.43-9.35,1.13-10.18,0S292.37,394.14,295.14,398.62Z" transform="translate(-130.11 -202.07)" fill="#e64967"/>
      <path d="M248.43,451.36c-.21,0-21.5-3.56-21.08-28.58.25-15.28,6.64-24.19,11.78-31.35,3.08-4.3,5.51-7.69,5.73-11.26l2.48.15c-.26,4.28-3,8.12-6.19,12.56-4.94,6.88-11.08,15.44-11.32,29.94-.38,22.81,18.19,26,19,26.09Z" transform="translate(-130.11 -202.07)" fill="#36274d"/>
      <path d="M361,443.43l-.21-2.47a12.16,12.16,0,0,0,7.78-4.58c2.84-3.74,3.6-9.28,2.28-16.48-2-10.82-7-15-12.83-19.83-5.14-4.27-11-9.12-15.1-19.36l2.3-.93c3.9,9.67,9.23,14.1,14.39,18.38,5.92,4.93,11.52,9.59,13.68,21.29,1.46,7.94.53,14.15-2.77,18.47A14.43,14.43,0,0,1,361,443.43Z" transform="translate(-130.11 -202.07)" fill="#36274d"/>
      <path d="M342.46,421.56a1.23,1.23,0,0,1-.35-.05c-1.45-.37-2.71-.68,3.72-43.66,2-13.51-.53-24-7.58-31.17-14.13-14.38-41.95-10.9-42.23-10.87l-.33-2.46c1.19-.16,29.32-3.68,44.33,11.58,7.62,7.76,10.4,19,8.26,33.29-5.33,35.67-5.06,40.77-4.84,41.49a1,1,0,0,0-.83-.62,1.09,1.09,0,0,0-.67.1l2.17.79C343.64,421.27,343,421.56,342.46,421.56Z" transform="translate(-130.11 -202.07)" fill="#36274d"/>
      <path d="M244.88,380.51c-3.46-16.11-1.24-28.43,6.6-36.64,14.66-15.34,43.37-10.71,44.58-10.51l-.41,2.45c-.28-.05-28.63-4.6-42.38,9.78-7.23,7.57-9.24,19.15-6,34.39Z" transform="translate(-130.11 -202.07)" fill="#36274d"/>
      <path d="M326.11,463.21s-3.8,37.19-29.34,35.73-26.09-36.6-31.95-34.83-48,1-61.79,29-16.76,85.57-14.41,154.63c.52,15.07,202.81,18.22,203.4,1,1.45-42.34.23-167.78-16.92-175.54S326.11,463.21,326.11,463.21Z" transform="translate(-130.11 -202.07)" fill="#895575"/>
      <path d="M366.15,568.18s-6.2-42.43,3-44.34,40.18-15.26,45.83-3.89,8.66,58.36-2.88,71.87C407.66,597,366.15,568.18,366.15,568.18Z" transform="translate(-130.11 -202.07)" fill="#ed7a79"/>
      <path d="M360.84,541.93s50.25,5.86,59.11,3.27c0,0,5.61-86.34-93.84-82C326.11,463.21,350.62,538.56,360.84,541.93Z" transform="translate(-130.11 -202.07)" fill="#895575"/>
      <path d="M204.93,586.72s-24.86-8.27-32.36-48.18c-1.61-8.53.67-81.31,84.63-74.92C257.2,463.62,215.15,583.36,204.93,586.72Z" transform="translate(-130.11 -202.07)" fill="#895575"/>
      <path d="M219.3,531.46l-46,10.47c-.74,31.78,14.63,65.7,55.32,52.48C239.54,590.85,247.66,543.61,219.3,531.46Z" transform="translate(-130.11 -202.07)" fill="#ed7a79"/>
      <path d="M413.45,574.81s19.23,26.67-27,42.34-139.38-47.82-158.93-41.79-22.18-20.66,15.54-26.94S377.77,542.26,413.45,574.81Z" transform="translate(-130.11 -202.07)" fill="#ed7a79"/>
      <path d="M392.51,565.71c-3.46-4.23-28-11.29-37.16-13.65l.62-2.41c3.46.89,33.87,8.87,38.46,14.49Z" transform="translate(-130.11 -202.07)" fill="#e85c6e"/>
      <path d="M192.3,590.15s35.12,27,52.61-18c13.32-34.27,32.06-126.76,30-133.61s-13.21-25.07-14.35-31.09-4.26,5.56-.08,13.31c0,0-2.64-17.65-3-20.85S249,408.06,255,421c0,0,.41-24.34-2.69-22.85s-7.34,15.94-6.55,24.62,11.66,17.78,9.24,22.78-60.2,83.27-62.47,103.75A221.31,221.31,0,0,0,192.3,590.15Z" transform="translate(-130.11 -202.07)" fill="#ed7a79"/>
      <path d="M276.33,440.38l-2.49-.06a20.49,20.49,0,0,0-3.41-10.76c-3.85-5.71-13.95-22.51-14.47-31.56l2.48-.14c.48,8.45,10.56,25.13,14.05,30.31A22.85,22.85,0,0,1,276.33,440.38Z" transform="translate(-130.11 -202.07)" fill="#e85c6e"/>
      <rect x="187.54" y="540.62" width="16.16" height="2.48" transform="translate(-510.02 314.33) rotate(-67.62)" fill="#e85c6e"/>
      <path d="M328,412l-2.47-.25c.54-5.32,3.74-7.22,3.87-7.3l1.24,2.15-.62-1.07.64,1.06C330.58,406.66,328.41,408,328,412Z" transform="translate(-130.11 -202.07)" fill="#e85c6e"/>
      <path d="M298.45,506.14c-18.51,0-25.87-11.59-26.2-12.12l2.11-1.3c.33.52,8.19,12.75,28.55,10.71,12.19-1.21,22.06-16.09,22.16-16.24l2.08,1.36c-.43.65-10.63,16-24,17.35A45.54,45.54,0,0,1,298.45,506.14Z" transform="translate(-130.11 -202.07)" fill="#36274d"/>
      <path d="M365.48,548l-2.48-.1c.55-13.11-5.71-26.31-5.78-26.44l2.24-1.07C359.73,520.9,366.05,534.23,365.48,548Z" transform="translate(-130.11 -202.07)" fill="#36274d"/>
    </g>
  </g>
</svg>
