<svg id="katman_1" data-name="katman 1" xmlns="http://www.w3.org/2000/svg" viewBox="0 0 347.68 447.57">
  <title>yemekBozukluklari</title>
  <g>
    <path d="M460.73,460.12s-28.21,23.75-54,28.45c-18.05,3.28-100.33-100.37-80.42-103.92C366.34,377.5,447.15,394.8,460.73,460.12Z" transform="translate(-120.78 -206.6)" fill="#895575"/>
    <path d="M260.53,417.19s-40-31-76.68,3.67C161,442.42,112.53,499.73,122,558.07c5.7,35.14,135.45,114.9,140.29,76.69S270.51,411.63,260.53,417.19Z" transform="translate(-120.78 -206.6)" fill="#e85c6e"/>
    <circle cx="170.7" cy="27.4" r="27.4" fill="#36274d"/>
    <path d="M315.62,253.54s12,3.3,19.88,23c6,14.93,2.22,27.28,16.84,44.41s14.49,42-15.75,43.68c-18.77,1.05-27.85,14.95-44.36,10.91s-16.54-6.34-32.45-5.91c-18.59.51-27.57-3.6-33.38-16-9.68-20.63,8.12-30.65,8.08-49C234.45,285.35,247.85,231.07,315.62,253.54Z" transform="translate(-120.78 -206.6)" fill="#36274d"/>
    <path d="M304.62,321.39s-.76,49.07,0,55.92,43.84,19,57.23,31.51-30.64,34-57.95,49.94C283,471,210,396.92,227.06,396.33s46.87-12.08,46.1-24.62-1.22-23.94-1.22-23.94S302.13,323.3,304.62,321.39Z" transform="translate(-120.78 -206.6)" fill="#ed7a79"/>
    <path d="M320.09,285.69s11.23,75.89-31.8,78.65c-29.6,1.89-44.74-47.56-37.7-71.33S301.79,267.87,320.09,285.69Z" transform="translate(-120.78 -206.6)" fill="#ed7a79"/>
    <path d="M256.18,322.39s-5.75-13.92-11.71-7.33,2.14,23.23,8.23,22.78S259.42,328,256.18,322.39Z" transform="translate(-120.78 -206.6)" fill="#ed7a79"/>
    <path d="M319,322.36s1.22-13,7.95-7.23-1.15,22.66-7.24,23S316.53,328.34,319,322.36Z" transform="translate(-120.78 -206.6)" fill="#ed7a79"/>
    <path d="M311,258.58s21.68,10.93,21.22,35.78c-.18,9.68-34.18,12-40,4.25S286,269.52,286,269.52s0,25.53-9.72,32.14-36.15,3.38-33.82.31,6-40.81,29.43-48.57S311,258.58,311,258.58Z" transform="translate(-120.78 -206.6)" fill="#36274d"/>
    <circle cx="186.01" cy="130.01" r="7.74" fill="#e85c6e"/>
    <circle cx="144.85" cy="130.01" r="7.74" fill="#e85c6e"/>
    <path d="M309.56,298.4c-7.8-8.24-10.05-38.93-10.14-40.23l2.34-.17c0,.31,2.27,31.16,9.5,38.79Z" transform="translate(-120.78 -206.6)" fill="#41315d"/>
    <path d="M266.34,292.49a25.66,25.66,0,0,1,.16-12.79c1.66-6.66,6.59-16.32,20.69-24.55l1.18,2c-25.51,14.89-19.85,34.43-19.79,34.62Z" transform="translate(-120.78 -206.6)" fill="#41315d"/>
    <path d="M246.53,291.8l-2.22-.75c.46-1.36,11.5-33.36,35.81-37.32l.38,2.31C257.59,259.78,246.64,291.48,246.53,291.8Z" transform="translate(-120.78 -206.6)" fill="#41315d"/>
    <path d="M321.85,294.75l-2.27-.59c.05-.2,4.94-20.1-8.54-34.79l1.73-1.58C327.12,273.43,322.07,293.88,321.85,294.75Z" transform="translate(-120.78 -206.6)" fill="#41315d"/>
    <path d="M346.34,348.38a51.21,51.21,0,0,0-9.66-30.08l1.81-1.49c.42.5,10.16,12.56,10.2,31.56Z" transform="translate(-120.78 -206.6)" fill="#41315d"/>
    <path d="M325.93,359l-1.3-1.95c.08-.06,7.77-5.53,4.59-23.05l2.31-.42C335,352.71,326.3,358.71,325.93,359Z" transform="translate(-120.78 -206.6)" fill="#41315d"/>
    <path d="M259.07,364.06c-.4-.17-9.83-4.41-12.35-23l2.33-.31c2.32,17.13,10.86,21.1,10.94,21.14Z" transform="translate(-120.78 -206.6)" fill="#41315d"/>
    <path d="M239.92,359.44c-.52-.19-12.7-5.1-2.77-33.49l2.22.77c-9.19,26.25,1.26,30.48,1.37,30.52Z" transform="translate(-120.78 -206.6)" fill="#41315d"/>
    <path d="M296,243.94l.78-1.95c2.95-7.3-4.37-22.74-4.44-22.89l2.11-1c.3.62,6.7,14.15,5.1,22.72,2.48-.75,6.71-2.5,8.33-6,1.26-2.73.72-6.13-1.61-10.12l2-1.18c2.75,4.69,3.33,8.83,1.71,12.3-2.86,6.16-11.56,7.72-11.93,7.78Z" transform="translate(-120.78 -206.6)" fill="#41315d"/>
    <path d="M286.61,243.51a8.8,8.8,0,0,1-4.86-5c-3.18-7.95,2.49-21.1,2.73-21.66l2.15.94c-.05.13-5.51,12.82-2.7,19.86a6.46,6.46,0,0,0,3.59,3.74Z" transform="translate(-120.78 -206.6)" fill="#41315d"/>
    <path d="M261.12,312.84h-.05V311c1.37,0,5.22-.21,6.89-1.27l1,1.6C266.59,312.8,261.66,312.84,261.12,312.84Z" transform="translate(-120.78 -206.6)" fill="#2f1933"/>
    <path d="M310.77,313.16a26.63,26.63,0,0,1-5.06-.58l.42-1.85c1.31.3,5.13.92,7,.23l.65,1.78A9.13,9.13,0,0,1,310.77,313.16Z" transform="translate(-120.78 -206.6)" fill="#2f1933"/>
    <circle cx="144.85" cy="112.8" r="3.89" fill="#2f1933"/>
    <circle cx="186.91" cy="111.88" r="3.89" fill="#2f1933"/>
    <path d="M252.7,331.41l-2.42-.7c.91-3.14-2.54-7.12-3.94-8.38l1.69-1.88C248.29,320.68,254.23,326.13,252.7,331.41Z" transform="translate(-120.78 -206.6)" fill="#e85c6e"/>
    <path d="M320.81,329l-2.51-.26c.54-5.37,3.77-7.29,3.91-7.37l1.26,2.19-.63-1.1.65,1.09C323.4,323.62,321.22,325,320.81,329Z" transform="translate(-120.78 -206.6)" fill="#e85c6e"/>
    <path d="M288.81,313.62s5.84,14.94,3.1,15.56-9.42,1.14-10.25,0S286,309.1,288.81,313.62Z" transform="translate(-120.78 -206.6)" fill="#e64967"/>
    <path d="M240.48,368.69c-.24-.05-24-5.43-23.57-30.61.26-15.44,7.6-23.78,13.5-30.48,3.53-4,6.31-7.16,6.53-10.7l2.52.15c-.27,4.41-3.46,8-7.15,12.22-5.63,6.39-12.63,14.34-12.88,28.85-.38,23.13,21.35,28.05,21.57,28.1Z" transform="translate(-120.78 -206.6)" fill="#36274d"/>
    <path d="M354,360.7l-.22-2.52a12.21,12.21,0,0,0,7.85-4.6c2.85-3.77,3.63-9.36,2.29-16.61-2-10.91-7.07-15.12-12.93-20-5.19-4.31-11.06-9.19-15.24-19.52l2.34-.95c3.94,9.74,9.31,14.21,14.51,18.53,6,5,11.63,9.67,13.8,21.48,1.48,8,.54,14.28-2.79,18.63A14.53,14.53,0,0,1,354,360.7Z" transform="translate(-120.78 -206.6)" fill="#36274d"/>
    <path d="M335.37,338.65a1.23,1.23,0,0,1-.35,0c-1.53-.39-2.74-.69,3.74-44,2-13.63-.54-24.21-7.64-31.43-14.27-14.51-42.3-11-42.58-10.95l-.33-2.51c1.2-.16,29.57-3.71,44.71,11.69,7.69,7.82,10.49,19.11,8.33,33.57-5.37,36-5.09,41.11-4.88,41.83a1.06,1.06,0,0,0-.84-.63,1.26,1.26,0,0,0-.7.11l2.22.81C336.57,338.35,335.89,338.65,335.37,338.65Z" transform="translate(-120.78 -206.6)" fill="#36274d"/>
    <path d="M267,383.48s11.72,35.12,40.85,26c14.79-4.65,6.18-28.08,6.18-28.08,63.74.39,77,64.76,78.57,78.33,6.08,53.64,31.53,64,24.93,147.56-1.06,13.43-146,38.15-200.13,4.83-16-9.88-8.19-100.7,15.4-185.74C238.14,406.91,254.52,382.9,267,383.48Z" transform="translate(-120.78 -206.6)" fill="#895575"/>
    <path d="M271.37,254.57c-8.76-3.6-13.55-8.43-14.25-14.36-1.42-12.07,14.83-23.92,15.52-24.42l1.47,2.05c-.15.11-15.73,11.48-14.48,22.08.58,4.94,4.85,9.09,12.7,12.31Z" transform="translate(-120.78 -206.6)" fill="#36274d"/>
    <path d="M277.6,340.72s7.95-11.3,14.77-6.13,8.49,12.38-2.43,14.54S274.72,344,277.6,340.72Z" transform="translate(-120.78 -206.6)" fill="#fcedea"/>
    <path d="M129.46,479.83c-2.17,5.95,73.58,27.92,84.73,18.11S267,383.48,267,383.48C194.88,390.1,158,401.59,129.46,479.83Z" transform="translate(-120.78 -206.6)" fill="#895575"/>
    <path d="M275.44,417.2s-1.35-84.17,15.79-76.43,52,52.25,48.58,60.89S275.54,428.3,275.44,417.2Z" transform="translate(-120.78 -206.6)" fill="#f6b471"/>
    <path d="M175.53,487s132.37-11.31,135.89-5-3.66,74.09-3.66,74.09,76.72,46.12,73.82,53.6-133.7,55.48-146.89,42.15-48-51.65-55.36-62.82S169.92,498.71,175.53,487Z" transform="translate(-120.78 -206.6)" fill="#36274d"/>
    <path d="M326.76,602.56c-17.85-3.7-46.36-10.54-47.28-12.32s24.14-7.71,40.79-11.51c3.65-.84,6.91-1.56,9.39-2.11-.67-.69-1.37-1.38-2.12-2-26.32-23.75-102.41-2.8-102.41-2.8-24,5.13-33.93,53.75,39,57.43,44.2,2.22,67.76-9.6,73.63-24.55C335.2,604.25,331.34,603.51,326.76,602.56Z" transform="translate(-120.78 -206.6)" fill="#f8c798"/>
    <g>
      <path d="M269.15,620.8c-57.51-2.9-49.7-41.26-30.75-45.31,0,0,60-16.53,80.8,2.21.38.34.72.68,1.07,1,3.65-.84,6.91-1.56,9.39-2.11-.67-.69-1.37-1.38-2.12-2-26.32-23.75-102.41-2.8-102.41-2.8-24,5.13-33.93,53.75,39,57.43,44.2,2.22,67.76-9.6,73.63-24.55-2.53-.4-6.39-1.14-11-2.09C321.4,613.81,302.9,622.5,269.15,620.8Z" transform="translate(-120.78 -206.6)" fill="#f6b471"/>
      <path d="M238.4,575.49c-19,4-26.76,42.41,30.75,45.31,33.75,1.7,52.25-7,57.61-18.24-17.85-3.7-46.36-10.54-47.28-12.32s24.14-7.71,40.79-11.51c-.35-.35-.69-.69-1.07-1C298.44,559,238.4,575.49,238.4,575.49Z" transform="translate(-120.78 -206.6)" fill="#f8c798"/>
      <path d="M251.9,609.16a12,12,0,0,1-11.37-4.51c-4.78-5.94,7.82-7.2,13.07-5.45S258.6,610,251.9,609.16Z" transform="translate(-120.78 -206.6)" fill="#e85c6e"/>
      <path d="M270.43,585.9s-4.68,2.67-9.1-2.37,4.73-8.66,8.89-7.89S275.53,585.52,270.43,585.9Z" transform="translate(-120.78 -206.6)" fill="#e85c6e"/>
      <path d="M282.86,616.68s-4.68,2.67-9.11-2.37,4.74-8.66,8.9-7.89S288,616.3,282.86,616.68Z" transform="translate(-120.78 -206.6)" fill="#e85c6e"/>
      <path d="M272.21,602.89s-4.68,2.67-9.1-2.37,4.73-8.66,8.89-7.89S277.31,602.51,272.21,602.89Z" transform="translate(-120.78 -206.6)" fill="#e85c6e"/>
      <path d="M303.88,611.15s-4.68,2.66-9.11-2.38,4.74-8.65,8.89-7.88S309,610.76,303.88,611.15Z" transform="translate(-120.78 -206.6)" fill="#e85c6e"/>
      <path d="M237.14,581.51a12,12,0,0,1,11.8,3.19c5.42,5.36-6.95,8-12.37,6.89S230.38,581.41,237.14,581.51Z" transform="translate(-120.78 -206.6)" fill="#e85c6e"/>
      <path d="M287.27,570.58a12,12,0,0,1,11.81,3.19c5.42,5.36-6.95,8-12.37,6.9S280.52,570.48,287.27,570.58Z" transform="translate(-120.78 -206.6)" fill="#e85c6e"/>
    </g>
    <path d="M275.37,402.94S333.1,387.79,332.26,383s-36.68-46.25-45.16-47.54S275.38,394.65,275.37,402.94Z" transform="translate(-120.78 -206.6)" fill="#f8c798"/>
    <path d="M340.23,390s-11.18-17.42-15.94-16.46,5.85,18.07,5.85,18.07-9.35-16.58-12-11.76,4.29,20.05,4.29,20.05-9.9-22.27-12.13-13.78c-3.2,12.16,8.7,22.22,14.05,31S398.7,515,430.48,510.65s53.81-36.14,23.64-58.45C438.26,440.47,346.14,395.44,340.23,390Z" transform="translate(-120.78 -206.6)" fill="#e85c6e"/>
    <path d="M291.1,349.86s6.82-1.89,7.27,3.38-5.09,10.07-9,5.4S286.35,350.8,291.1,349.86Z" transform="translate(-120.78 -206.6)" fill="#e85c6e"/>
    <path d="M300.15,383.48s6.82-1.89,7.26,3.38-5.08,10.07-9,5.4S295.4,384.41,300.15,383.48Z" transform="translate(-120.78 -206.6)" fill="#e85c6e"/>
    <path d="M301.58,366.61s3.65-6.27,8.41-1.28,4.56,13.37-2.38,11.21S298.73,370.59,301.58,366.61Z" transform="translate(-120.78 -206.6)" fill="#e85c6e"/>
    <path d="M286.41,384.19s-7,2.09-7-4.82,5.81-12.87,9.4-6.54S291.22,383.23,286.41,384.19Z" transform="translate(-120.78 -206.6)" fill="#e85c6e"/>
    <path d="M186.06,495.35c-1.29-7.31,9.71-32.85,11-35.74l2.32,1c-3.33,7.66-11.77,28.74-10.79,34.29Z" transform="translate(-120.78 -206.6)" fill="#36274d"/>
  </g>
</svg>
